<svg id="svg" version="1.1" xmlns="http://www.w3.org/2000/svg" xmlns:xlink="http://www.w3.org/1999/xlink" width="400" height="171.18473895582332" viewBox="0, 0, 400,171.18473895582332"><g id="svgg"><path id="path0" d="M182.833 0.400 C 178.995 1.242,176.385 2.129,172.717 3.839 C 171.938 4.203,171.272 4.500,171.238 4.500 C 170.920 4.500,165.655 7.726,163.567 9.200 C 157.475 13.501,149.769 21.198,145.578 27.167 C 145.353 27.488,144.788 28.275,144.323 28.917 C 143.018 30.715,140.983 33.785,140.732 34.333 C 140.669 34.471,140.455 34.808,140.257 35.083 C 139.235 36.499,135.897 42.728,134.407 46.000 C 133.885 47.146,133.141 48.758,132.754 49.583 C 132.366 50.408,131.991 51.271,131.921 51.500 C 131.850 51.729,131.735 51.992,131.665 52.083 C 130.871 53.117,130.139 55.936,130.616 56.119 C 130.905 56.230,134.463 54.508,137.050 53.005 L 138.351 52.250 139.188 50.500 C 140.316 48.145,142.500 43.790,142.658 43.583 C 142.728 43.492,143.010 43.004,143.285 42.500 C 144.572 40.137,146.707 36.657,147.964 34.870 C 148.674 33.862,150.972 30.695,151.187 30.428 C 151.266 30.330,151.603 29.912,151.935 29.500 C 154.344 26.509,156.185 24.452,158.497 22.167 C 164.290 16.439,170.907 11.791,176.500 9.521 C 177.004 9.316,177.567 9.083,177.750 9.003 C 186.743 5.067,197.780 6.141,204.501 11.606 C 207.207 13.806,209.995 16.994,211.334 19.417 C 211.536 19.783,211.763 20.158,211.836 20.250 C 212.126 20.610,213.348 23.196,214.007 24.845 C 215.122 27.631,215.416 28.625,216.493 33.250 C 218.853 43.377,217.840 57.854,213.671 73.583 C 212.696 77.264,209.678 85.632,208.063 89.137 C 207.753 89.808,207.500 90.400,207.500 90.452 C 207.500 90.503,206.708 92.155,205.741 94.122 C 204.773 96.088,204.005 97.822,204.035 97.974 C 204.083 98.225,204.705 98.254,210.801 98.294 L 217.514 98.337 218.186 96.877 C 219.946 93.053,221.996 87.605,223.251 83.417 C 223.663 82.042,224.072 80.692,224.159 80.417 C 227.707 69.194,229.084 52.078,227.409 40.000 C 224.511 19.092,214.181 4.776,199.000 0.626 L 197.083 0.102 190.833 0.059 C 184.842 0.018,184.511 0.032,182.833 0.400 M211.444 3.111 C 211.112 3.443,211.378 4.001,212.125 4.538 C 214.459 6.218,218.364 10.454,220.524 13.651 C 221.734 15.442,221.991 15.861,222.880 17.500 C 223.154 18.004,223.510 18.642,223.671 18.917 C 230.599 30.724,232.757 53.487,228.739 72.375 C 227.798 76.798,227.662 77.349,226.549 81.250 C 225.135 86.202,223.227 91.640,221.752 94.917 C 220.839 96.945,220.643 97.492,220.695 97.859 L 220.750 98.250 228.998 98.250 C 238.477 98.250,237.744 98.407,236.839 96.570 C 229.697 82.062,244.550 66.002,259.434 72.140 C 268.860 76.026,273.266 86.650,269.228 95.750 C 268.213 98.038,268.225 97.996,268.502 98.173 C 268.947 98.458,276.857 98.296,277.007 98.000 C 277.076 97.862,277.337 97.114,277.587 96.337 C 278.470 93.584,279.877 91.308,282.172 88.917 C 284.231 86.771,285.463 85.197,285.743 84.356 C 286.214 82.937,286.487 78.387,286.230 76.247 L 286.129 75.411 283.263 75.474 C 277.258 75.605,274.416 74.391,272.012 70.667 L 271.313 69.583 278.073 69.540 L 284.833 69.496 284.833 68.955 C 284.833 68.658,284.753 68.152,284.654 67.832 C 284.556 67.512,284.259 66.472,283.995 65.522 C 283.732 64.571,283.494 63.774,283.466 63.749 C 283.439 63.725,282.929 63.516,282.333 63.285 C 281.737 63.053,280.387 62.530,279.333 62.121 C 278.279 61.712,276.742 61.137,275.917 60.844 C 275.092 60.551,274.267 60.244,274.083 60.162 C 273.900 60.080,272.662 59.628,271.333 59.159 C 270.004 58.689,268.459 58.134,267.900 57.926 C 266.512 57.409,254.980 53.627,252.917 53.011 C 252.000 52.738,250.088 52.174,248.667 51.757 C 247.246 51.341,245.858 50.930,245.583 50.845 C 245.308 50.759,244.183 50.453,243.083 50.164 C 241.983 49.876,240.746 49.540,240.333 49.420 C 239.921 49.299,239.340 49.149,239.042 49.087 C 238.502 48.974,238.500 48.970,238.500 47.956 C 238.500 45.384,237.521 38.675,236.561 34.667 C 234.862 27.572,231.440 19.831,228.126 15.583 C 228.055 15.492,227.765 15.117,227.483 14.750 C 223.518 9.596,218.433 5.630,213.037 3.483 C 211.743 2.968,211.617 2.938,211.444 3.111 M185.833 9.433 C 179.831 10.455,175.189 12.369,169.607 16.123 C 164.749 19.390,159.185 24.463,155.583 28.909 C 155.217 29.362,154.686 29.999,154.405 30.324 C 153.954 30.847,151.063 34.715,150.288 35.833 C 148.669 38.170,148.493 38.669,149.292 38.664 C 149.679 38.661,149.957 38.383,151.083 36.876 C 152.300 35.248,153.023 34.352,155.294 31.667 C 156.339 30.430,162.375 24.392,163.417 23.541 C 163.875 23.166,164.555 22.610,164.929 22.305 C 165.302 22.000,165.818 21.600,166.075 21.417 C 166.332 21.233,166.739 20.925,166.979 20.731 C 170.631 17.785,177.240 14.784,181.780 14.009 C 188.735 12.822,195.744 15.607,200.004 21.250 C 203.542 25.937,205.784 32.694,206.087 39.583 C 206.140 40.775,206.217 41.966,206.258 42.230 C 206.334 42.709,206.332 42.710,205.625 42.603 C 194.486 40.903,178.446 40.363,173.541 41.522 C 172.214 41.835,168.761 42.856,168.583 42.986 C 168.492 43.054,168.042 43.246,167.583 43.414 C 166.524 43.801,162.078 46.032,160.705 46.866 C 160.131 47.215,159.627 47.500,159.585 47.500 C 159.543 47.500,158.288 48.223,156.796 49.108 C 155.304 49.992,153.746 50.903,153.333 51.133 C 152.921 51.362,152.270 51.764,151.887 52.025 C 151.503 52.286,151.151 52.500,151.104 52.500 C 151.056 52.500,149.965 53.134,148.678 53.910 C 147.392 54.685,146.019 55.500,145.628 55.720 C 145.237 55.941,143.792 56.779,142.417 57.582 C 139.971 59.010,139.620 59.212,137.917 60.165 C 137.106 60.619,136.992 60.635,133.750 60.744 C 127.950 60.940,122.086 61.475,118.167 62.166 C 111.274 63.382,105.692 64.839,101.208 66.593 C 100.635 66.817,99.660 67.197,99.042 67.438 C 96.834 68.298,90.143 71.784,89.667 72.322 C 89.621 72.374,89.096 72.749,88.500 73.156 C 87.055 74.141,86.324 74.732,85.149 75.861 L 84.167 76.805 84.167 79.254 L 84.167 81.703 84.708 81.624 C 85.006 81.580,86.000 81.276,86.917 80.948 C 91.487 79.314,98.255 78.019,102.304 78.003 L 103.191 78.000 101.779 80.708 C 101.003 82.198,99.639 84.846,98.748 86.594 L 97.127 89.771 94.272 90.147 C 92.702 90.354,90.967 90.593,90.417 90.678 C 87.443 91.137,85.030 91.522,84.622 91.603 L 84.160 91.695 84.205 94.972 L 84.250 98.250 98.748 98.250 C 115.308 98.250,113.745 98.430,112.833 96.624 C 104.729 80.576,123.485 64.076,138.577 73.976 C 146.283 79.030,148.834 88.795,144.579 96.952 C 144.330 97.430,144.170 97.936,144.224 98.077 C 144.370 98.457,200.506 98.470,200.886 98.090 C 201.254 97.723,204.848 90.396,205.918 87.833 C 206.435 86.596,206.957 85.358,207.078 85.083 C 210.258 77.849,213.460 65.391,214.488 56.250 C 215.214 49.802,215.141 40.586,214.327 35.833 C 213.368 30.239,212.287 26.648,210.363 22.671 C 209.750 21.403,208.237 19.013,207.249 17.750 C 204.088 13.711,200.219 11.165,195.167 9.799 C 193.963 9.473,187.163 9.206,185.833 9.433 M190.833 48.012 C 194.586 48.246,199.116 48.711,203.583 49.322 C 206.175 49.676,206.000 49.605,206.000 50.299 C 205.999 51.767,204.988 58.410,204.313 61.375 L 204.133 62.167 197.442 62.167 C 193.761 62.166,185.864 62.117,179.893 62.056 L 169.036 61.946 169.204 61.464 C 169.461 60.728,169.285 59.073,168.894 58.539 C 167.183 56.205,162.168 58.039,159.453 61.991 C 159.189 62.375,159.046 62.406,156.962 62.535 C 155.745 62.610,153.587 62.769,152.167 62.890 C 150.746 63.010,149.566 63.097,149.544 63.084 C 149.402 62.998,156.392 58.476,160.167 56.212 C 173.561 48.177,177.326 47.171,190.833 48.012 M244.417 58.029 C 246.250 58.581,248.050 59.111,248.417 59.206 C 249.453 59.476,249.430 59.588,248.259 59.972 C 246.308 60.613,245.065 60.606,241.750 59.934 C 241.108 59.804,240.105 59.606,239.521 59.494 L 238.459 59.290 238.561 58.437 C 238.618 57.967,238.664 57.308,238.665 56.971 L 238.667 56.359 239.875 56.693 C 240.540 56.876,242.583 57.478,244.417 58.029 M250.667 73.588 C 234.949 75.777,232.696 97.414,247.583 103.189 C 250.980 104.507,256.104 104.181,259.750 102.415 C 272.303 96.336,270.297 77.220,256.759 73.920 C 254.428 73.352,252.945 73.271,250.667 73.588 M124.837 74.091 C 109.317 78.100,109.997 100.601,125.727 103.585 C 139.628 106.222,149.388 90.956,141.071 79.583 C 137.564 74.787,130.887 72.528,124.837 74.091 M41.938 105.010 C 39.156 105.333,37.187 106.731,36.608 108.793 C 36.197 110.257,36.187 138.241,36.597 138.399 C 36.941 138.531,43.226 138.531,43.570 138.399 C 43.806 138.308,43.833 137.301,43.833 128.732 L 43.833 119.167 48.333 119.167 L 52.833 119.167 52.833 116.000 L 52.833 112.833 48.315 112.833 L 43.796 112.833 43.907 112.208 C 44.200 110.558,44.090 110.595,48.875 110.528 L 52.833 110.474 52.833 107.653 L 52.833 104.833 47.958 104.855 C 45.277 104.867,42.568 104.937,41.938 105.010 M273.667 121.566 C 273.667 136.669,273.692 138.308,273.930 138.399 C 274.274 138.531,280.559 138.531,280.903 138.399 C 281.139 138.308,281.167 137.315,281.167 128.888 L 281.167 119.479 288.875 119.531 L 296.583 119.583 297.417 120.000 C 298.032 120.308,298.359 120.613,298.667 121.167 L 299.083 121.917 299.131 130.107 L 299.179 138.298 299.548 138.397 C 300.114 138.548,306.388 138.513,306.634 138.357 C 307.009 138.119,306.825 120.244,306.433 118.917 C 305.495 115.738,303.793 114.195,300.243 113.306 C 298.809 112.947,298.402 112.930,289.958 112.871 L 281.167 112.810 281.167 108.822 L 281.167 104.833 277.417 104.833 L 273.667 104.833 273.667 121.566 M185.111 105.944 C 185.050 106.006,185.000 107.581,185.000 109.444 L 185.000 112.833 183.333 112.833 L 181.667 112.833 181.667 116.000 L 181.667 119.167 183.333 119.167 L 185.000 119.167 185.000 128.661 C 185.000 137.877,185.009 138.160,185.322 138.327 C 185.667 138.512,192.110 138.575,192.570 138.399 C 192.806 138.308,192.833 137.301,192.833 128.732 L 192.833 119.167 196.750 119.167 L 200.667 119.167 200.667 116.000 L 200.667 112.833 196.750 112.833 L 192.833 112.833 192.833 109.333 L 192.833 105.833 189.028 105.833 C 186.935 105.833,185.172 105.883,185.111 105.944 M312.667 109.333 L 312.667 112.833 311.000 112.833 L 309.333 112.833 309.333 116.000 L 309.333 119.167 311.000 119.167 L 312.667 119.167 312.667 128.732 C 312.667 137.301,312.694 138.308,312.930 138.399 C 313.274 138.531,319.893 138.531,320.236 138.399 C 320.473 138.308,320.500 137.301,320.500 128.732 L 320.500 119.167 324.420 119.167 L 328.341 119.167 328.295 116.042 L 328.250 112.917 324.375 112.872 L 320.500 112.827 320.500 109.330 L 320.500 105.833 316.583 105.833 L 312.667 105.833 312.667 109.333 M0.000 122.500 L 0.000 138.500 3.403 138.500 C 5.275 138.500,6.925 138.454,7.070 138.399 C 7.304 138.309,7.333 137.513,7.333 131.135 C 7.333 126.844,7.395 123.994,7.487 124.028 C 7.571 124.058,8.269 124.646,9.038 125.333 C 9.807 126.021,10.703 126.808,11.029 127.083 C 11.727 127.672,14.353 129.971,16.741 132.083 C 17.674 132.908,18.957 134.033,19.592 134.583 C 20.227 135.133,21.122 135.928,21.581 136.348 C 22.041 136.769,22.817 137.425,23.307 137.806 L 24.197 138.500 28.918 138.500 C 34.024 138.500,34.167 138.484,34.167 137.919 C 34.167 137.560,33.990 137.382,31.417 135.149 C 31.142 134.910,30.501 134.347,29.993 133.899 C 29.485 133.450,28.552 132.633,27.920 132.083 C 27.288 131.533,26.386 130.746,25.914 130.333 C 25.443 129.921,24.763 129.330,24.404 129.021 C 24.044 128.712,22.850 127.662,21.751 126.688 C 20.652 125.714,19.532 124.729,19.263 124.500 C 16.204 121.892,16.284 122.033,17.346 121.141 C 17.820 120.743,18.560 120.117,18.991 119.750 C 19.421 119.383,20.175 118.746,20.667 118.333 C 21.158 117.921,21.907 117.283,22.330 116.917 C 22.754 116.550,23.501 115.912,23.991 115.500 C 24.481 115.087,25.231 114.450,25.657 114.083 C 26.084 113.717,26.834 113.079,27.324 112.667 C 27.814 112.254,28.564 111.617,28.991 111.250 C 29.418 110.883,30.645 109.841,31.717 108.933 C 33.184 107.692,33.667 107.186,33.667 106.892 L 33.667 106.500 28.566 106.500 L 23.465 106.500 21.842 107.958 C 20.949 108.760,19.486 110.054,18.591 110.833 C 17.696 111.612,16.797 112.400,16.594 112.583 C 16.390 112.767,15.524 113.517,14.668 114.250 C 13.813 114.983,12.990 115.696,12.840 115.833 C 12.690 115.971,11.634 116.908,10.492 117.915 C 9.351 118.923,8.192 119.953,7.917 120.205 L 7.417 120.662 7.373 113.581 L 7.330 106.500 3.665 106.500 L 0.000 106.500 0.000 122.500 M113.250 106.770 C 109.101 107.515,107.125 109.270,106.217 113.014 C 105.766 114.871,105.763 130.148,106.214 131.906 C 107.656 137.538,110.285 138.500,124.239 138.500 C 141.356 138.500,142.821 137.382,142.830 124.305 C 142.832 121.769,142.788 119.575,142.732 119.430 C 142.644 119.201,142.142 119.167,138.831 119.167 L 135.030 119.167 134.971 123.958 C 134.871 131.973,135.419 131.583,124.250 131.583 C 113.054 131.583,113.670 132.034,113.542 123.750 C 113.424 116.103,113.683 114.730,115.412 113.842 L 116.240 113.417 121.453 113.362 L 126.667 113.308 126.667 109.904 L 126.667 106.500 120.625 106.515 C 116.156 106.526,114.236 106.592,113.250 106.770 M55.611 112.944 C 55.550 113.006,55.500 114.318,55.500 115.861 L 55.500 118.667 64.090 118.667 L 72.681 118.667 71.194 119.958 C 69.976 121.015,66.503 123.958,62.093 127.667 C 61.712 127.987,60.959 128.625,60.421 129.083 C 59.882 129.542,59.130 130.179,58.749 130.500 C 58.368 130.821,57.662 131.421,57.179 131.833 C 56.696 132.246,56.197 132.642,56.070 132.715 C 54.572 133.569,54.650 137.176,56.186 138.083 C 56.740 138.411,82.880 138.725,84.125 138.419 C 84.497 138.328,84.500 138.300,84.500 135.330 L 84.500 132.333 75.625 132.328 L 66.750 132.324 67.262 131.870 C 67.543 131.621,67.993 131.229,68.262 131.000 C 69.667 129.803,72.427 127.404,72.500 127.317 C 72.546 127.262,73.408 126.511,74.417 125.649 C 76.258 124.073,76.669 123.717,78.250 122.333 C 78.721 121.921,79.589 121.176,80.178 120.678 C 80.768 120.180,81.794 119.229,82.458 118.565 L 83.667 117.358 83.667 116.006 C 83.667 114.362,83.310 113.518,82.441 113.106 C 81.845 112.823,55.889 112.667,55.611 112.944 M146.667 121.478 C 146.667 131.949,146.749 132.642,148.270 134.934 C 150.119 137.723,153.330 138.500,163.011 138.500 C 173.270 138.500,176.482 137.545,178.201 133.986 C 179.212 131.891,179.250 131.446,179.250 121.750 L 179.250 112.917 175.500 112.917 L 171.750 112.917 171.665 121.083 C 171.546 132.532,172.247 131.728,162.459 131.637 C 155.708 131.574,155.723 131.577,154.889 129.879 L 154.417 128.917 154.333 120.917 L 154.250 112.917 150.458 112.872 L 146.667 112.827 146.667 121.478 M216.167 115.639 L 216.167 118.475 220.542 118.529 C 226.167 118.599,226.725 118.841,227.089 121.366 L 227.202 122.149 216.476 122.210 C 204.653 122.278,204.797 122.266,202.883 123.355 C 200.807 124.537,200.417 125.641,200.417 130.333 C 200.417 136.206,201.737 137.725,207.368 138.327 C 209.460 138.551,223.557 138.552,225.929 138.329 C 231.360 137.817,233.513 136.366,234.451 132.583 C 234.901 130.771,234.890 120.197,234.437 118.750 C 232.981 114.098,230.560 112.987,221.625 112.872 L 216.167 112.803 216.167 115.639 M247.750 112.949 C 240.997 113.568,239.065 116.142,238.889 124.750 C 238.679 135.069,240.458 137.565,248.571 138.329 C 250.493 138.510,268.786 138.572,269.236 138.399 C 269.464 138.311,269.500 137.859,269.500 135.066 L 269.500 131.833 260.625 131.830 C 246.309 131.826,246.496 131.907,246.503 125.673 C 246.507 121.882,246.880 120.783,248.427 120.000 L 249.250 119.583 259.378 119.533 L 269.507 119.483 269.462 116.200 L 269.417 112.917 258.917 112.902 C 253.142 112.895,248.117 112.916,247.750 112.949 M338.250 112.993 C 331.919 113.778,330.665 115.709,330.545 124.862 C 330.386 136.894,332.157 138.505,345.535 138.497 C 347.945 138.496,350.012 138.434,350.129 138.360 C 350.291 138.257,350.331 137.533,350.296 135.321 L 350.250 132.417 345.083 132.333 C 338.583 132.228,338.334 132.132,338.195 129.661 L 338.129 128.500 350.815 128.500 L 363.500 128.500 363.499 123.375 C 363.498 115.724,362.911 114.514,358.583 113.236 C 357.503 112.917,340.499 112.714,338.250 112.993 M376.250 112.946 C 370.745 113.512,368.229 115.800,367.672 120.750 C 367.370 123.426,367.448 138.278,367.764 138.399 C 368.147 138.546,374.714 138.518,374.949 138.368 C 375.098 138.273,375.162 136.203,375.199 130.162 C 375.270 118.824,374.633 119.583,384.083 119.584 C 393.195 119.584,392.664 118.907,392.666 130.524 C 392.667 137.458,392.695 138.309,392.930 138.399 C 393.075 138.454,394.725 138.500,396.597 138.500 L 400.000 138.500 400.000 128.947 C 400.000 120.650,399.965 119.275,399.732 118.489 C 398.903 115.693,396.887 114.016,393.417 113.236 C 392.137 112.948,378.474 112.718,376.250 112.946 M355.515 119.477 C 355.783 119.808,355.833 120.146,355.833 121.602 L 355.833 123.333 347.000 123.333 L 338.167 123.333 338.168 122.375 C 338.171 119.044,338.251 119.016,347.723 119.053 L 355.196 119.083 355.515 119.477 M227.122 128.902 C 226.890 132.788,227.021 132.736,217.333 132.802 C 207.745 132.868,207.833 132.893,207.834 130.048 C 207.834 127.235,207.437 127.339,218.233 127.336 L 227.216 127.333 227.122 128.902 M119.554 148.106 C 118.466 148.492,117.833 149.333,113.828 155.719 C 111.768 159.002,109.953 161.890,109.794 162.136 C 109.634 162.382,109.451 162.693,109.387 162.827 C 109.323 162.960,108.922 163.598,108.496 164.243 C 108.070 164.889,107.025 166.542,106.174 167.917 C 105.324 169.292,104.612 170.435,104.592 170.458 C 104.572 170.481,104.153 170.143,103.662 169.708 C 102.785 168.933,102.215 168.433,99.906 166.417 C 99.276 165.867,98.376 165.079,97.906 164.667 C 97.436 164.254,96.571 163.497,95.984 162.983 C 95.397 162.470,94.297 161.498,93.539 160.823 L 92.162 159.596 92.864 159.007 C 93.250 158.682,93.914 158.117,94.339 157.750 C 94.764 157.383,95.959 156.371,96.995 155.500 C 98.031 154.629,99.533 153.354,100.334 152.667 C 101.135 151.979,102.400 150.902,103.145 150.272 C 104.142 149.431,104.500 149.023,104.500 148.731 L 104.500 148.333 100.763 148.333 L 97.026 148.333 96.471 148.783 C 96.166 149.031,95.540 149.575,95.080 149.992 C 94.619 150.409,93.760 151.162,93.171 151.667 C 92.581 152.171,91.679 152.958,91.167 153.417 C 90.654 153.875,89.716 154.700,89.082 155.250 C 88.448 155.800,87.439 156.691,86.840 157.231 L 85.750 158.212 85.706 153.269 L 85.662 148.326 82.706 148.371 L 79.750 148.417 79.707 159.792 L 79.664 171.167 82.663 171.167 L 85.662 171.167 85.706 166.315 L 85.750 161.463 86.766 162.356 C 87.325 162.848,88.299 163.700,88.931 164.250 C 89.562 164.800,90.496 165.625,91.005 166.083 C 91.515 166.542,92.412 167.329,92.998 167.833 C 93.584 168.337,94.556 169.192,95.157 169.731 C 95.758 170.271,96.407 170.816,96.599 170.942 C 96.883 171.128,98.258 171.162,104.072 171.127 L 111.196 171.083 112.633 168.792 L 114.069 166.500 121.493 166.500 L 128.917 166.500 130.349 168.792 L 131.782 171.083 135.224 171.128 C 137.765 171.162,138.667 171.122,138.667 170.979 C 138.667 170.872,136.441 167.214,133.721 162.850 C 124.407 147.912,124.788 148.455,123.346 148.024 C 122.474 147.762,120.397 147.808,119.554 148.106 M183.333 148.052 C 182.301 148.379,181.322 149.650,178.000 154.978 C 176.213 157.844,174.637 160.367,174.500 160.586 C 170.148 167.497,168.167 170.732,168.167 170.926 C 168.167 171.128,168.706 171.166,171.542 171.161 L 174.917 171.155 176.333 168.831 L 177.750 166.508 185.191 166.504 C 190.980 166.501,192.654 166.546,192.734 166.708 C 192.791 166.823,192.967 167.117,193.127 167.362 C 193.286 167.607,193.897 168.563,194.484 169.487 L 195.551 171.167 198.954 171.167 C 202.149 171.167,202.353 171.148,202.303 170.864 C 202.263 170.635,197.268 162.541,192.667 155.251 C 192.455 154.915,190.783 152.222,190.248 151.356 C 188.205 148.046,186.271 147.121,183.333 148.052 M243.601 148.079 C 242.943 148.314,241.645 149.451,241.282 150.112 C 241.071 150.495,240.086 152.108,239.667 152.755 C 239.529 152.968,237.767 155.768,235.750 158.977 C 233.733 162.187,231.727 165.361,231.291 166.032 C 230.855 166.702,230.446 167.362,230.382 167.500 C 230.318 167.637,230.066 168.050,229.822 168.417 C 229.578 168.783,229.179 169.403,228.935 169.795 L 228.492 170.506 227.871 169.944 C 227.529 169.635,226.829 169.014,226.314 168.566 C 225.799 168.117,224.865 167.300,224.239 166.750 C 222.368 165.106,221.453 164.303,220.246 163.250 C 219.617 162.700,218.722 161.912,218.258 161.500 C 217.794 161.087,217.117 160.507,216.754 160.209 C 216.178 159.738,216.125 159.639,216.338 159.437 C 216.624 159.167,219.049 157.087,220.345 156.000 C 220.837 155.587,221.586 154.950,222.009 154.583 C 222.433 154.217,223.183 153.579,223.676 153.167 C 224.169 152.754,224.921 152.117,225.346 151.750 C 227.239 150.117,227.889 149.574,228.104 149.450 C 228.230 149.377,228.333 149.095,228.333 148.825 L 228.333 148.333 224.625 148.335 L 220.917 148.336 219.667 149.434 C 218.979 150.038,217.932 150.956,217.339 151.474 C 216.746 151.993,215.878 152.754,215.410 153.167 C 214.943 153.579,214.115 154.302,213.572 154.772 C 213.028 155.243,211.946 156.199,211.167 156.896 C 210.387 157.594,209.694 158.165,209.625 158.166 C 209.556 158.166,209.500 155.952,209.500 153.246 L 209.500 148.325 206.625 148.371 L 203.750 148.417 203.707 159.792 L 203.664 171.167 206.580 171.167 L 209.495 171.167 209.539 166.257 L 209.583 161.347 210.927 162.548 C 211.667 163.209,212.751 164.162,213.336 164.667 C 213.922 165.171,214.822 165.958,215.336 166.417 C 215.850 166.875,216.751 167.662,217.338 168.167 C 217.925 168.671,218.927 169.552,219.566 170.125 L 220.728 171.167 227.932 171.167 L 235.136 171.167 236.540 168.875 L 237.944 166.583 245.425 166.583 L 252.905 166.583 254.328 168.872 L 255.750 171.161 259.208 171.164 C 263.135 171.167,262.956 171.263,261.944 169.699 C 261.547 169.086,258.535 164.278,255.250 159.015 C 249.180 149.289,248.526 148.377,247.366 148.029 C 246.487 147.766,244.403 147.794,243.601 148.079 M140.000 159.750 L 140.000 171.167 142.913 171.167 L 145.827 171.167 145.872 167.573 L 145.917 163.980 151.667 167.570 L 157.417 171.161 162.458 171.164 C 165.231 171.165,167.500 171.103,167.500 171.026 C 167.500 170.775,166.958 170.410,164.500 169.006 C 163.171 168.247,161.821 167.475,161.500 167.290 C 161.179 167.104,160.579 166.764,160.167 166.533 C 159.754 166.303,159.154 165.950,158.833 165.750 C 158.512 165.550,157.800 165.140,157.250 164.839 C 155.748 164.018,155.762 164.000,157.871 164.000 C 165.235 164.000,167.075 162.451,167.077 156.250 C 167.078 152.529,166.889 151.656,165.820 150.441 C 164.085 148.470,163.125 148.340,150.292 148.336 L 140.000 148.333 140.000 159.750 M262.611 148.444 C 262.365 148.690,262.489 164.687,262.749 166.162 C 263.170 168.553,263.939 169.727,265.667 170.613 L 266.583 171.083 276.125 171.130 L 285.667 171.177 285.667 168.839 L 285.667 166.500 279.292 166.497 C 272.096 166.494,270.251 166.368,269.496 165.830 C 268.398 165.048,268.422 165.252,268.365 156.375 L 268.313 148.333 265.518 148.333 C 263.980 148.333,262.672 148.383,262.611 148.444 M292.750 148.523 C 289.971 149.041,288.550 150.069,287.715 152.167 C 287.445 152.846,287.417 153.579,287.417 159.917 C 287.417 167.995,287.431 168.081,288.990 169.641 C 290.563 171.214,290.164 171.167,301.931 171.167 L 312.167 171.167 312.167 168.833 L 312.167 166.500 304.125 166.499 C 293.027 166.498,293.000 166.490,293.000 163.176 L 293.000 162.333 302.588 162.333 L 312.176 162.333 312.130 159.958 L 312.083 157.583 302.518 157.540 L 292.952 157.497 293.044 156.290 C 293.242 153.672,293.603 153.477,298.500 153.346 L 302.083 153.250 302.083 150.833 L 302.083 148.417 297.833 148.392 C 295.496 148.379,293.208 148.438,292.750 148.523 M160.305 153.719 C 161.033 154.117,161.333 154.879,161.333 156.333 C 161.333 159.273,161.435 159.237,152.792 159.302 L 145.833 159.353 145.833 156.330 L 145.833 153.308 152.792 153.362 C 159.139 153.412,159.799 153.443,160.305 153.719 M122.406 155.875 C 122.856 156.631,123.843 158.244,124.599 159.458 L 125.974 161.667 121.481 161.667 C 117.246 161.667,116.998 161.650,117.166 161.375 C 117.565 160.720,118.164 159.743,119.738 157.187 C 120.648 155.709,121.437 154.500,121.490 154.500 C 121.543 154.500,121.955 155.119,122.406 155.875 M185.808 155.344 C 186.097 155.809,186.333 156.234,186.333 156.290 C 186.333 156.345,186.438 156.509,186.566 156.654 C 186.695 156.798,186.948 157.179,187.130 157.500 C 187.311 157.821,187.956 158.890,188.563 159.875 L 189.666 161.667 185.232 161.667 C 181.429 161.667,180.811 161.632,180.890 161.425 C 180.994 161.155,183.529 157.000,184.018 156.298 C 184.192 156.050,184.333 155.795,184.333 155.731 C 184.333 155.610,185.146 154.500,185.234 154.500 C 185.261 154.500,185.520 154.880,185.808 155.344 M246.796 156.595 C 247.426 157.609,247.993 158.546,248.057 158.678 C 248.121 158.809,248.546 159.517,249.002 160.250 L 249.831 161.583 247.676 161.630 C 246.490 161.655,244.502 161.655,243.257 161.630 L 240.994 161.583 241.713 160.417 C 244.788 155.423,245.396 154.496,245.516 154.616 C 245.591 154.691,246.167 155.581,246.796 156.595 " stroke="none" fill="#040404" fill-rule="evenodd"></path><path id="path1" d="" stroke="none" fill="#080404" fill-rule="evenodd"></path><path id="path2" d="" stroke="none" fill="#080404" fill-rule="evenodd"></path><path id="path3" d="" stroke="none" fill="#080404" fill-rule="evenodd"></path><path id="path4" d="" stroke="none" fill="#080404" fill-rule="evenodd"></path></g></svg>