<svg id="svg" version="1.1" xmlns="http://www.w3.org/2000/svg" xmlns:xlink="http://www.w3.org/1999/xlink" width="400" height="171.18473895582332" viewBox="0, 0, 400,171.18473895582332"><g id="svgg"><path id="path0" d="M183.250 0.348 C 182.425 0.525,181.338 0.790,180.833 0.937 C 180.329 1.084,179.842 1.219,179.750 1.236 C 179.212 1.339,177.058 2.064,176.925 2.187 C 176.838 2.267,176.667 2.333,176.545 2.333 C 176.423 2.333,176.061 2.443,175.742 2.576 C 175.422 2.710,175.123 2.819,175.076 2.819 C 175.030 2.819,174.787 2.931,174.538 3.066 C 174.288 3.202,172.996 3.848,171.667 4.502 C 168.891 5.866,168.803 5.914,166.625 7.245 C 165.731 7.791,165.000 8.297,165.000 8.369 C 165.000 8.441,164.906 8.500,164.792 8.500 C 164.677 8.500,164.358 8.686,164.083 8.914 C 163.808 9.141,163.506 9.391,163.412 9.468 C 163.318 9.546,163.018 9.751,162.746 9.924 C 162.164 10.292,160.823 11.334,160.583 11.604 C 160.492 11.707,160.293 11.857,160.141 11.938 C 158.487 12.813,150.822 20.555,147.993 24.208 C 147.549 24.781,147.069 25.381,146.926 25.542 C 146.784 25.702,146.667 25.871,146.667 25.917 C 146.667 25.963,146.549 26.131,146.405 26.292 C 145.807 26.957,145.287 27.635,144.712 28.500 C 144.377 29.004,144.042 29.442,143.968 29.472 C 143.894 29.503,143.833 29.634,143.833 29.764 C 143.833 29.894,143.777 30.001,143.708 30.003 C 143.640 30.005,143.358 30.387,143.083 30.853 C 142.808 31.318,142.415 31.909,142.208 32.165 C 142.002 32.422,141.833 32.714,141.833 32.816 C 141.833 32.917,141.758 33.000,141.667 33.000 C 141.575 33.000,141.500 33.112,141.500 33.250 C 141.500 33.387,141.440 33.500,141.366 33.500 C 141.293 33.500,140.974 33.987,140.658 34.582 C 140.342 35.177,140.027 35.664,139.958 35.665 C 139.890 35.666,139.833 35.774,139.833 35.905 C 139.833 36.036,139.737 36.242,139.618 36.363 C 139.370 36.617,137.992 38.987,137.947 39.237 C 137.930 39.328,137.857 39.482,137.784 39.577 C 137.356 40.134,134.082 46.704,133.254 48.667 C 133.003 49.262,132.662 50.012,132.497 50.333 C 132.331 50.654,131.919 51.592,131.580 52.417 C 131.241 53.242,130.822 54.231,130.649 54.616 C 130.278 55.437,130.246 55.931,130.556 56.050 C 130.731 56.117,134.525 54.357,135.667 53.679 C 135.804 53.597,136.469 53.215,137.144 52.830 L 138.372 52.129 139.210 50.356 C 140.579 47.462,142.406 43.756,142.508 43.667 C 142.603 43.584,143.627 41.772,144.205 40.667 C 144.660 39.795,145.164 38.972,145.518 38.523 C 145.691 38.302,145.833 38.026,145.833 37.908 C 145.833 37.791,145.897 37.669,145.975 37.639 C 146.053 37.608,146.785 36.582,147.600 35.358 C 148.416 34.134,149.196 32.965,149.333 32.759 C 149.687 32.231,151.542 29.767,151.662 29.667 C 151.716 29.621,152.059 29.209,152.422 28.752 C 152.786 28.294,153.158 27.826,153.250 27.711 C 153.342 27.596,153.642 27.250,153.917 26.942 C 154.192 26.633,154.754 25.993,155.167 25.518 C 155.912 24.659,160.281 20.281,161.503 19.167 C 162.209 18.524,162.599 18.203,164.083 17.045 C 164.633 16.615,165.121 16.223,165.167 16.173 C 165.212 16.123,165.556 15.875,165.931 15.621 C 166.305 15.367,166.771 15.011,166.965 14.830 C 167.160 14.648,167.398 14.500,167.493 14.500 C 167.589 14.500,167.667 14.425,167.667 14.333 C 167.667 14.242,167.765 14.167,167.885 14.167 C 168.005 14.167,168.265 14.017,168.462 13.833 C 168.658 13.650,168.864 13.500,168.918 13.500 C 168.972 13.500,169.444 13.218,169.966 12.874 C 170.489 12.530,171.404 11.990,172.000 11.673 C 172.596 11.357,173.383 10.928,173.750 10.718 C 174.117 10.509,174.529 10.296,174.667 10.244 C 174.804 10.193,175.292 9.972,175.750 9.755 C 176.208 9.537,177.071 9.191,177.667 8.986 C 178.262 8.780,178.825 8.560,178.917 8.497 C 179.008 8.433,179.233 8.339,179.417 8.287 C 188.131 5.814,194.094 5.960,199.881 8.785 C 200.686 9.178,201.383 9.500,201.430 9.500 C 201.478 9.500,201.968 9.800,202.520 10.167 C 203.072 10.533,203.593 10.833,203.678 10.833 C 203.764 10.833,203.834 10.890,203.834 10.958 C 203.835 11.027,204.112 11.271,204.449 11.500 C 205.651 12.316,207.061 13.656,208.447 15.300 C 208.965 15.914,209.433 16.454,209.486 16.500 C 209.540 16.546,209.882 17.033,210.248 17.583 C 210.613 18.133,210.951 18.621,210.998 18.667 C 211.045 18.712,211.263 19.087,211.484 19.500 C 211.704 19.912,211.945 20.330,212.020 20.427 C 212.219 20.688,213.327 22.896,213.330 23.041 C 213.332 23.110,213.552 23.635,213.819 24.208 C 214.892 26.510,216.064 30.532,216.671 34.000 C 216.760 34.504,216.871 35.104,216.919 35.333 C 217.584 38.521,217.891 49.834,217.429 54.167 C 217.320 55.186,217.037 57.557,216.901 58.583 C 216.767 59.589,215.651 65.890,215.588 65.993 C 215.558 66.043,215.488 66.366,215.434 66.711 C 215.347 67.262,214.977 68.839,214.507 70.667 C 214.424 70.987,214.206 71.775,214.021 72.417 C 213.482 74.289,213.134 75.526,213.091 75.729 C 213.069 75.832,213.009 76.029,212.958 76.167 C 212.908 76.304,212.589 77.279,212.249 78.333 C 211.565 80.459,211.353 81.090,211.155 81.583 C 210.659 82.821,209.833 85.014,209.833 85.093 C 209.833 85.145,209.646 85.598,209.417 86.099 C 209.188 86.600,209.000 87.105,209.000 87.222 C 209.000 87.338,208.933 87.505,208.851 87.592 C 208.768 87.679,208.535 88.162,208.332 88.667 C 207.909 89.718,207.795 89.977,206.745 92.250 C 205.574 94.787,205.286 95.381,205.013 95.817 C 204.875 96.037,204.746 96.325,204.727 96.456 C 204.708 96.588,204.583 96.821,204.449 96.973 C 203.313 98.268,203.656 98.337,211.018 98.290 L 217.396 98.250 217.936 97.252 C 218.233 96.703,218.445 96.222,218.407 96.185 C 218.369 96.147,218.476 95.883,218.646 95.599 C 218.816 95.316,219.237 94.371,219.582 93.500 C 219.927 92.629,220.317 91.670,220.449 91.369 C 220.580 91.067,220.715 90.681,220.748 90.510 C 220.781 90.339,220.914 89.986,221.045 89.725 C 221.175 89.464,221.378 88.892,221.497 88.454 C 221.615 88.016,221.777 87.618,221.856 87.569 C 221.935 87.520,222.000 87.312,222.000 87.107 C 222.000 86.901,222.090 86.643,222.200 86.533 C 222.310 86.423,222.338 86.333,222.263 86.333 C 222.188 86.333,222.198 86.240,222.287 86.125 C 222.375 86.010,222.606 85.392,222.800 84.750 C 222.994 84.108,223.374 82.871,223.644 82.000 C 224.094 80.549,225.258 76.038,225.437 75.049 C 225.479 74.820,225.620 74.170,225.751 73.604 C 225.883 73.038,226.037 72.277,226.095 71.912 C 226.152 71.548,226.229 71.202,226.264 71.144 C 226.300 71.086,226.401 70.561,226.489 69.978 C 226.577 69.394,226.758 68.317,226.891 67.583 C 227.025 66.850,227.182 65.762,227.241 65.167 C 227.299 64.571,227.380 63.896,227.420 63.667 C 227.749 61.763,228.025 57.511,228.096 53.250 C 228.161 49.282,228.101 47.593,227.736 43.167 C 227.655 42.195,227.269 39.247,227.080 38.167 C 226.851 36.861,226.300 34.101,226.081 33.167 C 225.795 31.946,225.797 31.953,225.411 30.583 C 225.256 30.033,225.030 29.227,224.907 28.791 C 224.785 28.354,224.639 27.923,224.583 27.833 C 224.527 27.742,224.451 27.513,224.415 27.325 C 224.307 26.764,223.164 23.781,222.901 23.375 C 222.768 23.169,222.700 23.000,222.751 23.000 C 222.802 23.000,222.624 22.569,222.356 22.042 C 222.089 21.515,221.513 20.371,221.077 19.500 C 220.216 17.780,219.210 16.116,218.977 16.027 C 218.897 15.997,218.864 15.918,218.905 15.852 C 218.945 15.787,218.665 15.311,218.281 14.795 C 217.897 14.280,217.471 13.691,217.333 13.488 C 217.196 13.285,216.915 12.931,216.708 12.702 C 216.502 12.472,216.333 12.230,216.333 12.163 C 216.333 11.494,209.755 5.639,207.849 4.611 C 207.536 4.442,207.179 4.203,207.056 4.079 C 206.742 3.766,203.261 2.085,202.250 1.758 C 201.792 1.610,201.304 1.442,201.167 1.384 C 201.029 1.326,200.879 1.266,200.833 1.250 C 200.787 1.234,200.637 1.180,200.500 1.130 C 200.034 0.961,198.922 0.655,197.750 0.375 C 195.867 -0.075,185.320 -0.095,183.250 0.348 M185.070 109.583 C 185.070 111.417,185.094 112.189,185.124 111.301 C 185.154 110.412,185.154 108.912,185.124 107.967 C 185.095 107.023,185.070 107.750,185.070 109.583 M185.078 128.500 C 185.078 133.679,185.099 135.798,185.125 133.208 C 185.151 130.619,185.151 126.381,185.125 123.792 C 185.099 121.202,185.078 123.321,185.078 128.500 " stroke="none" fill="#54ace4" fill-rule="evenodd"></path><path id="path1" d="M184.917 9.662 C 183.103 9.990,180.003 10.852,178.926 11.327 C 178.554 11.492,177.838 11.795,177.333 12.001 C 175.437 12.775,171.483 14.889,171.361 15.195 C 171.331 15.271,171.231 15.333,171.140 15.333 C 170.743 15.333,166.271 18.572,164.333 20.263 C 157.181 26.506,147.360 38.500,149.401 38.500 C 149.615 38.500,153.167 34.150,153.167 33.888 C 153.167 33.832,153.271 33.703,153.399 33.602 C 153.527 33.500,154.249 32.704,155.003 31.833 C 169.601 14.984,184.801 9.442,195.718 16.989 C 201.099 20.709,205.130 28.545,205.927 36.833 C 205.984 37.429,206.060 38.104,206.096 38.333 C 206.132 38.563,206.212 39.643,206.274 40.734 L 206.386 42.719 205.485 42.614 C 204.989 42.557,203.646 42.392,202.500 42.249 C 199.793 41.910,196.172 41.551,193.250 41.331 C 191.967 41.235,189.950 41.083,188.768 40.995 C 181.247 40.430,173.510 41.125,169.673 42.710 C 169.440 42.806,169.175 42.902,169.083 42.924 C 167.854 43.212,162.504 45.909,158.417 48.299 C 157.408 48.889,156.323 49.521,156.004 49.704 C 155.686 49.887,154.523 50.577,153.421 51.239 C 152.319 51.900,150.667 52.879,149.750 53.414 C 148.833 53.949,148.058 54.449,148.028 54.526 C 147.997 54.604,147.905 54.667,147.822 54.667 C 147.740 54.667,146.565 55.316,145.211 56.111 C 143.858 56.905,141.543 58.242,140.069 59.082 L 137.387 60.610 132.819 60.804 C 112.901 61.652,96.047 66.808,86.209 75.066 C 84.088 76.846,84.167 76.686,84.167 79.209 C 84.167 81.859,84.030 81.785,87.069 80.781 C 92.121 79.111,96.487 78.257,101.184 78.022 L 103.285 77.917 101.966 80.583 C 101.240 82.050,100.515 83.475,100.354 83.750 C 100.193 84.025,99.438 85.487,98.676 87.000 C 97.914 88.513,97.280 89.763,97.268 89.780 C 97.249 89.806,94.319 90.229,92.833 90.420 C 90.731 90.690,85.827 91.437,84.917 91.626 L 84.250 91.765 84.204 94.840 C 84.164 97.585,84.190 97.938,84.445 98.124 C 84.746 98.344,112.338 98.449,112.903 98.232 C 113.321 98.072,112.659 95.826,112.000 95.167 C 111.954 95.121,111.887 94.971,111.851 94.833 C 111.815 94.696,111.595 93.908,111.361 93.083 C 110.744 90.909,110.724 86.620,111.321 84.500 C 114.501 73.200,126.363 67.789,136.833 72.862 C 137.796 73.328,138.621 73.760,138.667 73.821 C 138.712 73.883,139.012 74.113,139.333 74.333 C 146.245 79.075,148.630 88.423,144.955 96.369 C 144.397 97.577,144.319 97.865,144.495 98.078 C 144.707 98.333,199.484 98.490,200.422 98.238 C 200.731 98.155,201.580 96.845,201.504 96.570 C 201.486 96.506,201.543 96.408,201.631 96.352 C 202.090 96.059,205.720 88.259,207.457 83.833 C 208.144 82.083,209.806 77.438,209.814 77.244 C 209.816 77.199,210.081 76.319,210.402 75.289 C 211.981 70.231,213.473 63.582,214.077 58.917 C 214.124 58.550,214.240 57.696,214.334 57.020 C 218.522 26.871,205.522 5.943,184.917 9.662 M188.833 47.832 C 193.340 48.073,197.352 48.471,204.500 49.384 C 205.371 49.495,206.082 49.660,206.081 49.751 C 206.049 51.731,205.113 58.289,204.453 61.167 L 204.242 62.083 186.554 62.126 L 168.866 62.168 169.099 61.391 C 169.422 60.321,169.394 59.857,168.958 59.001 C 167.625 56.384,163.869 57.307,160.371 61.112 L 159.159 62.431 156.038 62.640 C 154.321 62.755,152.187 62.928,151.295 63.023 C 150.403 63.119,149.578 63.165,149.462 63.126 C 149.062 62.993,158.914 56.680,163.500 54.130 C 167.956 51.653,168.545 51.333,168.659 51.333 C 168.722 51.333,169.232 51.112,169.791 50.841 C 175.779 47.940,179.595 47.337,188.833 47.832 M125.833 73.913 C 115.190 76.131,110.128 88.076,116.050 97.000 C 123.566 108.327,141.250 104.810,143.773 91.486 C 145.736 81.121,136.177 71.758,125.833 73.913 M42.417 104.998 C 39.226 105.386,37.359 106.680,36.661 108.986 C 36.339 110.050,36.330 110.513,36.373 124.167 L 36.417 138.250 40.083 138.250 L 43.750 138.250 43.793 128.711 L 43.836 119.172 48.293 119.128 L 52.750 119.083 52.750 116.000 L 52.750 112.917 48.271 112.872 L 43.791 112.828 43.872 111.985 C 44.008 110.570,43.928 110.595,48.631 110.500 L 52.750 110.417 52.750 107.667 L 52.750 104.917 48.083 104.897 C 45.517 104.885,42.967 104.931,42.417 104.998 M273.743 105.042 C 273.700 105.156,273.683 112.675,273.707 121.750 L 273.750 138.250 277.417 138.250 L 281.083 138.250 281.126 128.865 L 281.169 119.479 289.043 119.536 C 300.213 119.616,299.169 118.527,299.316 130.250 L 299.417 138.250 303.083 138.250 L 306.750 138.250 306.793 129.954 C 306.817 125.301,306.768 121.275,306.680 120.787 C 306.381 119.120,306.308 118.802,306.066 118.117 C 305.325 116.017,303.804 114.574,301.433 113.722 C 299.511 113.031,298.522 112.961,289.708 112.884 L 281.167 112.809 281.167 109.085 C 281.167 107.037,281.121 105.242,281.066 105.097 C 280.931 104.746,273.876 104.693,273.743 105.042 M185.281 105.941 C 185.218 106.004,185.167 107.578,185.167 109.439 L 185.167 112.822 183.458 112.869 L 181.750 112.917 181.750 116.000 L 181.750 119.083 183.457 119.131 L 185.164 119.178 185.207 128.714 L 185.250 138.250 189.000 138.250 L 192.750 138.250 192.793 128.711 L 192.836 119.173 196.710 119.128 L 200.583 119.083 200.583 116.000 L 200.583 112.917 196.712 112.872 L 192.840 112.827 192.795 109.372 L 192.750 105.917 189.073 105.872 C 187.050 105.847,185.344 105.879,185.281 105.941 M312.839 106.156 C 312.738 106.346,312.667 107.782,312.667 109.650 L 312.667 112.821 311.042 112.869 L 309.417 112.917 309.417 116.000 L 309.417 119.083 311.042 119.131 L 312.667 119.179 312.667 128.496 C 312.667 134.628,312.725 137.849,312.836 137.918 C 312.929 137.976,312.961 138.094,312.908 138.181 C 312.847 138.280,314.242 138.323,316.613 138.295 L 320.417 138.250 320.460 128.708 L 320.503 119.167 324.317 119.167 C 328.833 119.167,328.355 119.553,328.325 115.927 C 328.297 112.522,328.709 112.833,324.230 112.833 L 320.500 112.833 320.500 109.533 C 320.500 107.189,320.442 106.175,320.300 106.033 C 319.915 105.648,313.051 105.761,312.839 106.156 M0.000 122.417 L 0.000 138.340 3.625 138.295 L 7.250 138.250 7.293 131.042 C 7.317 127.077,7.379 123.833,7.430 123.833 C 7.510 123.833,11.930 127.666,15.571 130.894 C 16.206 131.456,18.380 133.360,20.403 135.125 L 24.081 138.333 29.022 138.333 C 33.370 138.333,33.976 138.302,34.065 138.070 C 34.190 137.745,33.904 137.465,29.833 133.921 C 29.329 133.482,28.692 132.927,28.417 132.687 C 28.142 132.446,27.356 131.762,26.671 131.167 C 25.986 130.571,25.123 129.813,24.754 129.482 C 24.385 129.152,23.371 128.262,22.500 127.505 C 20.660 125.905,20.518 125.781,18.050 123.611 L 16.187 121.972 16.798 121.445 C 17.134 121.154,17.632 120.729,17.904 120.500 C 18.176 120.271,18.703 119.819,19.074 119.495 C 19.446 119.172,20.200 118.539,20.750 118.088 C 21.300 117.636,22.091 116.963,22.508 116.592 C 22.925 116.221,25.569 113.971,28.383 111.593 C 32.366 108.227,33.500 107.184,33.500 106.884 L 33.500 106.500 28.613 106.500 L 23.725 106.500 22.730 107.375 C 22.183 107.856,21.514 108.438,21.245 108.667 C 20.976 108.896,20.464 109.365,20.108 109.708 C 19.752 110.052,19.430 110.333,19.393 110.333 C 19.237 110.333,7.497 120.727,7.461 120.897 C 7.440 121.000,7.383 117.821,7.336 113.833 L 7.250 106.583 3.625 106.538 L 0.000 106.493 0.000 122.417 M113.849 106.753 C 113.170 106.876,112.420 107.031,112.182 107.098 C 111.944 107.164,111.603 107.246,111.422 107.280 C 109.188 107.702,107.085 110.058,106.291 113.027 C 105.768 114.986,105.712 129.378,106.220 131.542 C 107.062 135.132,108.868 136.921,112.617 137.876 C 115.316 138.564,135.363 138.409,136.583 137.691 C 136.675 137.637,136.898 137.570,137.078 137.542 C 138.359 137.343,140.235 136.023,141.119 134.698 C 142.443 132.715,142.583 131.795,142.583 125.083 L 142.583 119.250 139.167 119.203 C 137.287 119.177,135.588 119.195,135.390 119.244 C 135.033 119.331,135.030 119.372,134.973 124.213 C 134.906 129.976,134.812 130.355,133.248 131.160 L 132.425 131.583 124.250 131.583 L 116.074 131.583 115.245 131.163 C 113.662 130.360,113.596 130.070,113.529 123.583 C 113.421 113.123,113.172 113.461,121.117 113.333 C 124.581 113.278,126.379 113.189,126.501 113.066 C 126.625 112.941,126.668 111.867,126.634 109.733 L 126.583 106.583 120.833 106.556 C 116.628 106.535,114.752 106.588,113.849 106.753 M55.704 113.029 C 55.472 113.261,55.412 118.103,55.636 118.457 C 55.738 118.616,57.728 118.674,64.301 118.707 L 72.835 118.750 65.043 125.333 C 55.981 132.991,55.737 133.209,55.318 134.031 C 54.857 134.934,54.896 136.209,55.411 137.089 C 56.184 138.408,55.268 138.333,70.647 138.333 L 84.327 138.333 84.426 137.938 C 84.570 137.365,84.442 132.719,84.278 132.555 C 84.202 132.479,80.189 132.379,75.361 132.333 L 66.583 132.250 67.000 131.894 C 69.026 130.164,72.854 126.858,74.010 125.840 C 74.794 125.149,76.519 123.650,77.843 122.509 C 83.732 117.434,83.753 117.409,83.635 115.564 C 83.563 114.434,83.281 113.891,82.436 113.260 C 81.870 112.838,56.118 112.616,55.704 113.029 M146.738 113.056 C 146.607 113.395,146.748 130.358,146.885 130.833 C 146.951 131.063,147.037 131.475,147.076 131.750 C 147.481 134.622,149.706 136.910,152.898 137.739 C 155.736 138.476,169.846 138.579,172.500 137.882 C 173.961 137.499,175.500 136.860,175.500 136.636 C 175.500 136.551,175.571 136.524,175.658 136.578 C 176.328 136.992,178.462 133.683,178.944 131.485 C 179.293 129.893,179.479 113.460,179.153 113.067 C 178.881 112.739,172.132 112.723,171.861 113.050 C 171.740 113.196,171.666 115.909,171.633 121.425 C 171.566 132.500,172.212 131.669,163.583 131.763 C 157.019 131.834,155.751 131.632,154.987 130.396 C 154.377 129.409,154.340 128.869,154.330 121.021 C 154.323 115.711,154.264 113.200,154.140 113.051 C 153.874 112.731,146.861 112.735,146.738 113.056 M216.375 113.019 C 216.079 113.323,216.081 118.055,216.377 118.300 C 216.507 118.408,218.231 118.495,220.918 118.529 C 226.385 118.598,226.815 118.784,227.100 121.207 L 227.211 122.152 216.980 122.212 C 211.354 122.245,206.450 122.326,206.083 122.392 C 201.598 123.199,200.429 124.804,200.421 130.167 C 200.414 135.296,201.247 136.695,205.000 137.862 L 206.250 138.250 216.667 138.250 C 229.240 138.250,230.266 138.106,232.439 136.039 C 234.414 134.160,234.753 132.536,234.744 125.000 C 234.734 116.932,233.542 114.755,228.378 113.383 C 226.434 112.866,216.807 112.574,216.375 113.019 M247.583 113.024 C 240.887 113.873,238.847 116.805,238.837 125.594 C 238.827 133.368,240.175 136.095,244.770 137.595 C 246.855 138.276,248.411 138.351,259.250 138.299 L 269.417 138.250 269.417 135.083 L 269.417 131.917 259.333 131.827 C 245.923 131.707,246.659 132.034,246.535 126.142 C 246.389 119.231,245.694 119.599,258.992 119.534 C 265.882 119.501,269.135 119.428,269.283 119.306 C 269.581 119.059,269.596 113.329,269.300 113.033 C 269.059 112.792,249.477 112.783,247.583 113.024 M338.583 113.018 C 331.963 113.888,330.535 116.100,330.506 125.534 C 330.479 134.024,331.722 136.424,336.897 137.878 C 338.259 138.260,350.320 138.549,350.100 138.194 C 350.042 138.100,350.071 137.976,350.164 137.918 C 350.466 137.731,350.382 132.906,350.071 132.595 C 349.845 132.369,349.137 132.333,344.863 132.333 C 338.350 132.333,338.062 132.195,338.149 129.126 L 338.167 128.502 350.792 128.459 L 363.417 128.417 363.468 123.667 C 363.551 115.982,362.841 114.538,358.362 113.290 C 356.944 112.895,341.169 112.678,338.583 113.018 M376.333 113.008 C 372.309 113.550,370.149 114.682,368.937 116.887 C 367.622 119.277,367.485 120.612,367.540 130.483 L 367.583 138.250 371.238 138.295 C 374.051 138.330,374.924 138.291,375.027 138.128 C 375.101 138.012,375.163 134.462,375.164 130.239 C 375.168 118.805,374.535 119.583,383.833 119.583 C 393.326 119.583,392.667 118.799,392.667 130.091 C 392.667 134.334,392.712 137.925,392.768 138.070 C 392.856 138.299,393.337 138.333,396.434 138.333 L 400.000 138.333 400.000 129.030 C 400.000 120.960,399.964 119.607,399.731 118.822 C 398.821 115.755,396.904 114.102,393.326 113.302 C 391.588 112.914,378.693 112.690,376.333 113.008 M355.333 119.215 C 355.738 119.420,355.751 119.484,355.797 121.380 L 355.844 123.333 347.005 123.333 L 338.167 123.333 338.149 122.625 C 338.102 120.738,338.503 119.627,339.368 119.251 C 340.127 118.922,354.687 118.889,355.333 119.215 M227.133 128.958 C 226.966 132.859,227.279 132.738,217.258 132.798 C 207.393 132.857,207.833 132.981,207.834 130.133 C 207.834 127.060,207.377 127.188,218.396 127.176 L 227.209 127.167 227.133 128.958 " stroke="none" fill="#1474bc" fill-rule="evenodd"></path><path id="path2" d="M211.375 3.557 C 211.375 3.808,211.579 4.078,211.970 4.344 C 212.582 4.762,213.021 5.140,213.957 6.055 C 214.255 6.345,214.499 6.530,214.499 6.465 C 214.500 6.363,215.151 7.039,217.181 9.250 C 218.112 10.264,218.265 10.447,218.992 11.422 C 219.400 11.969,219.813 12.508,219.909 12.619 C 220.406 13.196,220.500 13.332,220.500 13.475 C 220.500 13.561,220.617 13.676,220.761 13.731 C 220.904 13.786,220.974 13.907,220.917 13.999 C 220.860 14.091,220.893 14.167,220.990 14.167 C 221.087 14.167,221.167 14.245,221.167 14.341 C 221.167 14.437,221.444 14.944,221.784 15.466 C 222.617 16.750,222.883 17.224,223.510 18.542 C 223.804 19.160,224.122 19.667,224.217 19.667 C 224.311 19.667,224.345 19.711,224.290 19.765 C 224.236 19.819,224.374 20.205,224.596 20.623 C 224.818 21.041,225.000 21.484,225.000 21.608 C 225.000 21.732,225.079 21.833,225.177 21.833 C 225.274 21.833,225.310 21.903,225.257 21.988 C 225.204 22.074,225.237 22.191,225.331 22.248 C 225.424 22.306,225.500 22.462,225.500 22.595 C 225.500 22.728,225.656 23.192,225.847 23.627 C 226.606 25.354,226.703 25.593,226.753 25.833 C 226.782 25.971,227.179 27.321,227.636 28.833 C 228.699 32.349,229.802 37.347,230.081 39.917 C 230.111 40.192,230.221 41.054,230.325 41.833 C 230.906 46.184,230.919 58.062,230.347 62.333 C 230.255 63.021,230.135 63.996,230.079 64.500 C 229.912 66.011,228.864 72.141,228.498 73.750 C 228.310 74.575,228.127 75.438,228.091 75.667 C 228.030 76.055,227.483 78.123,226.691 80.961 C 226.505 81.627,226.340 82.227,226.323 82.294 C 226.307 82.362,226.227 82.590,226.147 82.803 C 226.066 83.015,226.000 83.335,226.000 83.513 C 226.000 83.692,225.924 83.968,225.830 84.127 C 225.737 84.286,225.146 85.917,224.516 87.750 C 223.886 89.583,223.179 91.571,222.946 92.167 C 222.467 93.393,222.301 93.887,222.337 93.981 C 222.351 94.017,222.297 94.092,222.218 94.148 C 222.015 94.292,221.258 96.142,221.307 96.375 C 221.321 96.444,221.258 96.500,221.167 96.500 C 221.075 96.500,221.000 96.635,221.000 96.800 C 221.000 96.965,220.919 97.181,220.819 97.281 C 220.720 97.380,220.664 97.639,220.694 97.856 L 220.750 98.250 228.964 98.290 C 237.987 98.333,237.602 98.378,237.142 97.338 C 237.019 97.060,236.858 96.833,236.783 96.833 C 236.708 96.833,236.693 96.758,236.750 96.667 C 236.807 96.575,236.761 96.500,236.649 96.500 C 236.536 96.500,236.494 96.451,236.554 96.390 C 236.614 96.330,236.599 96.199,236.519 96.099 C 235.482 94.794,234.610 88.741,235.076 86.083 C 235.237 85.170,235.844 82.822,236.002 82.507 C 236.073 82.366,236.402 81.706,236.734 81.042 C 237.066 80.377,237.285 79.833,237.221 79.833 C 237.157 79.833,237.262 79.686,237.456 79.506 C 237.649 79.325,237.856 79.025,237.915 78.839 C 237.974 78.653,238.092 78.500,238.178 78.500 C 238.263 78.500,238.333 78.422,238.333 78.326 C 238.333 78.099,239.307 77.008,240.664 75.716 C 242.113 74.336,242.310 74.167,242.469 74.167 C 242.543 74.167,242.749 74.033,242.927 73.869 C 243.404 73.430,246.099 72.079,247.250 71.702 C 248.713 71.223,249.527 71.036,250.667 70.917 C 251.079 70.874,251.728 70.792,252.108 70.736 C 252.988 70.606,255.549 70.922,257.167 71.360 C 257.854 71.546,258.492 71.718,258.583 71.741 C 258.962 71.837,259.475 72.062,260.522 72.591 C 261.130 72.899,261.674 73.104,261.730 73.048 C 261.787 72.991,261.833 73.030,261.833 73.135 C 261.833 73.239,262.046 73.435,262.305 73.569 C 263.062 73.960,265.469 75.931,266.073 76.654 C 266.378 77.019,266.730 77.431,266.855 77.570 C 267.362 78.130,267.500 78.327,267.500 78.493 C 267.500 78.589,267.575 78.667,267.667 78.667 C 267.758 78.667,267.833 78.753,267.833 78.859 C 267.833 78.965,268.007 79.284,268.220 79.568 C 268.784 80.320,270.023 83.199,270.241 84.265 C 270.276 84.440,270.389 84.949,270.491 85.395 C 271.106 88.084,270.674 92.658,269.552 95.333 C 269.494 95.471,269.459 95.640,269.474 95.708 C 269.488 95.777,269.431 95.833,269.347 95.833 C 269.262 95.833,269.144 96.058,269.083 96.333 C 269.023 96.608,268.912 96.833,268.836 96.833 C 268.761 96.833,268.617 97.069,268.516 97.358 C 268.179 98.326,268.260 98.345,272.761 98.327 L 276.806 98.312 277.070 97.653 C 277.215 97.290,277.333 96.857,277.333 96.691 C 277.333 96.525,277.390 96.333,277.458 96.264 C 277.527 96.195,277.590 96.089,277.598 96.028 C 277.622 95.840,277.849 95.271,278.074 94.833 C 278.192 94.604,278.337 94.210,278.397 93.958 C 278.457 93.706,278.571 93.500,278.650 93.500 C 278.728 93.500,278.893 93.256,279.015 92.958 C 279.412 91.992,280.961 90.034,283.201 87.667 C 284.942 85.826,285.000 85.757,285.000 85.528 C 285.000 85.421,285.070 85.333,285.155 85.333 C 285.290 85.333,285.564 84.741,285.541 84.500 C 285.536 84.454,285.613 84.267,285.710 84.085 C 285.808 83.902,285.910 83.602,285.936 83.418 C 285.963 83.234,286.042 82.708,286.112 82.250 C 286.274 81.195,286.289 76.387,286.132 75.833 L 286.015 75.417 282.716 75.417 C 279.532 75.417,278.516 75.340,277.388 75.016 C 277.097 74.932,276.815 74.907,276.763 74.960 C 276.710 75.012,276.667 74.968,276.667 74.861 C 276.667 74.754,276.557 74.667,276.422 74.667 C 276.063 74.667,274.317 73.427,273.350 72.485 C 272.888 72.035,272.546 71.667,272.590 71.667 C 272.634 71.667,272.333 71.203,271.921 70.637 C 271.509 70.070,271.194 69.584,271.221 69.557 C 271.249 69.529,274.284 69.502,277.967 69.496 L 284.664 69.486 284.761 69.099 C 284.814 68.887,284.658 68.008,284.413 67.148 C 284.168 66.287,283.887 65.265,283.789 64.875 C 283.691 64.485,283.544 64.167,283.462 64.167 C 283.380 64.167,283.360 64.092,283.416 64.001 C 283.473 63.909,283.308 63.749,283.051 63.644 C 282.794 63.539,282.283 63.323,281.917 63.165 C 281.550 63.006,281.063 62.823,280.833 62.758 C 280.604 62.693,280.106 62.499,279.727 62.328 C 279.347 62.156,278.822 61.964,278.560 61.901 C 278.298 61.839,278.006 61.727,277.911 61.654 C 277.817 61.580,277.554 61.485,277.328 61.442 C 277.102 61.399,276.692 61.245,276.417 61.100 C 276.142 60.954,275.800 60.835,275.658 60.834 C 275.516 60.834,275.329 60.769,275.242 60.690 C 275.116 60.576,272.671 59.636,272.333 59.571 C 272.287 59.563,272.053 59.473,271.812 59.373 C 271.572 59.273,271.047 59.103,270.646 58.996 C 270.245 58.888,269.842 58.741,269.750 58.668 C 269.658 58.595,269.021 58.369,268.333 58.167 C 267.646 57.964,267.008 57.741,266.917 57.672 C 266.825 57.602,266.112 57.345,265.333 57.102 C 264.554 56.858,263.692 56.581,263.417 56.486 C 263.142 56.391,262.429 56.157,261.833 55.965 C 261.237 55.774,260.514 55.516,260.225 55.392 C 259.936 55.268,259.557 55.167,259.383 55.167 C 259.209 55.167,258.995 55.101,258.908 55.021 C 258.761 54.886,256.843 54.231,256.083 54.057 C 255.587 53.943,255.461 53.903,254.947 53.692 C 254.689 53.587,254.338 53.500,254.166 53.500 C 253.994 53.500,253.806 53.424,253.748 53.331 C 253.691 53.237,253.576 53.203,253.494 53.254 C 253.411 53.305,253.008 53.194,252.598 53.007 C 252.187 52.820,251.706 52.667,251.528 52.667 C 251.350 52.667,250.990 52.555,250.727 52.418 C 250.465 52.281,250.078 52.168,249.867 52.168 C 249.656 52.167,249.272 52.057,249.013 51.923 C 248.754 51.789,248.497 51.725,248.442 51.780 C 248.387 51.836,248.246 51.806,248.129 51.714 C 247.813 51.466,240.400 49.399,239.263 49.242 C 238.549 49.144,238.513 49.059,238.427 47.283 C 238.383 46.391,238.309 45.419,238.262 45.122 C 238.215 44.826,238.132 44.133,238.078 43.583 C 238.024 43.033,237.942 42.321,237.896 42.000 C 237.765 41.084,237.508 39.450,237.437 39.083 C 237.402 38.900,237.320 38.412,237.255 38.000 C 237.096 36.981,235.841 31.866,235.621 31.340 C 235.404 30.818,235.416 30.856,235.265 30.250 C 235.197 29.975,235.075 29.600,234.994 29.417 C 234.913 29.233,234.652 28.483,234.412 27.750 C 234.173 27.017,233.908 26.345,233.822 26.258 C 233.737 26.171,233.667 25.995,233.667 25.867 C 233.667 25.739,233.376 25.023,233.020 24.275 C 232.665 23.528,232.234 22.599,232.062 22.210 C 231.890 21.822,231.702 21.503,231.644 21.502 C 231.586 21.501,231.371 21.087,231.167 20.583 C 230.962 20.079,230.728 19.667,230.647 19.667 C 230.566 19.667,230.500 19.560,230.500 19.429 C 230.500 19.298,230.397 19.088,230.272 18.962 C 230.147 18.837,229.992 18.569,229.927 18.367 C 229.863 18.165,229.741 18.000,229.655 18.000 C 229.570 18.000,229.500 17.887,229.500 17.750 C 229.500 17.612,229.425 17.500,229.333 17.500 C 229.242 17.500,229.167 17.387,229.167 17.250 C 229.167 17.112,229.092 17.000,229.000 17.000 C 228.908 17.000,228.833 16.922,228.833 16.826 C 228.833 16.663,228.703 16.474,228.208 15.923 C 228.094 15.795,228.000 15.622,228.000 15.539 C 228.000 15.456,227.703 15.075,227.340 14.694 C 226.977 14.312,226.731 14.000,226.794 14.000 C 226.856 14.000,226.670 13.783,226.380 13.518 C 226.090 13.253,225.883 13.006,225.919 12.970 C 226.098 12.791,221.075 8.132,219.940 7.423 C 219.652 7.243,219.362 7.018,219.294 6.923 C 219.227 6.828,219.171 6.803,219.169 6.867 C 219.168 6.931,218.968 6.800,218.726 6.575 C 218.483 6.351,218.183 6.167,218.059 6.167 C 217.935 6.167,217.833 6.109,217.833 6.038 C 217.833 5.923,216.752 5.268,216.513 5.238 C 216.251 5.206,215.500 4.762,215.500 4.640 C 215.500 4.563,215.407 4.500,215.294 4.500 C 215.119 4.500,214.006 4.014,212.965 3.484 C 212.241 3.115,211.375 3.155,211.375 3.557 M160.078 24.042 L 159.083 25.083 160.125 24.089 C 160.698 23.541,161.167 23.073,161.167 23.047 C 161.167 22.924,161.002 23.074,160.078 24.042 M240.516 56.823 C 241.286 57.018,242.142 57.254,242.417 57.348 C 242.692 57.443,243.029 57.547,243.167 57.580 C 243.304 57.614,243.942 57.801,244.583 57.996 C 245.225 58.191,246.162 58.467,246.667 58.609 C 247.171 58.752,247.696 58.909,247.833 58.959 C 247.971 59.009,248.220 59.077,248.387 59.109 C 248.553 59.142,248.877 59.266,249.105 59.386 C 250.252 59.987,245.540 60.768,243.500 60.316 C 242.552 60.105,241.962 60.000,241.167 59.901 C 240.754 59.849,240.267 59.743,240.083 59.665 C 239.900 59.588,239.464 59.477,239.115 59.419 L 238.480 59.315 238.563 58.116 C 238.608 57.456,238.650 56.777,238.656 56.607 C 238.662 56.419,238.754 56.331,238.891 56.384 C 239.014 56.431,239.745 56.629,240.516 56.823 M252.495 73.390 C 252.452 73.431,251.854 73.512,251.167 73.571 C 248.974 73.759,244.333 75.411,244.333 76.004 C 244.333 76.093,244.218 76.167,244.078 76.167 C 243.938 76.167,243.780 76.279,243.727 76.417 C 243.674 76.554,243.542 76.667,243.434 76.667 C 243.325 76.667,242.685 77.229,242.011 77.917 C 241.337 78.604,240.851 79.167,240.930 79.167 C 241.009 79.167,240.906 79.284,240.701 79.428 C 240.496 79.572,240.371 79.760,240.424 79.846 C 240.478 79.932,240.412 80.044,240.279 80.095 C 240.080 80.172,239.047 82.085,238.486 83.417 C 237.487 85.792,237.294 90.211,238.079 92.750 C 238.192 93.117,238.383 93.735,238.503 94.125 C 238.622 94.515,238.796 94.833,238.888 94.833 C 238.980 94.833,239.008 94.881,238.949 94.940 C 238.772 95.116,240.276 97.634,240.901 98.208 C 241.075 98.369,241.152 98.500,241.072 98.500 C 240.992 98.500,241.471 99.021,242.135 99.659 C 243.328 100.803,244.333 101.612,244.333 101.428 C 244.333 101.376,244.470 101.470,244.638 101.638 C 245.081 102.081,247.298 103.097,248.576 103.442 C 251.496 104.231,255.880 104.059,258.109 103.067 C 258.397 102.939,258.726 102.833,258.839 102.833 C 259.128 102.833,261.333 101.624,261.333 101.465 C 261.333 101.393,261.447 101.333,261.585 101.333 C 262.114 101.333,265.452 97.732,265.950 96.625 C 266.104 96.281,266.286 96.000,266.354 96.000 C 266.422 96.000,266.527 95.831,266.588 95.625 C 266.648 95.419,266.837 94.950,267.008 94.583 C 268.255 91.910,268.461 85.689,267.363 83.917 C 267.306 83.825,267.238 83.613,267.212 83.446 C 267.122 82.863,265.896 80.482,265.625 80.361 C 265.556 80.331,265.500 80.218,265.500 80.111 C 265.500 80.004,265.238 79.622,264.917 79.262 C 264.597 78.903,264.219 78.453,264.077 78.262 C 263.934 78.072,263.863 78.010,263.919 78.125 C 263.974 78.240,263.976 78.333,263.922 78.333 C 263.869 78.333,263.750 78.135,263.658 77.894 C 263.566 77.652,263.446 77.498,263.391 77.553 C 263.337 77.608,263.063 77.393,262.782 77.076 C 262.502 76.759,262.173 76.500,262.053 76.500 C 261.932 76.500,261.833 76.438,261.833 76.361 C 261.833 76.285,261.627 76.117,261.375 75.987 C 261.123 75.857,260.879 75.708,260.833 75.655 C 260.624 75.416,258.208 74.333,257.883 74.333 C 257.683 74.333,257.479 74.267,257.428 74.186 C 257.378 74.104,257.055 73.979,256.710 73.907 C 256.365 73.835,256.046 73.765,256.000 73.753 C 255.954 73.740,255.429 73.675,254.833 73.608 C 254.237 73.541,253.485 73.448,253.161 73.401 C 252.838 73.355,252.538 73.350,252.495 73.390 M1.967 138.458 C 2.912 138.488,4.412 138.487,5.301 138.457 C 6.189 138.428,5.417 138.403,3.583 138.403 C 1.750 138.404,1.023 138.428,1.967 138.458 M26.802 138.458 C 28.114 138.486,30.214 138.486,31.468 138.458 C 32.723 138.430,31.650 138.407,29.083 138.407 C 26.517 138.407,25.490 138.430,26.802 138.458 M38.467 138.458 C 39.412 138.488,40.912 138.487,41.801 138.457 C 42.689 138.428,41.917 138.403,40.083 138.403 C 38.250 138.404,37.523 138.428,38.467 138.458 M64.113 138.458 C 67.704 138.483,73.629 138.483,77.279 138.458 C 80.930 138.433,77.992 138.413,70.750 138.413 C 63.508 138.413,60.522 138.433,64.113 138.458 M120.886 138.458 C 122.794 138.485,125.869 138.485,127.719 138.458 C 129.570 138.431,128.008 138.409,124.250 138.409 C 120.492 138.409,118.978 138.431,120.886 138.458 M160.635 138.458 C 161.947 138.486,164.047 138.486,165.302 138.458 C 166.557 138.430,165.483 138.407,162.917 138.407 C 160.350 138.407,159.323 138.430,160.635 138.458 M187.292 138.458 C 188.231 138.487,189.769 138.487,190.708 138.458 C 191.648 138.428,190.879 138.404,189.000 138.404 C 187.121 138.404,186.352 138.428,187.292 138.458 M212.792 138.458 C 214.831 138.485,218.169 138.485,220.208 138.458 C 222.248 138.432,220.579 138.410,216.500 138.410 C 212.421 138.410,210.752 138.432,212.792 138.458 M255.042 138.458 C 257.585 138.484,261.748 138.484,264.292 138.458 C 266.835 138.432,264.754 138.411,259.667 138.411 C 254.579 138.411,252.498 138.432,255.042 138.458 M275.801 138.458 C 276.745 138.488,278.245 138.487,279.134 138.457 C 280.023 138.428,279.250 138.403,277.417 138.403 C 275.583 138.404,274.856 138.428,275.801 138.458 M301.467 138.458 C 302.412 138.488,303.912 138.487,304.801 138.457 C 305.689 138.428,304.917 138.403,303.083 138.403 C 301.250 138.404,300.523 138.428,301.467 138.458 M314.967 138.458 C 315.912 138.488,317.412 138.487,318.301 138.457 C 319.189 138.428,318.417 138.403,316.583 138.403 C 314.750 138.404,314.023 138.428,314.967 138.458 M343.375 138.458 C 344.544 138.487,346.456 138.487,347.625 138.458 C 348.794 138.429,347.837 138.406,345.500 138.406 C 343.162 138.406,342.206 138.429,343.375 138.458 M369.634 138.458 C 370.578 138.488,372.078 138.487,372.967 138.457 C 373.856 138.428,373.083 138.403,371.250 138.403 C 369.417 138.404,368.689 138.428,369.634 138.458 M394.875 138.458 C 395.769 138.488,397.231 138.488,398.125 138.458 C 399.019 138.428,398.287 138.403,396.500 138.403 C 394.712 138.403,393.981 138.428,394.875 138.458 M120.167 147.953 C 119.532 148.148,118.833 148.531,118.833 148.684 C 118.833 148.777,118.764 148.810,118.680 148.758 C 118.596 148.706,118.372 148.870,118.182 149.123 C 117.992 149.376,117.761 149.674,117.668 149.785 C 117.576 149.895,117.500 150.058,117.500 150.146 C 117.500 150.234,117.444 150.331,117.375 150.361 C 117.233 150.424,116.333 151.774,116.333 151.924 C 116.333 151.978,116.146 152.268,115.917 152.569 C 115.688 152.869,115.500 153.201,115.500 153.307 C 115.500 153.413,115.442 153.500,115.371 153.500 C 115.300 153.500,115.095 153.781,114.914 154.125 C 114.734 154.469,114.541 154.787,114.485 154.833 C 114.429 154.879,114.180 155.284,113.931 155.734 C 113.682 156.183,113.296 156.790,113.072 157.083 C 112.849 157.375,112.667 157.701,112.667 157.807 C 112.667 157.913,112.593 158.000,112.503 158.000 C 112.413 158.000,112.293 158.188,112.235 158.417 C 112.178 158.646,112.064 158.833,111.982 158.833 C 111.900 158.833,111.833 158.946,111.833 159.083 C 111.833 159.221,111.767 159.333,111.686 159.333 C 111.605 159.333,111.495 159.465,111.441 159.625 C 111.346 159.908,111.002 160.498,110.833 160.667 C 110.665 160.835,110.321 161.425,110.226 161.708 C 110.172 161.869,110.074 162.000,110.007 162.000 C 109.941 162.000,109.744 162.299,109.568 162.665 C 109.393 163.030,109.194 163.330,109.125 163.331 C 109.056 163.332,109.000 163.413,109.000 163.511 C 109.000 163.609,108.813 163.935,108.583 164.235 C 108.354 164.536,108.167 164.868,108.167 164.974 C 108.167 165.080,108.104 165.167,108.027 165.167 C 107.897 165.167,107.436 166.012,107.496 166.140 C 107.510 166.171,107.415 166.284,107.283 166.390 C 107.152 166.496,106.903 166.846,106.731 167.167 C 106.558 167.487,106.379 167.787,106.333 167.833 C 106.210 167.957,105.847 168.547,105.719 168.833 C 105.658 168.971,105.557 169.121,105.495 169.167 C 105.434 169.212,105.183 169.570,104.938 169.961 L 104.492 170.673 103.831 169.961 C 103.468 169.570,103.170 169.303,103.169 169.367 C 103.168 169.432,102.837 169.169,102.435 168.784 C 101.184 167.586,100.604 167.080,100.583 167.167 C 100.573 167.212,100.250 166.912,99.867 166.500 C 99.484 166.087,99.170 165.810,99.169 165.882 C 99.168 165.955,98.868 165.692,98.502 165.299 C 98.137 164.905,97.837 164.646,97.835 164.722 C 97.834 164.799,97.533 164.540,97.167 164.146 C 96.800 163.753,96.500 163.485,96.500 163.550 C 96.500 163.615,96.174 163.349,95.775 162.959 C 95.050 162.250,94.196 161.466,92.871 160.291 C 92.128 159.633,92.126 159.141,92.864 158.907 C 93.019 158.858,93.376 158.556,93.656 158.236 C 93.937 157.917,94.167 157.714,94.167 157.786 C 94.168 157.858,94.430 157.631,94.751 157.282 C 95.071 156.934,95.333 156.707,95.333 156.779 C 95.333 156.851,95.502 156.751,95.708 156.556 C 97.222 155.129,97.501 154.885,97.506 154.978 C 97.509 155.036,97.640 154.931,97.797 154.745 C 97.955 154.559,98.243 154.296,98.438 154.160 C 98.633 154.025,99.195 153.564,99.688 153.136 C 100.180 152.709,101.146 151.891,101.833 151.320 C 102.521 150.748,103.243 150.124,103.438 149.932 C 103.633 149.740,103.952 149.453,104.146 149.293 C 104.621 148.904,104.592 148.559,104.073 148.429 C 103.161 148.200,96.986 148.343,96.889 148.595 C 96.839 148.725,96.742 148.796,96.672 148.754 C 96.603 148.711,96.274 148.980,95.940 149.351 C 95.606 149.723,95.333 149.968,95.333 149.897 C 95.333 149.773,95.072 150.004,93.405 151.607 C 93.010 151.987,92.655 152.266,92.617 152.228 C 92.579 152.190,92.274 152.470,91.940 152.851 C 91.606 153.232,91.333 153.481,91.333 153.405 C 91.333 153.328,91.090 153.498,90.792 153.782 C 89.982 154.554,89.107 155.338,88.223 156.083 C 87.789 156.450,87.086 157.087,86.661 157.500 C 85.431 158.695,85.490 158.893,85.500 153.543 C 85.505 150.907,85.507 148.656,85.505 148.542 C 85.501 148.383,84.818 148.333,82.657 148.333 C 80.804 148.333,79.850 148.391,79.917 148.500 C 79.973 148.592,79.940 148.667,79.843 148.667 C 79.721 148.667,79.667 152.110,79.667 159.917 L 79.667 171.167 82.625 171.167 L 85.583 171.167 85.537 166.250 C 85.487 160.973,85.483 160.991,86.352 161.912 C 86.652 162.230,86.929 162.460,86.966 162.423 C 87.003 162.386,87.307 162.642,87.642 162.993 C 88.151 163.526,90.790 165.858,93.370 168.055 C 93.712 168.346,94.278 168.846,94.630 169.167 C 97.084 171.407,95.992 171.186,104.309 171.130 L 111.201 171.083 111.559 170.418 C 111.756 170.052,111.962 169.714,112.017 169.668 C 112.072 169.621,112.364 169.133,112.667 168.583 C 112.969 168.033,113.280 167.558,113.358 167.528 C 113.436 167.497,113.500 167.378,113.500 167.262 C 113.500 166.508,113.663 166.494,121.682 166.540 C 127.291 166.572,129.241 166.633,129.214 166.776 C 129.194 166.881,129.287 167.059,129.422 167.171 C 129.557 167.283,129.667 167.477,129.667 167.604 C 129.667 167.730,129.742 167.833,129.833 167.833 C 129.925 167.833,130.000 167.946,130.000 168.083 C 130.000 168.221,130.056 168.334,130.125 168.335 C 130.194 168.336,130.393 168.636,130.568 169.002 C 130.744 169.368,130.950 169.667,131.027 169.667 C 131.104 169.667,131.167 169.747,131.167 169.844 C 131.167 169.942,131.363 170.280,131.603 170.594 L 132.040 171.167 135.367 171.167 C 137.197 171.167,138.665 171.110,138.628 171.042 C 138.592 170.973,138.465 170.673,138.348 170.375 C 138.230 170.077,138.066 169.833,137.984 169.833 C 137.901 169.833,137.833 169.721,137.833 169.583 C 137.833 169.446,137.767 169.333,137.686 169.333 C 137.605 169.333,137.495 169.202,137.441 169.042 C 137.346 168.758,137.002 168.168,136.833 168.000 C 136.665 167.832,136.321 167.242,136.226 166.958 C 136.172 166.798,136.070 166.667,136.000 166.667 C 135.930 166.667,135.828 166.535,135.774 166.375 C 135.668 166.058,135.454 165.704,134.875 164.886 C 134.669 164.594,134.500 164.284,134.500 164.196 C 134.500 164.108,134.383 163.991,134.239 163.936 C 134.096 163.881,134.020 163.769,134.071 163.687 C 134.122 163.605,134.051 163.445,133.915 163.332 C 133.778 163.219,133.667 163.026,133.667 162.905 C 133.667 162.783,133.535 162.610,133.375 162.520 C 133.215 162.430,133.109 162.333,133.140 162.303 C 133.231 162.218,132.793 161.333,132.659 161.333 C 132.593 161.333,132.495 161.202,132.441 161.042 C 132.301 160.624,131.952 160.106,131.705 159.948 C 131.588 159.874,131.531 159.751,131.578 159.675 C 131.625 159.600,131.551 159.445,131.415 159.332 C 131.278 159.219,131.167 159.023,131.167 158.896 C 131.167 158.770,131.110 158.667,131.041 158.667 C 130.971 158.667,130.814 158.440,130.692 158.163 C 130.569 157.886,130.345 157.535,130.193 157.383 C 130.041 157.231,129.914 157.064,129.911 157.012 C 129.897 156.789,129.433 156.073,129.222 155.948 C 129.096 155.874,129.031 155.751,129.078 155.675 C 129.125 155.600,129.051 155.445,128.915 155.332 C 128.778 155.219,128.667 155.023,128.667 154.896 C 128.667 154.770,128.610 154.667,128.541 154.667 C 128.471 154.667,128.314 154.440,128.192 154.163 C 128.069 153.886,127.882 153.566,127.776 153.452 C 127.670 153.337,127.439 152.983,127.263 152.664 C 127.086 152.344,126.861 152.030,126.763 151.964 C 126.664 151.899,126.578 151.787,126.571 151.714 C 126.546 151.437,126.106 150.667,125.973 150.667 C 125.896 150.667,125.833 150.567,125.833 150.446 C 125.833 148.979,122.128 147.349,120.167 147.953 M183.417 148.101 C 182.717 148.362,181.000 150.019,181.000 150.432 C 181.000 150.561,180.934 150.667,180.853 150.667 C 180.772 150.667,180.656 150.798,180.596 150.958 C 180.389 151.506,180.088 152.000,179.960 152.000 C 179.891 152.000,179.833 152.112,179.833 152.250 C 179.833 152.387,179.775 152.500,179.705 152.500 C 179.634 152.500,179.431 152.781,179.253 153.125 C 179.076 153.469,178.778 153.975,178.591 154.250 C 178.404 154.525,178.250 154.809,178.250 154.881 C 178.250 154.953,178.169 155.066,178.071 155.131 C 177.972 155.196,177.747 155.511,177.571 155.830 C 177.394 156.149,177.163 156.504,177.057 156.618 C 176.951 156.732,176.764 157.053,176.642 157.330 C 176.519 157.607,176.362 157.833,176.293 157.833 C 176.223 157.833,176.167 157.913,176.167 158.011 C 176.167 158.109,175.979 158.435,175.750 158.735 C 175.521 159.036,175.333 159.362,175.333 159.460 C 175.333 159.558,175.275 159.664,175.203 159.694 C 175.024 159.771,173.667 161.951,173.667 162.163 C 173.667 162.256,173.592 162.333,173.500 162.333 C 173.408 162.333,173.333 162.446,173.333 162.583 C 173.333 162.721,173.260 162.833,173.170 162.833 C 173.080 162.833,172.959 163.021,172.902 163.250 C 172.844 163.479,172.747 163.667,172.686 163.667 C 172.626 163.667,172.427 163.948,172.246 164.292 C 172.065 164.635,171.859 164.992,171.789 165.083 C 171.402 165.590,170.833 166.536,170.833 166.674 C 170.833 166.762,170.775 166.833,170.705 166.833 C 170.634 166.833,170.428 167.115,170.247 167.458 C 170.066 167.802,169.831 168.175,169.724 168.288 C 169.618 168.401,169.431 168.719,169.308 168.996 C 169.186 169.273,169.029 169.500,168.959 169.500 C 168.890 169.500,168.833 169.588,168.833 169.695 C 168.833 169.803,168.730 170.009,168.603 170.154 C 168.476 170.298,168.321 170.585,168.258 170.792 L 168.144 171.167 171.420 171.167 C 174.888 171.167,175.305 171.064,175.328 170.208 C 175.331 170.094,175.408 170.000,175.500 170.000 C 175.592 170.000,175.667 169.887,175.667 169.750 C 175.667 169.612,175.740 169.500,175.830 169.500 C 175.920 169.500,176.041 169.313,176.098 169.083 C 176.156 168.854,176.253 168.667,176.314 168.667 C 176.374 168.667,176.572 168.385,176.753 168.042 C 176.934 167.698,177.176 167.318,177.291 167.196 C 177.406 167.075,177.500 166.869,177.500 166.738 C 177.500 166.535,178.623 166.500,185.091 166.500 L 192.682 166.500 192.966 166.999 C 193.122 167.273,193.306 167.498,193.375 167.499 C 193.444 167.500,193.500 167.587,193.500 167.693 C 193.500 167.799,193.688 168.131,193.917 168.431 C 194.146 168.732,194.333 169.058,194.333 169.156 C 194.333 169.253,194.390 169.334,194.458 169.335 C 194.527 169.336,194.727 169.636,194.902 170.002 C 195.077 170.368,195.283 170.667,195.360 170.667 C 195.437 170.667,195.500 170.779,195.500 170.917 C 195.500 171.131,195.991 171.167,198.917 171.167 C 202.479 171.167,202.721 171.114,202.125 170.463 C 201.876 170.191,201.540 169.678,201.386 169.333 C 201.325 169.196,201.231 169.046,201.179 169.000 C 201.048 168.886,200.749 168.384,200.310 167.542 C 200.107 167.152,199.879 166.833,199.804 166.833 C 199.728 166.833,199.667 166.721,199.667 166.583 C 199.667 166.446,199.600 166.333,199.519 166.333 C 199.438 166.333,199.328 166.202,199.274 166.042 C 199.179 165.758,198.835 165.168,198.667 165.000 C 198.621 164.954,198.439 164.654,198.263 164.333 C 198.086 164.012,197.899 163.712,197.846 163.667 C 197.682 163.524,197.328 162.930,197.226 162.625 C 197.172 162.465,197.070 162.333,197.000 162.333 C 196.930 162.333,196.828 162.202,196.774 162.042 C 196.720 161.881,196.580 161.602,196.463 161.420 C 195.154 159.395,194.667 158.598,194.667 158.477 C 194.667 158.398,194.600 158.333,194.519 158.333 C 194.438 158.333,194.328 158.202,194.274 158.042 C 194.179 157.758,193.835 157.168,193.667 157.000 C 193.621 156.954,193.442 156.654,193.269 156.333 C 193.097 156.012,192.839 155.656,192.696 155.542 C 192.553 155.427,192.490 155.333,192.555 155.333 C 192.716 155.333,192.146 154.451,191.875 154.281 C 191.757 154.207,191.698 154.084,191.745 154.009 C 191.791 153.933,191.718 153.778,191.581 153.665 C 191.445 153.552,191.333 153.356,191.333 153.230 C 191.333 153.103,191.258 153.000,191.167 153.000 C 191.075 153.000,191.000 152.923,191.000 152.829 C 191.000 152.618,189.643 150.437,189.464 150.361 C 189.392 150.331,189.333 150.234,189.333 150.146 C 189.333 149.982,189.280 149.904,188.629 149.135 C 187.673 148.003,185.064 147.486,183.417 148.101 M243.703 148.054 C 243.065 148.245,241.667 149.420,241.667 149.764 C 241.667 149.894,241.592 150.000,241.500 150.000 C 241.408 150.000,241.333 150.112,241.333 150.250 C 241.333 150.387,241.275 150.500,241.205 150.500 C 241.134 150.500,240.928 150.781,240.748 151.125 C 240.567 151.469,240.378 151.787,240.327 151.833 C 240.121 152.019,238.833 154.171,238.833 154.329 C 238.833 154.423,238.758 154.500,238.667 154.500 C 238.575 154.500,238.500 154.612,238.500 154.750 C 238.500 154.887,238.442 155.000,238.371 155.000 C 238.300 155.000,238.095 155.281,237.914 155.625 C 237.734 155.969,237.543 156.287,237.489 156.333 C 237.435 156.379,237.247 156.679,237.071 157.000 C 236.894 157.321,236.713 157.621,236.667 157.667 C 236.498 157.835,236.154 158.425,236.059 158.708 C 236.005 158.869,235.895 159.000,235.814 159.000 C 235.733 159.000,235.667 159.112,235.667 159.250 C 235.667 159.387,235.593 159.500,235.503 159.500 C 235.413 159.500,235.293 159.688,235.235 159.917 C 235.178 160.146,235.075 160.333,235.007 160.333 C 234.939 160.333,234.749 160.633,234.583 161.000 C 234.418 161.367,234.219 161.667,234.141 161.667 C 234.064 161.667,234.000 161.747,234.000 161.844 C 234.000 161.942,233.813 162.268,233.583 162.569 C 233.354 162.869,233.167 163.201,233.167 163.307 C 233.167 163.413,233.104 163.500,233.027 163.500 C 232.877 163.500,232.533 164.160,232.564 164.387 C 232.575 164.462,232.452 164.597,232.292 164.687 C 232.131 164.776,232.000 164.926,232.000 165.019 C 232.000 165.113,231.813 165.435,231.583 165.735 C 231.354 166.036,231.167 166.362,231.167 166.460 C 231.167 166.558,231.108 166.664,231.036 166.694 C 230.864 166.768,229.500 168.947,229.500 169.149 C 229.500 169.235,229.434 169.331,229.353 169.361 C 229.273 169.392,229.058 169.697,228.876 170.039 L 228.545 170.661 227.898 170.063 C 227.541 169.734,227.006 169.233,226.708 168.949 C 226.410 168.665,226.167 168.482,226.167 168.542 C 226.167 168.602,225.845 168.336,225.452 167.950 C 224.447 166.966,222.381 165.147,222.228 165.112 C 222.158 165.096,221.787 164.783,221.405 164.417 C 219.785 162.862,219.500 162.604,219.500 162.693 C 219.500 162.744,219.138 162.440,218.696 162.018 C 217.907 161.265,217.095 160.550,216.347 159.948 L 215.971 159.645 216.593 159.114 C 216.934 158.822,217.478 158.358,217.800 158.083 C 218.123 157.808,218.679 157.306,219.037 156.968 C 219.394 156.630,219.719 156.348,219.759 156.343 C 219.867 156.327,220.677 155.638,221.093 155.208 C 221.292 155.002,221.521 154.833,221.602 154.832 C 221.684 154.832,222.256 154.360,222.875 153.785 C 223.494 153.209,224.000 152.777,224.000 152.826 C 224.000 152.874,224.191 152.708,224.423 152.457 C 224.656 152.205,224.900 152.000,224.965 152.000 C 225.030 152.000,225.608 151.504,226.250 150.899 C 226.892 150.294,227.424 149.825,227.433 149.858 C 227.495 150.076,228.328 149.008,228.330 148.708 L 228.333 148.333 224.611 148.333 L 220.888 148.333 220.277 149.014 C 219.941 149.388,219.666 149.631,219.665 149.555 C 219.663 149.479,219.363 149.739,218.998 150.132 C 218.632 150.526,218.333 150.794,218.333 150.728 C 218.333 150.662,218.021 150.903,217.640 151.262 C 217.259 151.622,216.661 152.187,216.311 152.518 C 215.961 152.849,215.646 153.090,215.611 153.055 C 215.576 153.020,215.274 153.293,214.940 153.663 C 214.606 154.032,214.333 154.281,214.333 154.217 C 214.333 154.105,214.049 154.359,212.395 155.950 C 211.994 156.336,211.667 156.598,211.667 156.534 C 211.667 156.470,211.329 156.780,210.917 157.223 C 210.504 157.666,210.164 157.965,210.161 157.889 C 210.158 157.813,210.008 157.927,209.828 158.143 C 209.500 158.536,209.500 158.530,209.500 153.435 L 209.500 148.333 206.684 148.333 C 204.300 148.333,203.854 148.373,203.770 148.591 C 203.716 148.732,203.672 153.870,203.671 160.007 L 203.671 171.167 206.586 171.167 L 209.500 171.167 209.500 166.230 C 209.500 161.860,209.529 161.316,209.750 161.500 C 209.887 161.614,210.000 161.672,210.000 161.628 C 210.000 161.584,210.394 161.922,210.875 162.379 C 212.551 163.970,212.872 164.248,212.744 164.000 C 212.674 163.862,212.909 164.061,213.266 164.442 C 213.624 164.822,214.329 165.485,214.833 165.915 C 215.338 166.345,216.017 166.933,216.344 167.223 C 216.671 167.513,217.294 168.050,217.729 168.417 C 218.521 169.084,219.549 170.011,220.335 170.765 L 220.754 171.167 227.960 171.167 C 234.255 171.167,235.167 171.135,235.167 170.917 C 235.167 170.779,235.233 170.667,235.314 170.667 C 235.395 170.667,235.505 170.535,235.559 170.375 C 235.664 170.062,236.019 169.470,236.184 169.333 C 236.335 169.207,237.157 167.791,237.272 167.458 C 237.327 167.298,237.433 167.167,237.508 167.167 C 237.583 167.167,237.692 167.017,237.750 166.833 C 237.854 166.506,238.002 166.500,245.402 166.500 L 252.948 166.500 253.262 167.083 C 253.434 167.404,253.634 167.667,253.705 167.667 C 253.775 167.667,253.833 167.779,253.833 167.917 C 253.833 168.054,253.891 168.167,253.960 168.167 C 254.088 168.167,254.389 168.661,254.596 169.208 C 254.656 169.369,254.772 169.500,254.853 169.500 C 254.934 169.500,255.000 169.606,255.000 169.736 C 255.000 169.866,255.056 169.997,255.125 170.028 C 255.194 170.058,255.376 170.308,255.531 170.583 L 255.812 171.083 259.156 171.128 C 262.727 171.177,262.953 171.120,262.267 170.346 C 262.138 170.202,261.827 169.708,261.575 169.250 C 261.323 168.792,261.071 168.379,261.015 168.333 C 260.959 168.287,260.766 167.969,260.586 167.625 C 260.405 167.281,260.200 167.000,260.129 167.000 C 260.058 167.000,260.000 166.913,260.000 166.807 C 260.000 166.701,259.813 166.369,259.583 166.069 C 259.354 165.768,259.167 165.478,259.167 165.424 C 259.167 165.263,257.772 163.088,257.630 163.028 C 257.559 162.997,257.500 162.892,257.500 162.794 C 257.500 162.695,257.313 162.369,257.083 162.069 C 256.854 161.768,256.667 161.468,256.667 161.402 C 256.667 161.336,256.479 161.036,256.250 160.735 C 256.021 160.435,255.833 160.109,255.833 160.011 C 255.833 159.913,255.766 159.833,255.685 159.833 C 255.603 159.833,255.489 159.646,255.432 159.417 C 255.374 159.188,255.253 159.000,255.163 159.000 C 255.074 159.000,255.000 158.913,255.000 158.807 C 255.000 158.701,254.813 158.369,254.583 158.069 C 254.354 157.768,254.167 157.468,254.167 157.402 C 254.167 157.336,253.979 157.036,253.750 156.735 C 253.521 156.435,253.333 156.109,253.333 156.011 C 253.333 155.913,253.258 155.833,253.167 155.833 C 253.075 155.833,253.000 155.726,253.000 155.595 C 253.000 155.464,252.906 155.258,252.791 155.137 C 252.676 155.016,252.434 154.635,252.253 154.292 C 252.072 153.948,251.866 153.667,251.795 153.667 C 251.725 153.667,251.667 153.554,251.667 153.417 C 251.667 153.279,251.600 153.167,251.519 153.167 C 251.438 153.167,251.328 153.035,251.274 152.875 C 251.178 152.589,250.832 151.998,250.665 151.833 C 250.618 151.787,250.433 151.469,250.252 151.125 C 250.072 150.781,249.866 150.500,249.795 150.500 C 249.725 150.500,249.667 150.385,249.667 150.245 C 249.667 150.104,249.555 149.947,249.418 149.894 C 249.281 149.841,249.206 149.738,249.252 149.664 C 249.353 149.500,247.877 148.175,247.560 148.146 C 247.187 148.112,247.093 148.084,246.881 147.949 C 246.608 147.776,244.386 147.849,243.703 148.054 M140.000 159.742 L 140.000 171.167 142.816 171.167 C 146.186 171.167,145.833 171.617,145.833 167.320 C 145.833 163.893,145.910 163.539,146.500 164.250 C 146.614 164.387,146.811 164.500,146.937 164.500 C 147.063 164.500,147.167 164.563,147.167 164.640 C 147.167 164.773,147.937 165.213,148.214 165.238 C 148.287 165.245,148.399 165.327,148.464 165.421 C 148.618 165.641,149.500 166.203,149.500 166.081 C 149.500 166.029,149.664 166.140,149.865 166.327 C 150.065 166.514,150.328 166.667,150.448 166.667 C 150.568 166.667,150.667 166.725,150.667 166.795 C 150.667 166.866,150.948 167.072,151.292 167.252 C 151.635 167.433,151.954 167.626,152.000 167.682 C 152.115 167.822,152.888 168.237,153.048 168.244 C 153.120 168.247,153.232 168.327,153.298 168.422 C 153.464 168.662,155.073 169.667,155.292 169.667 C 155.391 169.667,155.497 169.723,155.528 169.792 C 155.558 169.860,156.013 170.198,156.539 170.542 L 157.495 171.167 162.414 171.167 C 167.653 171.167,168.296 171.052,166.726 170.396 C 166.392 170.256,166.011 170.035,165.880 169.904 C 165.750 169.774,165.542 169.667,165.419 169.667 C 165.295 169.667,165.169 169.608,165.139 169.535 C 165.064 169.359,163.500 168.458,163.500 168.591 C 163.500 168.649,163.269 168.502,162.987 168.265 C 162.705 168.028,162.368 167.833,162.237 167.833 C 162.107 167.833,162.000 167.767,162.000 167.687 C 162.000 167.606,161.756 167.442,161.458 167.321 C 161.160 167.201,160.879 167.052,160.833 166.990 C 160.787 166.928,160.337 166.656,159.833 166.387 C 159.329 166.117,158.594 165.692,158.200 165.441 C 157.806 165.190,157.281 164.896,157.033 164.786 C 156.786 164.677,156.484 164.492,156.362 164.375 C 156.240 164.259,156.076 164.203,155.998 164.251 C 155.920 164.299,155.815 164.272,155.765 164.191 C 155.715 164.110,156.843 164.002,158.295 163.950 C 160.797 163.860,161.567 163.787,162.500 163.553 C 162.729 163.495,163.015 163.428,163.136 163.404 C 164.108 163.208,166.167 161.684,166.167 161.160 C 166.167 161.072,166.242 161.000,166.333 161.000 C 166.425 161.000,166.500 160.869,166.501 160.708 C 166.502 160.548,166.629 160.192,166.785 159.917 C 167.150 159.273,167.228 152.994,166.875 152.642 C 166.760 152.527,166.667 152.261,166.667 152.050 C 166.667 151.839,166.587 151.667,166.490 151.667 C 166.393 151.667,166.356 151.598,166.408 151.514 C 166.587 151.225,165.414 149.952,164.545 149.490 C 162.588 148.452,162.747 148.465,150.542 148.386 L 140.000 148.317 140.000 159.742 M262.668 148.542 C 262.668 148.656,262.661 152.500,262.652 157.083 C 262.633 166.894,262.728 167.727,264.049 169.280 C 264.559 169.879,265.678 170.679,265.854 170.570 C 265.934 170.521,266.000 170.550,266.000 170.635 C 266.000 171.103,267.566 171.177,276.500 171.131 L 285.583 171.083 285.630 168.792 L 285.676 166.500 279.130 166.493 C 269.726 166.483,268.565 166.274,268.479 164.578 C 268.468 164.352,268.440 164.092,268.417 164.000 C 268.394 163.908,268.366 160.346,268.354 156.083 L 268.333 148.333 265.500 148.333 C 263.344 148.333,262.667 148.383,262.668 148.542 M292.750 148.588 C 291.322 148.891,290.121 149.304,289.973 149.544 C 289.903 149.657,289.783 149.750,289.707 149.750 C 289.406 149.750,288.356 150.960,288.027 151.687 C 287.389 153.095,287.341 153.734,287.379 160.333 L 287.417 166.750 287.912 167.833 C 288.185 168.429,288.497 169.009,288.606 169.122 C 288.714 169.235,288.829 169.385,288.860 169.455 C 288.984 169.736,290.038 170.496,290.181 170.408 C 290.265 170.356,290.333 170.398,290.333 170.500 C 290.333 170.602,290.408 170.640,290.500 170.583 C 290.592 170.527,290.667 170.541,290.667 170.616 C 290.667 171.095,292.149 171.167,302.081 171.167 L 312.167 171.167 312.167 168.833 L 312.167 166.500 303.875 166.476 C 294.196 166.449,294.638 166.471,293.916 165.976 C 293.270 165.533,293.000 164.733,293.000 163.260 L 293.000 162.333 302.482 162.333 C 310.442 162.333,311.979 162.296,312.054 162.101 C 312.170 161.798,312.170 158.036,312.054 157.733 C 311.979 157.537,310.442 157.500,302.482 157.500 L 293.000 157.500 293.001 156.625 C 293.004 153.777,293.702 153.375,298.700 153.341 C 300.336 153.329,301.780 153.279,301.910 153.229 C 302.150 153.137,302.272 149.134,302.052 148.562 C 301.930 148.245,294.271 148.266,292.750 148.588 M160.343 153.712 C 161.667 154.372,161.769 157.767,160.500 158.917 C 160.146 159.237,159.857 159.252,152.983 159.301 L 145.833 159.353 145.833 156.332 L 145.833 153.312 152.792 153.364 C 159.053 153.411,159.809 153.446,160.343 153.712 M185.988 155.569 C 186.210 155.989,186.454 156.333,186.530 156.333 C 186.605 156.333,186.667 156.435,186.667 156.558 C 186.667 156.682,186.874 157.076,187.127 157.433 C 187.380 157.791,187.735 158.365,187.915 158.708 C 188.095 159.052,188.292 159.333,188.352 159.333 C 188.412 159.333,188.509 159.465,188.567 159.625 C 188.693 159.974,188.954 160.410,189.453 161.106 C 189.983 161.844,190.044 161.833,185.139 161.833 C 180.503 161.833,180.176 161.781,180.921 161.163 C 181.060 161.047,181.138 160.915,181.092 160.870 C 181.047 160.824,181.202 160.558,181.438 160.278 C 181.673 159.998,181.934 159.615,182.016 159.426 C 182.203 159.000,182.519 158.501,182.792 158.203 C 182.906 158.078,183.000 157.875,183.000 157.752 C 183.000 157.629,183.059 157.503,183.132 157.472 C 183.290 157.405,184.365 155.667,184.248 155.667 C 184.203 155.667,184.317 155.517,184.500 155.333 C 184.683 155.150,184.833 154.922,184.833 154.826 C 184.833 154.731,184.925 154.554,185.038 154.433 C 185.265 154.191,185.247 154.170,185.988 155.569 M122.203 155.324 C 122.315 155.456,122.424 155.680,122.444 155.821 C 122.465 155.962,122.561 156.104,122.658 156.136 C 122.754 156.168,122.833 156.292,122.833 156.410 C 122.833 156.529,122.939 156.713,123.068 156.821 C 123.197 156.928,123.424 157.256,123.573 157.549 C 123.721 157.843,123.934 158.233,124.046 158.415 C 124.916 159.832,125.431 160.601,125.578 160.706 C 125.672 160.773,125.689 160.829,125.616 160.831 C 125.542 160.832,125.598 161.000,125.741 161.204 C 125.883 161.407,126.000 161.632,126.000 161.704 C 126.000 161.902,117.039 161.865,116.917 161.667 C 116.860 161.575,116.874 161.500,116.948 161.500 C 117.086 161.500,118.073 159.858,118.080 159.619 C 118.082 159.547,118.166 159.434,118.267 159.369 C 118.452 159.249,119.003 158.347,119.687 157.042 C 119.892 156.652,120.112 156.333,120.177 156.333 C 120.241 156.333,120.340 156.202,120.395 156.042 C 120.451 155.881,120.646 155.525,120.830 155.250 C 121.013 154.975,121.214 154.645,121.276 154.516 C 121.363 154.334,121.457 154.372,121.694 154.683 C 121.862 154.903,122.091 155.192,122.203 155.324 M246.104 155.375 C 246.450 155.948,246.793 156.442,246.866 156.472 C 246.940 156.503,247.000 156.605,247.000 156.700 C 247.000 156.869,248.475 159.337,248.673 159.500 C 248.729 159.546,248.825 159.696,248.886 159.833 C 249.023 160.139,249.321 160.616,249.708 161.146 C 249.869 161.365,250.000 161.610,250.000 161.689 C 250.000 161.768,247.933 161.833,245.406 161.833 L 240.812 161.833 241.196 161.125 C 241.407 160.735,241.750 160.185,241.957 159.901 C 242.164 159.617,242.333 159.305,242.333 159.206 C 242.333 159.108,242.412 159.001,242.509 158.969 C 242.606 158.937,242.705 158.775,242.729 158.609 C 242.754 158.443,242.847 158.256,242.937 158.195 C 243.153 158.047,244.167 156.374,244.167 156.164 C 244.167 156.074,244.240 156.000,244.330 156.000 C 244.420 156.000,244.541 155.813,244.598 155.583 C 244.656 155.354,244.758 155.167,244.825 155.167 C 244.892 155.167,245.032 154.979,245.136 154.750 C 245.392 154.190,245.388 154.187,246.104 155.375 " stroke="none" fill="#4c4c4c" fill-rule="evenodd"></path><path id="path3" d="M172.802 62.125 C 174.206 62.153,176.456 62.153,177.802 62.125 C 179.148 62.097,178.000 62.074,175.250 62.074 C 172.500 62.074,171.398 62.097,172.802 62.125 M252.375 70.786 C 252.627 70.824,253.040 70.824,253.292 70.786 C 253.544 70.748,253.338 70.717,252.833 70.717 C 252.329 70.717,252.123 70.748,252.375 70.786 M299.243 130.833 C 299.243 134.729,299.265 136.323,299.291 134.375 C 299.318 132.427,299.318 129.240,299.291 127.292 C 299.265 125.344,299.243 126.938,299.243 130.833 M214.053 127.292 C 216.512 127.318,220.487 127.318,222.887 127.292 C 225.287 127.266,223.275 127.244,218.417 127.244 C 213.558 127.244,211.595 127.266,214.053 127.292 M160.875 131.791 C 162.044 131.820,163.956 131.820,165.125 131.791 C 166.294 131.763,165.337 131.739,163.000 131.739 C 160.662 131.739,159.706 131.763,160.875 131.791 M85.574 153.583 C 85.574 156.242,85.597 157.306,85.625 155.948 C 85.653 154.590,85.653 152.415,85.625 151.115 C 85.596 149.814,85.573 150.925,85.574 153.583 M262.577 156.333 C 262.577 160.504,262.598 162.210,262.625 160.125 C 262.651 158.040,262.651 154.627,262.625 152.542 C 262.598 150.456,262.577 152.162,262.577 156.333 M85.574 166.167 C 85.574 168.871,85.597 169.977,85.625 168.625 C 85.653 167.273,85.653 165.060,85.625 163.708 C 85.597 162.356,85.574 163.462,85.574 166.167 M116.978 161.711 C 117.048 161.781,119.126 161.819,121.594 161.794 L 126.083 161.750 121.466 161.666 C 118.927 161.621,116.907 161.641,116.978 161.711 M185.167 161.667 L 180.583 161.758 185.115 161.796 C 187.998 161.820,189.684 161.773,189.750 161.667 C 189.807 161.575,189.830 161.517,189.802 161.538 C 189.773 161.558,187.688 161.616,185.167 161.667 M243.135 161.791 C 244.447 161.820,246.547 161.819,247.802 161.791 C 249.057 161.763,247.983 161.740,245.417 161.740 C 242.850 161.740,241.823 161.763,243.135 161.791 " stroke="none" fill="#348064" fill-rule="evenodd"></path><path id="path4" d="M204.681 15.208 C 204.719 15.231,204.975 15.438,205.250 15.667 L 205.750 16.083 205.346 15.625 C 205.124 15.373,204.867 15.167,204.777 15.167 C 204.686 15.167,204.642 15.185,204.681 15.208 M182.208 47.782 C 182.369 47.823,182.631 47.823,182.792 47.782 C 182.952 47.740,182.821 47.705,182.500 47.705 C 182.179 47.705,182.048 47.740,182.208 47.782 M185.208 47.782 C 185.369 47.823,185.631 47.823,185.792 47.782 C 185.952 47.740,185.821 47.705,185.500 47.705 C 185.179 47.705,185.048 47.740,185.208 47.782 M169.294 62.118 C 169.501 62.158,169.801 62.156,169.960 62.115 C 170.120 62.073,169.950 62.040,169.583 62.042 C 169.217 62.044,169.086 62.078,169.294 62.118 M180.958 62.122 C 181.348 62.157,181.985 62.157,182.375 62.122 C 182.765 62.087,182.446 62.058,181.667 62.058 C 180.887 62.058,180.569 62.087,180.958 62.122 M115.991 76.292 L 115.417 76.917 116.042 76.342 C 116.623 75.808,116.743 75.667,116.616 75.667 C 116.588 75.667,116.307 75.948,115.991 76.292 M146.709 88.750 C 146.711 89.117,146.745 89.247,146.785 89.040 C 146.824 88.832,146.823 88.532,146.781 88.373 C 146.739 88.214,146.707 88.383,146.709 88.750 M142.739 124.000 C 142.739 126.429,142.763 127.423,142.791 126.208 C 142.820 124.994,142.820 123.006,142.791 121.792 C 142.763 120.577,142.739 121.571,142.739 124.000 " stroke="none" fill="#346cd4" fill-rule="evenodd"></path></g></svg>