<?xml version="1.0" encoding="UTF-8" standalone="no"?>
<!-- Created with Inkscape (http://www.inkscape.org/) -->

<svg
   width="483.6759mm"
   height="289.13223mm"
   viewBox="0 0 483.6759 289.13223"
   version="1.1"
   id="svg5"
   inkscape:version="1.1 (c68e22c387, 2021-05-23)"
   sodipodi:docname="TUV_NORD_PARTNER_WEISS.svg"
   xmlns:inkscape="http://www.inkscape.org/namespaces/inkscape"
   xmlns:sodipodi="http://sodipodi.sourceforge.net/DTD/sodipodi-0.dtd"
   xmlns="http://www.w3.org/2000/svg"
   xmlns:svg="http://www.w3.org/2000/svg">
  <sodipodi:namedview
     id="namedview7"
     pagecolor="#505050"
     bordercolor="#eeeeee"
     borderopacity="1"
     inkscape:pageshadow="0"
     inkscape:pageopacity="0"
     inkscape:pagecheckerboard="0"
     inkscape:document-units="mm"
     showgrid="false"
     inkscape:zoom="0.25953041"
     inkscape:cx="296.6897"
     inkscape:cy="552.92172"
     inkscape:window-width="1920"
     inkscape:window-height="1009"
     inkscape:window-x="-8"
     inkscape:window-y="-8"
     inkscape:window-maximized="1"
     inkscape:current-layer="layer1" />
  <defs
     id="defs2" />
  <g
     inkscape:label="Ebene 1"
     inkscape:groupmode="layer"
     id="layer1"
     transform="translate(158.47456,86.004572)">
    <path
       style="fill:#ffffff;stroke:none;stroke-width:0.264583"
       d="m 190.22246,-85.820672 c -10.18381,1.1654 -20.02102,2.37595 -29.87411,5.43746 -20.42318,6.34621 -38.32489,18.37115 -53.1786,33.59533 -7.926388,8.12668 -14.733058,17.76651 -20.052768,27.78125 -1.32186,2.48841 -2.95936,5.005917 -3.89943,7.672916 -0.42889,1.217084 -0.0471,2.7125087 1.46103,2.8212517 1.62137,0.116682 2.27833,-1.6319497 2.85062,-2.8212517 1.51977,-3.158331 3.2549,-6.281996 5.10275,-9.260416 7.463108,-12.03034 17.019588,-22.91397 28.293488,-31.51611 11.11779,-8.48312 23.48971,-15.28958 36.77708,-19.71913 31.41133,-10.47091 66.78613,-8.16279 96.04375,7.66067 8.82915,4.77554 17.24819,10.55166 24.60625,17.40437 23.50029,21.89057 37.95183,52.1901177 39.14775,84.37959 0.43921,11.788245 -0.9234,23.700845 -3.5216,35.188521 -3.22527,14.25628 -9.06463,28.260941 -17.52336,40.216671 -1.80181,2.54873 -4.21216,4.97416 -5.74675,7.67291 -0.69056,1.21629 -0.23812,2.91545 1.40229,2.84242 1.90765,-0.0847 3.50044,-3.09351 4.55348,-4.42992 3.80207,-4.82917 7.41627,-9.80598 10.58069,-15.08125 13.67631,-22.790411 20.01573,-48.639407 17.3646,-75.14166 -2.8575,-28.58320126 -15.59718,-55.469102 -35.41977,-76.200002 -9.76577,-10.21291 -21.58735,-18.60216 -34.12066,-25.06702 -9.64936,-4.97723 -20.11363,-8.42777 -30.69167,-10.76401 -8.41904,-1.85956 -17.04975,-2.79813 -25.66458,-2.79813 -2.80723,0 -5.69913,-0.19405 -8.49048,0.12554 M 115.89835,63.655549 c -3.36814,0.44344 -6.64104,1.03611 -9.78958,2.38204 -14.753688,6.30979 -23.941088,22.29432 -26.159088,37.722441 -1.59279,11.07916 -0.31935,25.08224 11.07784,30.62314 1.80922,0.87947 3.83567,1.51289 5.82083,1.84494 3.520818,0.58949 7.042148,0.70088 10.583338,0.26458 21.44448,-2.64213 33.53858,-24.70996 35.40919,-44.374321 0.73554,-7.73933 -0.90753,-17.04367 -6.59342,-22.73062 -5.12233,-5.12287 -13.36146,-6.65242 -20.34911,-5.7322 m -269.34583,1.21073 -5.02708,21.43125 h 16.13958 l -8.70063,37.306251 -2.04846,8.73125 -0.19987,3.15436 1.95313,0.27199 4.49792,0.0132 h 17.19791 l 3.14431,-12.7 5.75919,-23.812501 2.30769,-9.52499 1.3044,-3.43218 2.56566,-0.27199 h 6.08542 23.018752 l 5.02708,-21.16667 h -73.025002 m 76.464582,21.16667 h 13.75834 c 1.42266,0 4.25106,-0.5379 5.47237,0.27199 0.80434,0.5334 0.82471,2.04126 0.97976,2.90301 0.50641,2.81437 0.94879,5.64488 1.42001,8.46666 1.56184,9.352761 3.12368,18.727741 4.87972,28.045841 0.43047,2.28388 0.74612,4.59105 1.15887,6.87916 0.15134,0.84032 0.1397,2.11799 0.79719,2.75088 1.08691,1.04616 4.50797,0.42412 5.92958,0.42412 5.5065,0 11.18235,-0.39925 16.66875,0 l 5.35702,-10.58333 11.3770804,-23.01875 12.1711,-24.606251 6.28438,-12.7 h -17.99167 -5.0270804 l -2.277,0.15955 -1.46685,2.48629 -2.83105,6.87916 -7.87214,19.05 -3.80921,9.525001 h -0.26458 l -1.63222,-16.404161 -2.07195,-21.69584 h -26.45833 -6.87917 l -2.7178,0.27199 -1.48484,5.28426 -3.47028,15.61042 m 101.86459,-21.16667 -4.66355,18.78542 -8.27035,32.808331 -3.1720796,12.43542 -1.62111,6.87916 H 23.029602 l 5.97403,-0.32517 1.07077,-2.58524 1.65576,-6.61459 5.10937,-20.90208 0.74216,-5.556251 c 1.07447,2.497401 1.5613,5.322361 2.30452,7.937501 1.701,5.98699 3.28639,12.00653 4.99242,17.99167 0.62759,2.2016 1.23799,4.40875 1.85129,6.61458 0.25612,0.92101 0.35533,2.29235 1.09193,2.97868 0.97579,0.90911 3.34487,0.4609 4.5765,0.4609 h 12.7 c 1.30599,0 4.10263,0.5215 4.85564,-0.85487 1.03399,-1.89071 1.31921,-4.72651 1.85684,-6.81804 1.26789,-4.93051 2.4556,-9.88166 3.70523,-14.81667 4.08331,-16.125031 7.82611,-32.406691 12.33646,-48.418751 h -16.13958 -3.96875 l -1.96745,0.27199 -0.90937,2.37385 -1.719,6.61458 -4.04309,16.13958 -1.67984,10.847921 h -0.26459 l -2.60588,-10.054141 -7.1837,-26.19375 H 24.881692 M 134.41919,135.51003 h 16.93333 4.23333 l 1.96057,-0.27199 0.68527,-1.84468 0.90487,-4.23333 3.85763,-18.52083 h 0.26458 c 0.30692,2.07354 1.19063,4.10077 1.85208,6.08541 1.36261,4.08596 2.86544,8.11557 4.31536,12.17084 0.53446,1.49886 1.07421,2.99482 1.59544,4.49791 0.23812,0.67972 0.46037,1.60391 1.07685,2.04814 1.06892,0.76968 3.40783,0.33311 4.65402,0.33311 h 11.90625 c 8.88206,0 17.86996,0.36539 26.72292,-0.24103 8.22854,-0.5633 16.0946,-1.50469 23.01875,-6.48679 10.21027,-7.34563 14.75316,-21.55481 16.59731,-33.488841 1.44462,-9.36096 -0.0873,-20.30122 -8.39523,-26.18237 -1.79387,-1.27027 -3.7465,-2.27886 -5.82083,-3.0025 -5.72029,-1.99495 -11.77132,-1.5068 -17.72709,-1.5068 h -10.84791 c -1.07421,0 -3.17765,-0.39872 -4.08517,0.27199 -0.87842,0.65009 -1.0451,2.94746 -1.3044,3.96135 -0.92868,3.60918 -1.71979,7.26281 -2.73579,10.84791 -2.8522,10.04914 -5.18318,20.291161 -7.71525,30.427081 -0.90752,3.62189 -1.87325,7.22578 -2.77812,10.84792 -0.45773,1.82563 -1.07156,3.67665 -1.22502,5.55625 l -2.87073,-6.08542 -6.12511,-12.17083 c 4.32065,-0.0921 8.54075,-3.10488 11.16542,-6.35 6.81038,-8.424861 6.71513,-21.592111 -0.39687,-29.897911 -3.19088,-3.72613 -8.01423,-6.52542 -12.88521,-7.29219 -2.05846,-0.32411 -4.26773,-0.11615 -6.35,-0.11615 h -11.64167 -7.9375 c -0.84137,0 -2.29129,-0.26749 -2.92894,0.42413 -1.0795,1.17422 -1.28587,4.13623 -1.66687,5.66129 l -3.43958,13.75833 c -4.23069,16.920901 -8.14653,34.011131 -12.86669,50.800001 M 116.16294,81.469679 c 4.78631,0.33946 4.9821,6.56061 4.73869,10.11952 -0.48684,7.11517 -2.286,15.581311 -6.08013,21.695831 -1.89177,3.05065 -4.80219,5.97694 -8.71273,5.50704 -4.98792,-0.59902 -5.08185,-6.97336 -4.71752,-10.79871 0.65484,-6.87678 2.25875,-14.624311 5.7785,-20.637491 1.97908,-3.37926 4.7969,-6.18385 8.99319,-5.88619 m 51.32916,12.23619 c 0.0635,-1.45177 0.47625,-2.82919 0.82815,-4.23334 0.34131,-1.36816 0.35983,-4.05818 1.28588,-5.13212 0.4392,-0.51012 1.25147,-0.41989 1.85472,-0.42386 1.63513,-0.0106 3.25173,0.0339 4.42384,1.35122 2.69875,3.03133 -0.21431,7.06438 -3.3655,8.14494 -1.5584,0.53446 -3.40254,0.29316 -5.02709,0.29316 m 50.00625,22.754161 3.2094,-12.96458 4.99269,-19.579171 c 1.53987,0.24871 3.11679,0.40852 4.49791,1.19909 4.8604,2.78157 3.36815,9.45039 2.3495,13.88216 -1.40229,6.106061 -3.048,14.419531 -9.75783,16.788341 -1.68804,0.59611 -3.5216,0.6739 -5.29167,0.67416 M -106.88081,90.001699 c -1.58883,7.70228 -3.49171,15.386841 -5.39036,23.018751 -1.03875,4.17539 -2.70589,8.68045 -1.47823,12.96458 4.36192,15.22042 24.225782,15.43817 36.237342,10.27906 3.09906,-1.33138 6.15447,-3.22342 8.3902,-5.78141 4.09601,-4.68683 4.96914,-10.26768 6.21771,-16.13932 1.71582,-8.06952 3.00381,-16.401521 5.23584,-24.341661 h -14.81667 c -1.39435,0 -4.51617,-0.58314 -5.67161,0.27199 -0.59981,0.44397 -0.64214,1.44224 -0.79057,2.10926 -0.35428,1.59094 -0.7538,3.17368 -1.1184,4.7625 -1.01282,4.412721 -2.02221,8.832581 -3.10171,13.229161 -0.45191,1.84045 -0.58367,4.22355 -1.67455,5.81687 -1.60205,2.34024 -7.28212,2.84453 -7.30382,-1.05437 -0.005,-0.95276 0.41487,-1.99257 0.64426,-2.91041 0.46117,-1.84732 0.86149,-3.7084 1.32292,-5.55625 1.38007,-5.52768 2.78394,-11.088691 3.93515,-16.668751 h -20.637502 m 144.462502,9.26041 -0.26459,0.26459 0.26459,-0.26459 m 52.65208,70.908341 -4.08093,19.57916 -2.53365,12.7 4.04071,-0.27252 1.0422,-3.43165 1.79625,-9.26041 c 5.48323,0 12.597348,1.02658 17.462498,-2.03994 5.0165,-3.16177 6.74423,-12.26635 1.05834,-15.75038 -2.55323,-1.56369 -5.58112,-1.52426 -8.46667,-1.52426 H 90.233772 m 77.787498,2.11666 -0.89958,4.7625 -0.80169,1.84415 -3.5904,0.27252 -0.52916,3.43958 h 3.70416 c -0.50006,3.70681 -1.46314,7.46125 -2.28864,11.1125 -0.42863,1.89971 -1.19592,4.12486 -0.7964,6.08542 0.508,2.47914 3.07446,2.91041 5.20171,2.91041 0.72761,0 1.65894,0.10848 2.29923,-0.3122 0.94192,-0.61913 0.89429,-2.39448 1.14035,-3.39196 -1.33879,0.10583 -3.09297,0.68262 -4.07458,-0.59002 -0.889,-1.15623 -0.0952,-3.16707 0.15875,-4.43707 0.75671,-3.77824 1.83356,-7.55385 2.32833,-11.37708 h 4.7625 l 0.52917,-3.43958 h -4.49792 l 1.32292,-6.87917 h -3.96875 m -76.464578,13.22917 c 0.21696,-2.65642 1.04643,-5.32871 1.5867,-7.9375 0.195,-0.94192 0.20479,-2.51778 0.83794,-3.28004 0.64452,-0.77549 2.5019,-0.42413 3.39619,-0.42413 2.854588,0 7.551468,-0.81782 9.641418,1.63724 2.90777,3.41366 0.3466,9.18687 -3.82059,9.91712 -3.677168,0.64558 -7.908128,0.0873 -11.641658,0.0873 m 25.664578,0.79375 h 3.96875 c 0.63236,-3.26761 4.11692,-4.55083 7.14375,-4.18571 2.09815,0.25665 4.22011,1.86002 3.36815,4.18042 -0.83344,2.27012 -4.0005,2.28335 -6.01398,2.39712 -3.63009,0.20109 -8.55134,0.72231 -10.55952,4.22275 -2.14313,3.73063 -0.2249,8.7974 3.94493,9.81604 3.87086,0.94457 7.55121,-0.19314 10.31875,-2.93687 0.0185,0.7276 0.0185,1.4605 0.46038,2.08227 0.8599,1.20121 3.51631,1.58485 4.67519,0.57944 0.73818,-0.63765 0.66675,-2.04259 0.68527,-2.9263 -2.98186,0.61913 -1.86267,-2.75695 -1.47638,-4.49791 0.55034,-2.47386 1.14829,-4.93713 1.70921,-7.40833 0.50271,-2.21721 0.87313,-4.66461 -0.64558,-6.604 -1.49225,-1.905 -4.18571,-2.38125 -6.46642,-2.39184 -5.04031,-0.0241 -10.59921,1.80711 -11.1125,7.67292 m 31.75,-2.91042 h -0.26458 l 0.79375,-4.23333 h -3.70417 l -4.7625,23.28333 h 3.96875 c 0.55033,-2.83369 1.19592,-5.64356 1.79652,-8.46667 0.57415,-2.6961 1.01071,-5.39485 2.68288,-7.67291 1.08743,-1.48167 2.68287,-2.87602 4.51643,-3.29936 0.93134,-0.21431 2.47121,0.20109 3.2438,-0.41275 0.87577,-0.6932 0.94456,-2.93158 0.98954,-3.96081 -3.84175,0 -7.35542,1.08744 -9.26042,4.7625 m 36.24792,-1.32291 0.52916,-2.91042 h -3.96875 l -4.7625,23.28333 h 3.96875 c 0.635,-3.27025 1.35467,-6.52462 2.01084,-9.78958 0.57414,-2.84956 1.13241,-5.79438 3.29141,-7.91369 2.10873,-2.06904 6.85271,-4.31271 9.05405,-1.05833 1.00806,1.49489 0.26193,3.92906 -0.10055,5.53244 -0.99747,4.39737 -1.9685,8.81327 -2.87866,13.22916 h 3.96875 c 0.80169,-3.88408 1.64306,-7.76817 2.49237,-11.64166 0.56092,-2.54794 1.32292,-5.31019 0.8599,-7.9375 -0.90752,-5.16176 -7.92956,-5.02074 -11.55436,-3.03742 -1.09008,0.59531 -2.01612,1.39171 -2.91041,2.24367 m 40.74583,12.96458 c -1.01865,0 -2.43417,-0.24871 -3.38402,0.15875 -1.28588,0.55562 -1.99496,2.43946 -3.23056,3.25173 -3.23057,2.1246 -8.24442,1.01864 -9.56469,-2.88132 -0.36248,-1.07685 -0.2249,-2.31774 -0.2249,-3.43958 h 8.99584 5.82083 c 0.71967,0 1.87854,0.20109 2.48708,-0.27252 0.80434,-0.62442 0.70115,-2.52677 0.68263,-3.43164 -0.0661,-3.36286 -1.25148,-7.1808 -4.49263,-8.75242 -11.2051,-5.43851 -21.89162,9.50912 -16.04698,19.33575 4.2545,7.15169 18.11338,4.45029 18.9574,-3.96875 m 14.02292,-11.37708 h -0.26459 l 1.05834,-4.49792 -3.70682,0.42333 -0.58208,1.95792 -1.00277,4.7625 -3.43958,16.13958 c 1.00012,0 2.94746,0.37306 3.7756,-0.27252 1.016,-0.7911 1.07421,-3.56129 1.34408,-4.75456 0.85461,-3.78354 1.13771,-8.27881 3.69888,-11.37708 1.09802,-1.33086 2.45798,-2.48709 4.14602,-2.96598 0.97102,-0.27782 2.73844,0.16139 3.45546,-0.63236 0.74348,-0.82285 0.82285,-2.74902 1.04246,-3.81 -3.93965,0 -7.82109,1.00542 -9.525,5.02709 m -54.76875,-1.5875 -0.26459,0.26458 0.26459,-0.26458 m 38.36458,6.35 H 210.3546 c 0.90752,-5.09059 9.04346,-9.47473 12.43277,-3.96875 0.74084,1.2012 0.79375,2.6035 0.7964,3.96875 m -92.86875,2.38125 c -0.0661,1.53458 -0.43921,3.10091 -1.09008,4.49791 -1.55575,3.32581 -7.27869,6.26004 -10.4484,3.07181 -1.37319,-1.38377 -1.02129,-3.75973 0.47625,-4.89479 1.19327,-0.90487 2.73844,-1.15093 4.18306,-1.35202 2.3495,-0.32544 4.572,-0.79375 6.87917,-1.32291 z"
       id="path962" />
  </g>
</svg>
