<?xml version="1.0" encoding="UTF-8" standalone="no"?>
<!-- Created with Inkscape (http://www.inkscape.org/) -->

<svg
   width="264.5549mm"
   height="264.52863mm"
   viewBox="0 0 264.5549 264.52863"
   version="1.1"
   id="svg128"
   inkscape:version="1.1 (c68e22c387, 2021-05-23)"
   xmlns:inkscape="http://www.inkscape.org/namespaces/inkscape"
   xmlns:sodipodi="http://sodipodi.sourceforge.net/DTD/sodipodi-0.dtd"
   xmlns="http://www.w3.org/2000/svg"
   xmlns:svg="http://www.w3.org/2000/svg">
  <sodipodi:namedview
     id="namedview130"
     pagecolor="#505050"
     bordercolor="#eeeeee"
     borderopacity="1"
     inkscape:pageshadow="0"
     inkscape:pageopacity="0"
     inkscape:pagecheckerboard="0"
     inkscape:document-units="mm"
     showgrid="false"
     fit-margin-top="0"
     fit-margin-left="0"
     fit-margin-right="0"
     fit-margin-bottom="0"
     inkscape:zoom="0.36703143"
     inkscape:cx="440.01682"
     inkscape:cy="668.88005"
     inkscape:window-width="1920"
     inkscape:window-height="1009"
     inkscape:window-x="-8"
     inkscape:window-y="-8"
     inkscape:window-maximized="1"
     inkscape:current-layer="layer1" />
  <defs
     id="defs125" />
  <g
     inkscape:label="Ebene 1"
     inkscape:groupmode="layer"
     id="layer1"
     transform="translate(145.97406,-24.525742)">
    <g
       id="g172"
       transform="matrix(0.26458333,0,0,0.26458333,-145.97602,24.523941)"
       style="fill:#0038e3;fill-opacity:1">
	<path
   class="st0"
   d="M 480.8,999.8 C 474.4,999.2 468,998.5 461.6,998 390.8,992.7 324.1,973.2 261.8,939.3 183.7,896.9 121.2,837.7 74.4,762.1 33.1,695.4 9,622.8 2.1,544.7 -6.8,444.6 12.7,350.1 60.4,261.6 102.7,183.3 162.2,120.8 238,74 306.3,31.8 380.8,7.8 461,1.6 c 97.9,-7.6 190.3,12 276.6,58.6 78.4,42.2 141,101.7 187.8,177.5 42.4,68.7 66.5,143.4 72.7,223.9 0.5,6.4 1.2,12.8 1.8,19.2 0,12.7 0,25.3 0,38 -0.6,6.6 -1.3,13.1 -1.8,19.7 -6.2,80.1 -30.2,154.6 -72.3,222.9 -47,76.2 -109.9,135.8 -188.8,178.4 -61.8,33.4 -127.8,52.7 -197.8,58.2 -6.4,0.5 -12.8,1.2 -19.2,1.8 -13.2,0 -26.2,0 -39.2,0 z M 846.5,288.2 c 21.2,-12.3 42.2,-24.4 63.7,-36.8 C 869,184.3 815.3,130.5 748.2,89.5 735.7,111.1 723.6,132 711.4,153.2 649.1,115.5 582,96.1 509.6,94 c 0,-25 0,-49.4 0,-74 -6.7,0 -12.9,0 -19.6,0 0,24.8 0,49.2 0,74 -72.5,2.1 -139.6,21.6 -201.7,59.1 -12.3,-21.2 -24.4,-42.2 -36.8,-63.7 -67.1,41.1 -120.9,94.9 -161.9,161.9 21.6,12.5 42.5,24.6 63.7,36.8 -3.5,6 -6.6,11.4 -10,17.2 C 122,293 101,280.9 79.6,268.6 41.9,337.9 22.2,411.3 20.3,490 c 24.9,0 49,0 73.3,0 0,6.7 0,12.9 0,19.8 -24.5,0 -48.7,0 -73.3,0 2.1,78.8 21.7,152.1 59.3,221 21.5,-12.4 42.5,-24.5 63.7,-36.7 3.4,6 6.6,11.6 9.9,17.3 -21.5,12.4 -42.4,24.5 -63.6,36.8 41.3,67.2 95,120.9 161.9,161.9 12.5,-21.6 24.6,-42.5 36.8,-63.7 6,3.5 11.4,6.6 17.2,10 -12.3,21.3 -24.4,42.3 -36.7,63.7 69.2,37.6 142.6,57.2 221.4,59.3 0,-25 0,-49.1 0,-73.3 6.7,0 12.9,0 19.8,0 0,24.5 0,48.7 0,73.4 78.9,-2.2 152.3,-21.7 221,-59.3 -12.5,-21.7 -24.5,-42.5 -36.7,-63.7 6,-3.4 11.6,-6.6 17.3,-9.9 12.4,21.4 24.4,42.3 36.8,63.6 67.1,-41.1 120.9,-94.9 161.9,-161.9 -21.6,-12.5 -42.5,-24.6 -63.7,-36.8 3.5,-6 6.7,-11.4 10,-17.2 21.3,12.3 42.3,24.4 63.6,36.7 28,-51 45.9,-104.9 54.4,-161.9 2.9,-19.5 4.8,-39.1 4.8,-59.4 -24.8,0 -48.9,0 -73.1,0 0,-6.7 0,-12.9 0,-19.8 24.5,0 48.7,0 73.4,0 -2.2,-78.8 -21.7,-152.1 -59.3,-221 -21.5,12.4 -42.5,24.5 -63.7,36.7 -3.7,-6.2 -6.9,-11.6 -10.2,-17.4 z"
   id="path134"
   style="fill:#0038e3;fill-opacity:1" />

	<path
   class="st0"
   d="m 616.8,316.9 c -12.5,21.6 -24.7,42.8 -37.2,64.5 14.9,10.5 27.8,23.1 38.3,38.6 21.5,-12.4 42.9,-24.7 64.7,-37.3 3.3,5.7 6.6,11.2 10.1,17.2 -21.7,12.5 -43,24.8 -63.9,37 3.1,9 6.5,17.3 8.8,25.9 2.3,8.6 3.6,17.6 5.4,26.9 24,0 48.4,0 73.3,0 0,6.7 0,13 0,19.7 -24.5,0 -48.9,0 -73.8,0 -1.8,18.6 -6.1,36.1 -14.4,52.9 21.6,12.4 42.8,24.7 64.5,37.3 -3.4,5.9 -6.5,11.3 -10,17.2 -21.7,-12.5 -43,-24.7 -64.7,-37.2 -10.6,15 -23.1,27.9 -38.5,38.3 12.5,21.6 24.7,42.9 37.3,64.7 -5.7,3.3 -11.1,6.5 -17.2,10.1 -12.4,-21.5 -24.7,-42.8 -37.2,-64.5 -16.7,8 -34.1,12.6 -52.8,14.2 0,24.7 0,49.2 0,73.9 -6.7,0 -12.9,0 -19.7,0 0,-24.7 0,-49.1 0,-73.9 -18.5,-1.7 -35.8,-6.1 -52.8,-14.4 -12.4,21.4 -24.7,42.7 -37.3,64.5 -5.8,-3.3 -11.3,-6.5 -17.2,-9.9 12.5,-21.7 24.8,-43 37.3,-64.7 -15.1,-10.5 -27.9,-23.2 -38.4,-38.5 -21.6,12.5 -42.9,24.7 -64.6,37.3 -3.4,-5.7 -6.5,-11.2 -10.1,-17.2 21.5,-12.4 42.8,-24.7 64.4,-37.2 -7.9,-16.7 -12.6,-34.1 -14.2,-52.8 -24.8,0 -49.2,0 -74,0 0,-6.7 0,-13 0,-19.7 24.8,0 49.2,0 74,0 1.7,-18.5 6.1,-35.8 14.3,-52.7 -21.4,-12.4 -42.7,-24.7 -64.5,-37.3 3.4,-5.9 6.6,-11.4 10,-17.2 21.8,12.6 43.1,24.9 64.7,37.3 10.5,-15.1 23,-27.8 38.5,-38.4 -12.4,-21.4 -24.6,-42.7 -37.3,-64.6 32.5,-20.7 67.9,-31.8 106.8,-33.9 0,24.4 0,48.6 0,73.3 6.8,0 13,0 20,0 0,-24.2 0,-48.6 0,-73.3 39.4,2 74.7,13.1 107.4,33.9 z M 376.7,499.6 c 0,67.4 55.2,123.1 122,123.2 68.4,0.1 124.1,-54.9 124.1,-122.7 0,-67.8 -55.3,-123.5 -122.8,-123.5 -67.8,0.1 -123.3,55.4 -123.3,123 z"
   id="path136"
   style="fill:#0038e3;fill-opacity:1" />

	<path
   class="st0"
   d="m 765.4,674.6 c -22.6,8.7 -40.2,-7.1 -44.4,-21.1 -5.6,-18.9 5.3,-39.2 24.1,-44.8 19.3,-5.7 36.5,5.2 42.9,27.8 10.5,-3.2 20.6,-2.3 29.5,4.8 6.4,5.1 10.5,11.6 12.1,19.6 3.2,16.2 -6.5,32.7 -21.8,37.6 -18.3,5.8 -32.1,-1.9 -42.4,-23.9 z m -11.3,-13.7 c 10.1,0.1 18.5,-8.1 18.7,-18.3 0.2,-9.9 -7.9,-18.3 -17.8,-18.5 -9.9,-0.1 -18.5,8.3 -18.7,18.4 -0.2,10.1 7.8,18.3 17.8,18.4 z M 797,650.7 c -8.7,-0.1 -16.3,7.5 -16.5,16.6 -0.2,8.7 7.5,16.3 16.7,16.5 8.5,0.2 16.3,-7.8 16.5,-16.7 0.2,-8.7 -7.6,-16.3 -16.7,-16.4 z"
   id="path138"
   style="fill:#0038e3;fill-opacity:1" />

	<path
   class="st0"
   d="m 798.9,520 c -0.8,-7.1 -2.1,-13.7 -2.3,-20.2 -0.4,-16.9 8.1,-26.7 24.9,-28.3 7.9,-0.8 16,-0.7 23.9,0.3 16.3,2.1 26.8,15.8 26.4,33.5 -0.4,16.1 -12,29.7 -28,30.4 -20.3,0.9 -40.6,0.9 -60.9,0 -15.7,-0.7 -27.2,-14.2 -27.8,-30.2 -0.7,-16.9 9.5,-30.3 26.2,-33.6 0,5.2 0.2,10.3 -0.1,15.3 -0.1,1.1 -1.6,2.3 -2.8,3.1 -6.1,4.3 -7.6,10.4 -6.3,17.2 1.2,6.5 5.6,10.6 12.2,11.6 4.8,0.7 9.8,0.6 14.6,0.9 z m 34.2,-32.6 c 0,0.1 0,0.3 0,0.4 -2.8,0 -5.7,-0.3 -8.4,0.1 -8.2,1.2 -13.5,7.1 -13.7,15.2 -0.2,7.9 4.3,14.5 12.3,15.7 6.6,1 13.6,0.9 20.2,0 7.8,-1.2 12.2,-7.6 12,-15.4 -0.1,-7.9 -4.7,-13.6 -12.5,-15.2 -3.3,-0.7 -6.6,-0.5 -9.9,-0.8 z"
   id="path140"
   style="fill:#0038e3;fill-opacity:1" />

	<path
   class="st0"
   d="m 469,843.7 c 5.3,0 10.2,-0.2 15.1,0.1 1.1,0.1 2.4,1.5 3.2,2.6 4.2,5.8 10.3,8.1 17.6,6.5 6.4,-1.4 10.9,-6.2 11.7,-13.3 0.5,-4.4 0.1,-8.9 0.1,-13.7 -5.1,0.8 -10.1,1.8 -15.2,2.4 -19.6,2.4 -31.7,-7.2 -33.1,-26.7 -0.5,-7.3 -0.4,-14.7 0.5,-21.9 2,-15.5 15.2,-26.4 31.4,-26.6 16.3,-0.2 29.6,10.2 32.4,25.5 0.4,2.1 0.8,4.3 0.8,6.4 0.1,17.7 0.3,35.3 -0.1,53 -0.2,12.8 -5.8,23 -17.7,28.6 -11.9,5.5 -23.7,4.7 -34.6,-2.8 -6.6,-4.8 -10.5,-11.4 -12.1,-20.1 z m 15.9,-52.2 c 0,2.2 -0.1,4.3 0,6.5 0.5,9.6 6.7,15.8 15.8,15.9 9,0.1 15.3,-5.6 16.1,-15 0.4,-4.8 0.4,-9.7 0,-14.5 -0.8,-9.6 -7.2,-15.2 -16.7,-14.8 -8.8,0.3 -14.8,6.6 -15.2,15.9 -0.1,2 0,4 0,6 z"
   id="path142"
   style="fill:#0038e3;fill-opacity:1" />

	<path
   class="st0"
   d="m 342.8,814.4 c 4.3,-7.5 8.2,-14.3 11.9,-20.7 -5.9,-1.6 -11.7,-2.4 -16.8,-4.8 -13.4,-6.5 -19.5,-21.3 -13.8,-35 3.8,-9.3 8.9,-18.3 15,-26.3 9.6,-12.7 28.3,-14.7 41.9,-5.6 14.1,9.4 19.1,26.2 11.5,41.2 -4.1,-2.4 -8.3,-4.6 -12.3,-7.2 -0.8,-0.6 -1.1,-2.5 -1,-3.8 0.8,-9.6 -3.9,-16.5 -13.2,-19 -4.7,-1.3 -9.6,-0.5 -12.3,3.4 -5.1,7.3 -10.4,14.8 -13.4,23 -3.6,10.1 8.4,21.5 18.8,17.9 6.3,-2.2 10.4,-0.5 15,2.5 1.4,0.9 2.9,1.7 4.9,2.9 -10.3,17.9 -20.6,35.7 -31.1,53.9 -17.7,-10.2 -35.1,-20.3 -53,-30.6 2.8,-4.8 5.4,-9.4 8.2,-14.4 13.3,7.5 26.2,14.9 39.7,22.6 z"
   id="path144"
   style="fill:#0038e3;fill-opacity:1" />

	<path
   class="st0"
   d="m 752.8,403.9 c -11.2,-1.2 -20.4,-8.6 -23.5,-19.7 -3,-10.7 1.2,-21.2 11.5,-27.2 19.4,-11.4 38.8,-22.6 58.3,-33.7 3.1,-1.8 6.7,-3.1 10.3,-3.5 11.7,-1.4 22,5.5 25.8,16.8 3.9,11.3 -0.2,22.4 -10.8,28.8 -8.8,5.3 -17.9,10.3 -26.8,15.5 -10.2,5.9 -20.3,12 -30.7,17.6 -4.3,2.3 -9.3,3.6 -14.1,5.4 z m 67.1,-57.8 c -0.1,-7.9 -6.3,-11.6 -11.8,-8.8 -4.6,2.3 -9,5.1 -13.4,7.6 -14.8,8.6 -29.7,17.1 -44.5,25.7 -5,2.9 -6.3,7.1 -4,11.2 2.5,4.4 6.9,5.4 12.1,2.4 18.7,-10.8 37.5,-21.5 56.1,-32.5 2.6,-1.5 4.3,-4.4 5.5,-5.6 z"
   id="path146"
   style="fill:#0038e3;fill-opacity:1" />

	<path
   class="st0"
   d="m 263.2,379.3 c 7.6,-13 14.6,-25.2 21.9,-37.7 4.9,2.9 9.5,5.5 14.3,8.3 -11.1,19.1 -21.8,37.8 -32.8,56.8 -4.3,-2.5 -8.3,-4.5 -12,-7 -1.5,-1 -2.4,-3.1 -3.1,-4.8 -8,-20.3 -16,-40.6 -23.8,-60.9 -2.2,-5.7 -5.3,-10.3 -11.3,-12.4 -6.8,-2.3 -13.6,-0.5 -18,5 -4.4,5.6 -4.7,13.3 -0.6,19.1 1.4,2 3.3,3.7 5.2,5.8 -2.2,3.8 -4.4,7.7 -6.7,11.6 -0.4,0.7 -1,1.3 -1.4,1.9 -11.3,-5.5 -18.2,-19 -16.6,-31.7 1.8,-14.2 12.3,-25.7 25.8,-28.4 16.1,-3.3 31.5,4.9 37.6,20.1 6.5,16.2 12.8,32.5 19.2,48.8 0.6,1.4 1.3,2.9 2.3,5.5 z"
   id="path148"
   style="fill:#0038e3;fill-opacity:1" />

	<path
   class="st0"
   d="m 198.8,509 c -5.1,0 -9.7,0 -14.9,0 0,-3.1 0.2,-5.9 0,-8.7 -0.8,-8.2 -7.1,-14.1 -15.2,-14.5 -7.6,-0.3 -14.8,5 -16.7,12.4 -2,8 1.5,15.7 9.3,18.7 3,1.2 4.1,2.6 3.8,5.8 -0.3,3.9 -0.1,7.9 -0.1,11.9 -14.1,-1 -26.3,-11.4 -29.4,-24.6 -3.3,-14.1 3.1,-29.2 15.7,-36.4 13.3,-7.7 26.8,-5.3 40.1,7 12.6,-13.4 27.2,-16.4 42.2,-8.7 13.1,6.7 20.1,21.5 17.4,37.1 -2.4,13.9 -13.8,24.4 -29.1,26.2 0,-5 -0.2,-9.9 0.1,-14.8 0.1,-1 1.8,-2.1 3,-2.8 8.7,-4.9 12,-12.6 9.1,-21.3 -2.8,-8.3 -11.3,-13 -20.9,-11.4 -8.7,1.4 -14.3,8.2 -14.5,17.6 0,1.9 0.1,3.9 0.1,6.5 z"
   id="path150"
   style="fill:#0038e3;fill-opacity:1" />

	<path
   class="st0"
   d="m 174.5,669.6 c 30.6,-2.5 60.2,-5 90.6,-7.5 -5.2,-8.9 -9.9,-17.1 -14.9,-25.7 -9.6,5.5 -18.9,10.8 -28.6,16.4 -2.8,-4.8 -5.4,-9.3 -8.3,-14.2 9.6,-5.6 18.9,-11 28.4,-16.5 -1.5,-2.8 -2.7,-5.2 -4.2,-8.1 4.4,-2.6 8.7,-5 13.2,-7.7 1.7,2.6 3.2,5 5,7.7 4.8,-2.7 9.5,-5.4 14.7,-8.3 2.8,4.8 5.4,9.3 8.3,14.3 -5,2.9 -9.7,5.7 -14.7,8.7 8,13.8 15.8,27.3 23.9,41.4 -6.3,3.1 -11.3,7.7 -18.8,8.3 -27.4,2.1 -54.7,4.8 -82.1,7.1 -1.4,0.1 -3.5,-0.9 -4.3,-2.1 -2.9,-4.3 -5.2,-8.7 -8.2,-13.8 z"
   id="path152"
   style="fill:#0038e3;fill-opacity:1" />

	<path
   class="st0"
   d="m 511.9,229.9 c 10.3,0 19.5,0 29.1,0 0,5.5 0,10.6 0,16 -16.2,0 -32.3,0 -48.8,0 0,-7.6 -0.9,-14.6 3.1,-21.8 9.1,-15.9 17.3,-32.3 25.9,-48.5 3.9,-7.3 4.2,-14.9 2.9,-22.8 -0.7,-4.3 -3.6,-6.2 -7.8,-6 -4.4,0.2 -7.1,2.7 -7.4,7.2 -0.2,3.1 0,6.3 0,9.9 -5.6,0 -11,0 -16.5,0 -0.6,-7.7 -0.6,-14.9 3.4,-21.5 5.5,-9.3 16,-13.8 27.1,-11.6 9.7,1.9 16.7,10.3 18.1,22 1.3,11.2 0.1,21.7 -5.7,31.8 -7.5,13.2 -14.1,26.8 -21,40.3 -0.9,1.4 -1.4,2.8 -2.4,5 z"
   id="path154"
   style="fill:#0038e3;fill-opacity:1" />

	<path
   class="st0"
   d="m 646.6,716.5 c 5.2,35.1 10.3,69.5 15.5,104.6 8.9,-5.2 17.4,-10 26.2,-15.1 -2.7,-4.8 -5.3,-9.2 -8.2,-14.4 4.7,-2.7 9.2,-5.3 14.3,-8.3 5.5,9.6 11,19 16.6,28.8 -19,11 -37.7,21.8 -56.3,32.5 -6.6,-8.3 -9.4,-17.3 -10.8,-27.3 -3.9,-29.2 -8.5,-58.3 -12.9,-87.4 -0.4,-2.8 -0.1,-4.6 2.7,-6 4.2,-2.2 8.2,-4.7 12.9,-7.4 z"
   id="path156"
   style="fill:#0038e3;fill-opacity:1" />

	<path
   class="st0"
   d="m 475.9,246 c -5.6,0 -10.7,0 -16.1,0 0,-32.1 0,-63.9 0,-97.1 -5.8,4.2 -10.8,7.8 -16.7,12.1 0,-6 0,-11.1 0,-16.1 0,-0.3 0,-0.8 0.2,-0.9 6.2,-4.3 12.1,-9.3 18.8,-12.4 3.7,-1.7 8.8,-0.3 13.7,-0.3 0.1,38.3 0.1,76.3 0.1,114.7 z"
   id="path158"
   style="fill:#0038e3;fill-opacity:1" />

	<path
   class="st0"
   d="m 668.6,171.3 c -19.1,33.1 -38.2,66.1 -57.4,99.4 -4.9,-2.8 -9.5,-5.5 -14.4,-8.3 16.1,-27.9 32,-55.5 48.5,-84.1 -6.8,0.6 -12.8,1.2 -20,1.9 3.1,-5.3 5.6,-9.8 8.3,-14.2 0.4,-0.7 1.7,-1 2.6,-1.1 2.6,-0.4 5.4,-0.3 7.9,-1 9.8,-3 16.8,2.4 24.5,7.4 z"
   id="path160"
   style="fill:#0038e3;fill-opacity:1" />

	<path
   class="st0"
   d="m 788.4,291.9 c -6.4,-2.9 -12.1,-5.4 -18.5,-8.3 5,-2.9 9.1,-5.4 13.3,-7.7 1,-0.5 2.6,-0.7 3.6,-0.3 5.2,2.1 10.7,4 15.4,7 2.6,1.6 4,5 5.8,7.8 1.4,2.1 2.5,4.3 4,7 -33.1,19.1 -66,38.1 -99.4,57.4 -2.8,-4.7 -5.4,-9.2 -8.4,-14.3 28,-16.1 55.7,-32.1 84.2,-48.6 z"
   id="path162"
   style="fill:#0038e3;fill-opacity:1" />

	<path
   class="st0"
   d="m 656.1,296.7 c -5,-2.9 -9.4,-5.5 -14.3,-8.3 16.1,-27.9 32,-55.5 48.5,-84.1 -7,0.7 -13,1.3 -20.1,2 2.9,-5.1 5.3,-9.4 7.8,-13.6 0.2,-0.4 0.6,-1.1 1,-1.1 7.3,-0.6 14.8,-2 22,-1.3 4.2,0.4 8.1,4.3 12.6,6.9 -19.1,33.1 -38.2,66 -57.5,99.5 z"
   id="path164"
   style="fill:#0038e3;fill-opacity:1" />

	<path
   class="st0"
   d="m 317.7,183 c 18.8,32.5 37.7,65.3 56.9,98.6 -4.9,2.8 -9.5,5.5 -14.4,8.3 -16.2,-28 -32.1,-55.6 -48.7,-84.2 -2.9,6.4 -5.3,11.9 -8.2,18.3 -3,-5.1 -5.5,-9.5 -8,-14 -0.4,-0.7 -0.4,-2 -0.1,-2.8 4.3,-10.7 8.3,-21.7 22.5,-24.2 z"
   id="path166"
   style="fill:#0038e3;fill-opacity:1" />

	<path
   class="st0"
   d="m 489.8,570.3 c -6.7,0 -13,0 -19.9,0 0,-20.9 0,-41.8 0,-63 -8.6,0 -16.5,0 -25,0 0,20.9 0,41.6 0,62.8 -7.1,0 -13.7,0 -20.6,0 0,-47.2 0,-94.4 0,-141.9 6.7,0 13.2,0 20.3,0 0,20.1 0,40.1 0,60.3 8.5,0 16.4,0 25,0 0,-20 0,-40 0,-60.3 7.1,0 13.5,0 20.2,0 0,47.3 0,94.4 0,142.1 z"
   id="path168"
   style="fill:#0038e3;fill-opacity:1" />

	<path
   class="st0"
   d="m 510,428.1 c 6.6,0 12.9,0 19.8,0 0,2 0,3.7 0,5.5 0,33.5 0,67 0,100.5 0,3 0.3,6 1.1,8.9 1.5,5.3 5.7,8 11.3,8 5.7,0 9.8,-2.5 11.5,-7.8 0.8,-2.6 1.1,-5.6 1.1,-8.3 0.1,-33.5 0,-67 0,-100.5 0,-2 0,-3.9 0,-6.2 7.1,0 13.6,0 20.5,0 0.1,1.9 0.2,3.5 0.2,5.1 0,34.5 0.1,69 0,103.5 -0.1,22.6 -18,38.1 -39.3,34.3 -14.8,-2.6 -26.5,-15.2 -26.7,-30.2 -0.4,-37 -0.1,-74 -0.1,-111 0.2,-0.4 0.4,-0.9 0.6,-1.8 z"
   id="path170"
   style="fill:#0038e3;fill-opacity:1" />

</g>
    <path
       style="fill:#0038e3;fill-opacity:1;stroke-width:5.44912"
       d="M 444.10366,993.85653 C 190.27549,960.51083 4.9112628,753.6917 5.1031445,504.04403 5.1296354,469.57832 7.6997058,427.89252 10.814412,411.40891 47.355226,218.02817 192.62707,65.263414 386.88785,15.938148 441.0173,2.1939968 558.11472,1.862229 612.09424,15.300079 829.17287,69.340417 981.9951,252.34021 995.21391,474.07385 c 12.63469,211.93449 -123.6511,418.92113 -323.62144,491.50647 -72.4125,26.28434 -159.88692,37.15718 -227.48881,28.27621 z m 46.31756,-48.4334 c 0,-30.27294 1.68664,-38.14387 8.17369,-38.14387 6.48705,0 8.17369,7.87093 8.17369,38.14387 0,26.93993 2.0007,38.11216 6.8114,38.03593 46.96039,-0.74419 137.38088,-22.46244 185.22147,-44.48873 l 36.73282,-16.91212 -16.2986,-28.48699 c -8.96425,-15.66787 -16.29861,-31.25367 -16.29861,-34.63512 0,-13.15316 9.09661,-4.90334 26.29083,23.84346 20.89249,34.92998 19.52667,35.1116 76.84427,-10.21727 34.31809,-27.14002 103.93164,-108.45393 103.93164,-121.40007 0,-3.60629 -13.68406,-14.38607 -30.409,-23.95517 -20.4698,-11.71159 -28.61052,-19.19678 -24.90643,-22.90087 3.7041,-3.7041 14.56061,0.0708 33.21547,11.5492 15.24202,9.37854 29.89924,17.05189 32.5716,17.05189 6.56151,0 35.51848,-70.72882 46.68347,-114.02691 4.966,-19.25808 10.43197,-51.74849 12.14659,-72.2009 l 3.11755,-37.1863 h -36.2096 c -28.55363,0 -36.20965,-1.72822 -36.20965,-8.17369 0,-6.44547 7.65602,-8.17369 36.20965,-8.17369 h 36.2096 L 979.25675,455.3775 C 974.89886,403.39711 961.12402,350.64024 939.66341,303.73723 L 921.56365,264.1796 889.91851,282.812 c -21.4331,12.61963 -32.87152,16.64804 -35.44552,12.48324 -3.20316,-5.18287 31.31073,-30.22565 52.80627,-38.31545 9.44627,-3.55508 -14.47446,-41.33018 -51.60163,-81.48814 -35.62692,-38.53522 -93.81578,-85.581093 -105.85126,-85.581093 -3.52172,0 -13.5019,13.123043 -22.17816,29.162323 L 711.8731,148.2352 672.3621,129.97998 C 633.65615,112.09674 589.76863,99.948477 538.10106,92.815911 L 512.21772,89.242789 V 54.157363 c 0,-33.791705 -0.50232,-35.085427 -13.62281,-35.085427 -13.1165,0 -13.62281,1.300327 -13.62281,34.986351 0,39.282472 4.14258,36.077875 -57.14019,44.202215 -29.53028,3.914868 -105.93325,30.156958 -125.91005,43.246248 -12.04286,7.89079 -12.96687,7.21082 -29.5224,-21.72522 -9.39974,-16.42904 -19.99804,-29.870973 -23.55179,-29.870973 -22.31541,0 -131.65081,105.292063 -154.08986,148.391453 -7.701008,14.79157 -7.556667,14.99766 22.3087,31.85263 28.2225,15.92779 37.93501,26.82266 23.91176,26.82266 -3.38146,0 -18.96726,-7.33438 -34.63511,-16.29861 L 77.856156,264.38007 60.756765,301.47767 C 40.691288,345.01027 24.697042,404.79079 19.316957,456.36419 l -3.837018,36.78159 h 38.57759 c 30.658443,0 38.577591,1.67789 38.577591,8.17369 0,6.49498 -7.914527,8.17369 -38.53597,8.17369 H 15.563176 l 3.6197,31.33246 c 7.404588,64.09484 42.525023,180.34625 57.229475,189.43408 2.672648,1.6518 18.562219,-4.73016 35.310159,-14.18211 28.91952,-16.32116 40.87798,-18.23255 32.85523,-5.25148 -2.00196,3.23923 -12.66895,10.66383 -23.70443,16.49913 -38.145021,20.17015 -37.669944,17.69631 -10.65251,55.46937 28.11687,39.3102 76.19336,86.56245 115.17227,113.19777 29.04965,19.85034 27.42834,20.43269 47.19607,-16.9513 5.83529,-11.03546 13.2599,-21.7025 16.49914,-23.70446 12.85322,-7.94373 10.97662,3.66394 -5.14891,31.84845 -9.31274,16.27697 -16.93226,31.27002 -16.93226,33.31791 0,11.45171 114.24882,50.02302 169.25295,57.14115 59.31261,7.67569 54.16116,10.74034 54.16116,-32.221 z"
       id="path14757"
       transform="matrix(0.26458333,0,0,0.26458333,-145.97406,24.525742)" />
    <path
       style="fill:#0038e3;fill-opacity:1;stroke-width:5.44912"
       d="m 495.87035,237.1401 c 0,-2.94028 7.73417,-21.03005 17.18706,-40.1995 9.63382,-19.53638 15.69583,-38.73964 13.79383,-43.69618 -4.2682,-11.12274 -20.08264,-11.6495 -20.08264,-0.66893 0,4.49553 -2.45211,8.17369 -5.44913,8.17369 -8.16824,0 -6.56007,-14.09094 2.46279,-21.57925 11.96003,-9.92594 26.66755,-4.58364 32.42112,11.77654 4.12749,11.73647 2.2728,20.1368 -9.42337,42.68066 -17.9454,34.58897 -18.02884,37.96067 -0.93948,37.96067 7.49255,0 13.62281,2.4521 13.62281,5.44912 0,2.99702 -9.80842,5.44913 -21.7965,5.44913 -11.98807,0 -21.79649,-2.40568 -21.79649,-5.34595 z"
       id="path14796"
       transform="matrix(0.26458333,0,0,0.26458333,-145.97406,24.525742)" />
    <path
       style="fill:#0038e3;fill-opacity:1;stroke-width:5.44912"
       d="m 463.1756,192.77671 c 0,-43.56824 -1.00978,-48.8713 -8.17369,-42.92578 -9.68899,8.04114 -11.08832,-0.35485 -1.63474,-9.80843 16.69777,-16.69776 20.70668,-7.41397 20.70668,47.9523 0,32.69475 -2.17965,54.49125 -5.44913,54.49125 -3.23453,0 -5.44912,-20.20253 -5.44912,-49.70934 z"
       id="path14835"
       transform="matrix(0.26458333,0,0,0.26458333,-145.97406,24.525742)" />
    <path
       style="fill:#0038e3;fill-opacity:1;stroke-width:0.681141"
       d="m 906.59812,499.61662 v -9.53597 h 36.83618 36.83618 l -0.42395,-6.98169 c -1.6035,-26.40694 -2.76031,-38.1576 -5.54887,-56.36438 -5.97,-38.97865 -17.03142,-78.00084 -32.35576,-114.14377 -4.79736,-11.31471 -20.73234,-43.88085 -21.47141,-43.88085 -0.26016,0 -14.29246,7.9517 -31.1829,17.67044 -16.89043,9.71874 -31.16965,17.84363 -31.73159,18.05531 -0.7458,0.28094 -2.28955,-1.82824 -5.71652,-7.81031 -2.58215,-4.50736 -4.57448,-8.30715 -4.42742,-8.44398 0.55871,-0.51983 61.57695,-35.66382 61.71332,-35.54432 0.0788,0.0691 -0.03,0.78812 -0.24177,1.59793 -0.28389,1.08561 -2.91593,2.71612 -10.0198,6.20714 -15.84949,7.78882 -32.17147,18.90284 -40.45639,27.54771 -2.99834,3.12862 -4.25713,4.96736 -4.25713,6.2185 0,4.57899 7.12382,3.73294 19.59526,-2.3272 6.33972,-3.0806 39.66853,-22.08641 46.19504,-26.3428 1.37878,-0.8992 1.72211,-0.2732 11.16865,20.36415 19.2478,42.04968 26.47135,61.44246 34.69792,93.15221 7.35751,28.35992 10.8691,50.25074 13.98581,87.18599 0.93256,11.05151 1.86284,21.51625 2.0673,23.25499 l 0.37172,3.16135 -30.1541,0.3367 c -31.88568,0.35604 -35.92969,0.73384 -39.94511,3.73179 -1.49515,1.11629 -1.78839,1.86954 -1.78839,4.59391 0,2.75419 0.28723,3.47313 1.85525,4.64383 1.02039,0.76183 3.62576,1.76539 5.7897,2.23013 l 3.93444,0.84499 -7.66283,0.0571 -7.66283,0.0571 z"
       id="path14874"
       transform="matrix(0.26458333,0,0,0.26458333,-145.97406,24.525742)" />
    <path
       style="fill:#0038e3;fill-opacity:1;stroke-width:2.72456"
       d="m 490.42122,678.46793 v -36.72969 l -7.49255,-1.52042 c -4.1209,-0.83622 -14.23583,-3.38965 -22.47763,-5.67428 -8.24181,-2.28463 -17.4372,-4.71706 -20.43422,-5.40537 -4.53374,-1.04127 -8.40388,3.98552 -23.03817,29.92354 l -17.58905,31.17504 -7.74878,-4.00704 -7.74878,-4.00704 5.38049,-8.71473 c 10.34382,-16.7538 30.26972,-52.32282 30.28981,-54.06929 0.019,-1.65447 -37.81224,-40.46915 -39.44382,-40.46915 -0.41608,0 -14.60787,7.90417 -31.53731,17.56479 -28.09641,16.03298 -31.08722,17.16163 -34.29431,12.94167 -1.93242,-2.5427 -3.55249,-6.02635 -3.60014,-7.74138 -0.0477,-1.71506 12.48039,-10.17297 27.84011,-18.79537 37.16203,-20.86143 35.10598,-18.77133 30.14513,-30.6443 -2.29876,-5.50173 -5.68332,-17.38283 -7.52124,-26.40245 l -3.34167,-16.3993 -37.2273,-0.75803 -37.22731,-0.75802 v -8.01992 -8.01992 l 37.22731,-0.75802 37.2273,-0.75803 3.34167,-16.3993 c 1.83792,-9.01962 5.3316,-21.16189 7.76374,-26.98281 2.43214,-5.82093 4.09946,-10.80678 3.70517,-11.07966 -0.3943,-0.27287 -14.48907,-8.36048 -31.32172,-17.97246 -16.83264,-9.61198 -30.62574,-18.77456 -30.65132,-20.36128 -0.0256,-1.58673 1.58161,-5.11157 3.57155,-7.83297 3.39016,-4.63633 5.60042,-3.80042 35.08857,13.27031 l 31.47051,18.21832 19.40267,-19.83029 c 10.67147,-10.90666 19.40267,-20.72461 19.40267,-21.81767 0,-1.09306 -7.85866,-15.50855 -17.4637,-32.03443 l -17.4637,-30.04706 8.60887,-5.26631 c 14.27738,-8.7339 42.27726,-19.09441 63.38888,-23.45514 33.72177,-6.96542 31.04371,-9.7836 31.04371,32.66789 v 36.78159 h 10.89825 10.89825 v -37.13351 -37.13352 l 16.28448,1.84238 c 8.95646,1.01331 22.74956,3.70905 30.65134,5.99053 18.32614,5.29133 56.59755,22.94744 56.59755,26.11069 0,1.32566 -7.79637,15.95862 -17.32522,32.5177 l -17.32525,30.10741 20.27805,20.27803 20.27801,20.27803 31.34481,-17.99778 c 29.50881,-16.94356 31.56504,-17.70727 35.10444,-13.03808 2.06778,2.72784 3.79155,6.18576 3.83062,7.68427 0.039,1.49851 -12.90244,10.07461 -28.75887,19.05799 -15.85644,8.98338 -29.97702,17.04241 -31.37911,17.90896 -1.48968,0.92066 -0.77291,5.82697 1.72448,11.80407 2.35056,5.62571 5.80384,17.79655 7.67395,27.04633 l 3.40017,16.81777 35.98136,0.76022 35.98136,0.76022 v 8.09461 8.09461 h -36.41127 -36.41124 l -1.66247,12.12901 c -0.91436,6.67095 -4.03344,18.87488 -6.93131,27.11984 -6.14765,17.49114 -8.56562,14.45148 28.28733,35.56008 14.98509,8.58314 27.59804,15.94689 28.02877,16.36386 1.42653,1.381 -5.77536,15.24098 -7.52124,14.47456 -0.94174,-0.41345 -15.31983,-8.45728 -31.95129,-17.8752 l -30.23905,-17.12349 -20.42978,20.16629 -20.4298,20.16628 17.90024,30.74562 17.90024,30.74563 -6.55884,5.31104 c -5.30039,4.292 -6.9924,4.60492 -8.81848,1.63087 -1.24281,-2.02405 -9.66378,-16.35697 -18.71325,-31.8509 -12.48866,-21.38231 -17.53458,-27.81516 -20.93952,-26.69501 -8.04301,2.64598 -34.27527,9.66135 -41.94867,11.21846 l -7.49254,1.52042 v 36.72969 36.72968 h -9.53597 -9.53597 z m 33.32967,-57.32153 c 29.99845,-3.78831 71.33701,-34.15138 86.22317,-63.33065 24.99993,-49.00392 15.58845,-107.46677 -23.55095,-146.29527 -77.95342,-77.33421 -210.2041,-21.4983 -210.40117,88.83086 -0.09,50.4078 33.26536,98.75401 79.9724,115.91417 12.72891,4.67661 37.81889,8.48865 48.04969,7.30044 3.74628,-0.43508 12.61436,-1.52387 19.70686,-2.41955 z"
       id="path15330"
       transform="matrix(0.26458333,0,0,0.26458333,-145.97406,24.525742)" />
    <path
       style="fill:#0038e3;fill-opacity:1;stroke-width:2.72456"
       d="m 425.03173,498.59491 v -69.47634 h 9.53596 9.53597 v 29.97018 29.97019 h 13.62281 13.62281 v -29.97019 -29.97018 h 8.17369 8.17369 v 69.47634 69.47634 h -8.17369 -8.17369 v -31.33247 -31.33247 h -13.62281 -13.62281 v 31.33247 31.33247 h -9.53597 -9.53596 z"
       id="path15369"
       transform="matrix(0.26458333,0,0,0.26458333,-145.97406,24.525742)" />
    <path
       style="fill:#0038e3;fill-opacity:1;stroke-width:2.72456"
       d="M 529.45188,566.82031 C 512.1566,559.29724 510.95165,554.45015 509.9838,488.50674 l -0.87165,-59.38817 h 9.72647 9.72647 v 56.03264 c 0,33.41442 1.1385,58.15995 2.82043,61.30265 3.19656,5.97285 15.97505,7.18121 21.15572,2.00054 2.33827,-2.33826 3.26948,-19.79849 3.26948,-61.30265 v -58.03318 h 9.53597 9.53596 v 55.94104 c 0,62.75796 -1.73076,70.99041 -16.86456,80.21723 -10.49976,6.40153 -16.63555,6.73305 -28.56621,1.54347 z"
       id="path15408"
       transform="matrix(0.26458333,0,0,0.26458333,-145.97406,24.525742)" />
    <path
       style="fill:#0038e3;fill-opacity:1;stroke-width:0.481639"
       d="m 492.37698,239.01342 c 0.15104,-3.77485 0.60045,-8.02274 0.9987,-9.43977 0.39825,-1.41702 2.98773,-6.7271 5.75439,-11.80016 5.75514,-10.55284 11.24833,-20.8892 17.65118,-33.21362 2.4509,-4.71758 4.55182,-8.48178 4.66871,-8.36489 0.35502,0.35501 -3.11027,8.76276 -7.18135,17.42395 -9.48637,20.18218 -11.14118,23.78078 -13.79483,29.99866 -3.36532,7.8854 -5.12526,13.18555 -4.72482,14.22907 0.40247,1.04882 3.56559,2.58668 7.18754,3.49446 4.14668,1.03931 19.68224,1.48038 24.96012,0.70866 10.39594,-1.5201 14.41602,-4.655 10.00091,-7.79883 -2.34788,-1.67184 -5.57224,-2.3926 -12.67974,-2.83438 -11.87985,-0.73842 -10.41305,-1.3697 3.26074,-1.40336 l 12.40221,-0.0305 v 7.94705 7.94704 h -24.38918 -24.38919 z"
       id="path15486"
       transform="matrix(0.26458333,0,0,0.26458333,-145.97406,24.525742)" />
    <path
       style="fill:#0038e3;fill-opacity:1;stroke-width:0.48000001;stroke:#000000;stroke-opacity:1;stroke-miterlimit:4;stroke-dasharray:none"
       d="m 460.00466,197.35163 c 0.0343,-42.40464 0.12574,-48.32743 0.72472,-46.95764 1.38085,3.1578 1.70314,8.6192 2.11029,35.75953 0.43107,28.73427 0.95306,39.08615 2.40437,47.68228 1.05559,6.25227 2.00102,8.6695 3.39083,8.6695 1.29887,0 2.1099,-1.90805 3.08149,-7.24956 2.07573,-11.41166 3.12267,-40.80723 2.30898,-64.82995 -0.8095,-23.89901 -2.12539,-32.39074 -5.6082,-36.19114 -2.90595,-3.17095 -6.2325,-2.31262 -12.68606,3.27331 -4.72967,4.09381 -8.29697,9.14127 -8.64541,12.23261 -0.50316,4.46404 1.77007,4.69867 7.42474,0.76636 3.16357,-2.19998 5.29397,-3.05621 4.89304,-1.96656 -0.0883,0.23998 -3.51997,2.86563 -7.62595,5.83478 -4.10597,2.96914 -7.73633,5.61691 -8.06745,5.88394 -0.47706,0.38471 -0.60205,-1.20809 -0.60205,-7.67167 v -8.15718 l 6.70325,-4.76102 c 3.68679,-2.61856 8.25917,-5.61645 10.16084,-6.66197 l 3.45759,-1.90095 5.58848,0.0699 c 3.07366,0.0384 5.76164,0.24307 5.97329,0.45472 0.21165,0.21165 0.52936,26.00355 0.70601,57.31534 l 0.32118,56.93051 h -8.02663 -8.02664 z"
       id="path15525"
       transform="matrix(0.26458333,0,0,0.26458333,-145.97406,24.525742)" />
    <path
       style="fill:#0038e3;fill-opacity:1;stroke:#000000;stroke-width:0.231187;stroke-miterlimit:4;stroke-dasharray:none;stroke-opacity:1"
       d="m 272.46454,125.15632 c -8.67444,-15.00536 -15.67379,-27.380394 -15.55411,-27.500081 0.28526,-0.285265 6.18004,7.676971 9.53555,12.879941 1.45215,2.25166 5.09346,8.32032 8.0918,13.4859 6.88113,11.85488 10.35763,17.04301 13.1316,19.59686 3.78368,3.48341 6.29144,3.21213 13.7943,-1.49219 16.61462,-10.41743 59.93806,-26.82329 99.25384,-37.58576 13.48531,-3.69152 21.42232,-5.267855 36.48594,-7.246288 29.65134,-3.894371 36.66208,-5.400495 41.91278,-9.004176 2.67652,-1.836958 4.73647,-5.481598 5.37563,-9.510991 0.27588,-1.739204 0.60475,-12.915384 0.73082,-24.835953 0.12607,-11.920568 0.46016,-23.190924 0.74242,-25.045234 0.53132,-3.490492 2.2086,-7.527059 3.25983,-7.845147 0.47794,-0.144617 0.60205,7.32254 0.60205,36.221719 0,20.022139 -0.16255,36.404016 -0.36123,36.40417 -2.54383,0.0019 -20.09286,1.141778 -26.36974,1.712728 -51.30849,4.667052 -99.7518,18.388592 -145.12228,41.105812 -9.00009,4.50639 -20.57089,10.78189 -25.9885,14.09505 -1.6603,1.01535 -3.18303,1.8461 -3.38385,1.8461 -0.20082,0 -7.4624,-12.27711 -16.13685,-27.28246 z"
       id="path16949"
       transform="matrix(0.26458333,0,0,0.26458333,-145.97406,24.525742)" />
    <path
       style="fill:#0038e3;fill-opacity:1;stroke:#000000;stroke-width:0.231187;stroke-miterlimit:4;stroke-dasharray:none;stroke-opacity:1"
       d="m 708.25034,151.01832 c -9.48803,-5.86967 -31.02161,-17.01197 -43.82916,-22.67887 -43.3023,-19.15981 -90.74982,-30.744832 -137.98961,-33.692227 -4.63578,-0.289234 -10.21677,-0.64491 -12.40221,-0.790384 l -3.97352,-0.264502 0.0305,-34.51437 c 0.0301,-34.033905 0.30906,-39.343453 1.41231,-26.881062 0.26151,2.954021 0.47733,17.016464 0.47959,31.249874 l 0.004,25.878929 1.08369,0.23686 c 0.59603,0.130274 8.3444,1.225083 17.2186,2.432909 47.05902,6.404981 80.90813,14.365893 115.11175,27.072923 11.30992,4.20176 20.8707,8.35265 45.71364,19.84693 11.50007,5.32082 20.94438,9.61917 20.98736,9.55187 0.043,-0.0673 4.02964,-7.44986 8.85926,-16.4057 8.65943,-16.0577 12.25091,-22.31187 16.08639,-28.01263 2.59186,-3.85236 7.72857,-10.373041 7.9763,-10.12532 0.17687,0.176873 -32.89227,57.84896 -33.58887,58.57847 -0.15968,0.16724 -1.59076,-0.50043 -3.18017,-1.4837 z"
       id="path16988"
       transform="matrix(0.26458333,0,0,0.26458333,-145.97406,24.525742)" />
    <path
       style="fill:#0038e3;fill-opacity:1;stroke:#000000;stroke-width:0.231187;stroke-miterlimit:4;stroke-dasharray:none;stroke-opacity:1"
       d=""
       id="path17064"
       transform="matrix(0.26458333,0,0,0.26458333,-145.97406,24.525742)" />
    <path
       style="fill:#0038e3;fill-opacity:1;stroke:#000000;stroke-width:0.231187;stroke-miterlimit:4;stroke-dasharray:none;stroke-opacity:1"
       d="M 901.37124,237.07651 C 864.16543,180.43195 815.70419,132.41148 759.06326,96.062873 c -4.63577,-2.974952 -8.53705,-5.517464 -8.6695,-5.650026 -0.75462,-0.755251 3.25328,0.693802 6.98377,2.524976 12.2321,6.004337 37.95039,25.787517 63.81718,49.089857 9.26456,8.34606 33.59182,32.65727 40.5403,40.51355 19.85623,22.4504 34.42795,42.00513 42.35089,56.83341 1.35894,2.54334 2.38408,4.71098 2.27808,4.81699 -0.106,0.10599 -2.35273,-3.09581 -4.99274,-7.11512 z"
       id="path17103"
       transform="matrix(0.26458333,0,0,0.26458333,-145.97406,24.525742)" />
    <path
       style="fill:#0038e3;fill-opacity:1;stroke:#000000;stroke-width:0.231187;stroke-miterlimit:4;stroke-dasharray:none;stroke-opacity:1"
       d="M 985.0469,397.35228 C 970.87669,329.67057 940.65056,262.13633 899.46719,206.14155 874.32731,171.96019 843.71674,139.91959 810.83947,113.37339 754.35919,67.769303 688.39433,34.781833 616.49808,16.187808 592.26361,9.9202161 563.66669,6.7140942 521.01313,5.4825858 477.99601,4.2405808 428.81497,7.2937994 399.08317,13.052146 376.85514,17.357189 342.07451,28.292397 315.21643,39.420275 269.37577,58.413039 227.43177,83.207759 188.80254,114.1484 c -24.22943,19.4069 -51.32912,45.91168 -69.53986,68.01325 l -2.46519,2.99189 -0.14278,-3.12833 -0.14278,-3.12834 6.16327,-7.08238 C 183.51211,101.90525 266.08193,48.329293 353.76062,21.873246 390.55672,10.770439 425.4316,4.4669024 467.18995,1.3712118 c 14.10578,-1.04571001 52.06423,-1.19733002 65.26211,-0.2606809 59.3727,4.2136602 110.12433,16.3888981 163.51648,39.2273621 12.54357,5.365511 37.34866,17.667641 49.84965,24.723052 69.99849,39.506295 126.53743,92.327905 170.85724,159.623705 31.77894,48.25362 53.86484,98.16786 67.55018,152.66382 l 2.19386,8.73615 -0.13168,8.28284 -0.13168,8.28285 z"
       id="path17142"
       transform="matrix(0.26458333,0,0,0.26458333,-145.97406,24.525742)" />
    <path
       style="fill:#0038e3;fill-opacity:1;stroke:#000000;stroke-width:0.231187;stroke-miterlimit:4;stroke-dasharray:none;stroke-opacity:1"
       d="m 513.43665,224.85986 c -0.0234,-2.57665 3.149,-9.99803 11.81026,-27.62864 9.78713,-19.92237 11.9572,-25.33227 12.85593,-32.04933 1.32583,-9.90912 -3.27035,-21.71573 -10.62911,-27.30395 -7.68029,-5.83237 -17.82493,-4.85638 -25.0957,2.41438 -7.56683,7.56684 -8.81324,19.36549 -2.17728,20.6104 3.46493,0.65003 6.18877,-2.49612 6.7757,-7.82624 0.16989,-1.54279 0.63022,-3.50605 1.02296,-4.36281 2.19947,-4.79815 9.94556,-5.05119 14.8975,-0.48666 4.25991,3.92666 4.86077,7.09812 2.85107,15.04865 l -1.09571,4.33476 0.22713,-4.81639 c 0.23971,-5.08305 -0.36022,-10.3967 -1.42346,-12.60766 -1.06666,-2.21808 -3.52206,-3.52726 -6.61549,-3.52726 -3.60616,0 -5.75917,1.16613 -7.14584,3.8704 -0.93501,1.82343 -1.08369,2.8593 -1.08369,7.55018 v 5.43679 h -7.91754 -7.91753 l -0.33251,-2.21734 c -0.43395,-2.89378 0.12571,-9.62523 1.0667,-12.83001 3.43481,-11.69816 15.18439,-19.39998 27.03236,-17.71964 6.43588,0.91278 11.09144,3.44755 14.47531,7.88124 4.50317,5.90027 5.95926,11.06401 5.99875,21.27346 0.0444,11.47726 -1.23658,15.95081 -8.1709,28.53519 -2.22542,4.03869 -7.50073,14.11698 -11.7229,22.39622 -4.22217,8.27923 -7.68088,14.59015 -7.68601,14.02426 z"
       id="path17181"
       transform="matrix(0.26458333,0,0,0.26458333,-145.97406,24.525742)" />
    <path
       style="fill:#0038e3;fill-opacity:1;stroke:#000000;stroke-width:0.231187;stroke-miterlimit:4;stroke-dasharray:none;stroke-opacity:1"
       d="m 604.21629,266.35508 c -3.70863,-2.17791 -6.6964,-4.1858 -6.6395,-4.46198 0.0569,-0.27618 10.58677,-18.67681 23.3997,-40.89029 25.40525,-44.04447 24.56776,-42.57211 24.33855,-42.7886 -0.0877,-0.0828 -4.37112,0.25749 -9.51874,0.75623 -5.14761,0.49875 -9.45896,0.80715 -9.58077,0.68534 -0.24379,-0.24378 6.87649,-12.61684 7.85967,-13.65789 0.33723,-0.35708 2.42644,-0.85156 4.64268,-1.09884 2.21624,-0.24728 4.86158,-0.67306 5.87853,-0.94618 4.31449,-1.15875 9.9834,-0.44926 14.43518,1.80663 2.82998,1.43406 9.00188,5.35513 9.00188,5.71899 0,0.29559 -56.35471,98.07367 -56.79265,98.53793 -0.15487,0.16417 -3.31591,-1.48343 -7.02453,-3.66134 z"
       id="path17220"
       transform="matrix(0.26458333,0,0,0.26458333,-145.97406,24.525742)" />
    <path
       style="fill:#0038e3;fill-opacity:1;stroke:#000000;stroke-width:0.231187;stroke-miterlimit:4;stroke-dasharray:none;stroke-opacity:1"
       d="m 648.86603,292.21961 c -4.44107,-2.57821 -6.34479,-3.93922 -6.2108,-4.44023 0.10627,-0.39735 10.94534,-19.35167 24.08683,-42.1207 13.14149,-22.76903 23.84147,-41.45039 23.77773,-41.51413 -0.0637,-0.0637 -4.40948,0.32262 -9.65721,0.85858 -5.24772,0.53595 -9.63569,0.88009 -9.75103,0.76475 -0.11534,-0.11534 1.53952,-3.26362 3.67747,-6.99619 l 3.88718,-6.78647 2.02363,-0.27559 c 9.46881,-1.28949 19.91204,-1.62319 22.34153,-0.71389 0.74573,0.27911 3.34085,1.81183 5.76694,3.40604 l 4.41107,2.89858 -4.65189,8.04786 c -2.55854,4.42632 -15.38041,26.62408 -28.49303,49.32836 -13.11263,22.70427 -24.05788,41.27606 -24.32278,41.27065 -0.2649,-0.005 -3.36344,-1.68285 -6.88564,-3.72762 z"
       id="path17259"
       transform="matrix(0.26458333,0,0,0.26458333,-145.97406,24.525742)" />
    <path
       style="fill:#0038e3;fill-opacity:1;stroke:#000000;stroke-width:0.231187;stroke-miterlimit:4;stroke-dasharray:none;stroke-opacity:1"
       d="m 708.59246,347.44609 c -2.19594,-3.74481 -3.92984,-6.86103 -3.85311,-6.92493 0.0767,-0.0639 17.80363,-10.30516 39.3931,-22.75836 47.87387,-27.6145 43.98057,-25.31807 43.89793,-25.89286 -0.0378,-0.26305 -3.96988,-2.21217 -8.73793,-4.33138 -7.25743,-3.22565 -8.54271,-3.94667 -7.89262,-4.42765 2.79064,-2.06468 12.78829,-7.37251 13.88662,-7.37251 1.65073,0 12.10942,4.28693 15.56543,6.38014 1.6351,0.99033 3.17329,2.45306 4.18018,3.9751 3.00293,4.5393 6.52707,11.03234 6.16723,11.3628 -0.46026,0.42267 -97.20326,56.25859 -98.01037,56.56738 -0.37471,0.14337 -2.11881,-2.35252 -4.59646,-6.57773 z"
       id="path17298"
       transform="matrix(0.26458333,0,0,0.26458333,-145.97406,24.525742)" />
    <path
       style="fill:#0038e3;fill-opacity:1;stroke:#000000;stroke-width:0.231187;stroke-miterlimit:4;stroke-dasharray:none;stroke-opacity:1"
       d="m 749.04155,402.8511 c -11.94456,-3.03336 -20.29611,-13.44028 -20.31583,-25.3157 -0.0109,-6.59 3.24538,-13.48837 8.24687,-17.47062 4.08973,-3.25629 62.10443,-36.80544 66.78016,-38.61811 3.81671,-1.47964 10.95262,-1.80964 14.84734,-0.68663 4.18552,1.20687 7.43989,3.25798 10.70176,6.74492 9.56762,10.22782 9.20539,25.66599 -0.80944,34.49743 -2.39559,2.11253 -3.96296,3.05903 -30.6572,18.51325 -32.03925,18.54864 -31.65593,18.34457 -40.22131,21.41346 l -5.06166,1.81355 z m 19.50405,-24.25229 c 41.31415,-23.7173 47.39453,-27.39475 49.65124,-30.02931 l 2.18035,-2.54543 -0.60002,-2.68117 c -1.11939,-5.00197 -5.28512,-7.95933 -9.78243,-6.9448 -2.04427,0.46116 -0.57571,-0.35754 -34.55574,19.26447 -13.90733,8.03089 -26.00891,15.14055 -26.89239,15.79924 -4.8645,3.62681 -4.66744,10.06648 0.41369,13.51942 1.39416,0.94742 2.13261,1.10572 4.41367,0.94618 2.49979,-0.17484 3.82673,-0.81581 15.17163,-7.3286 z"
       id="path17337"
       transform="matrix(0.26458333,0,0,0.26458333,-145.97406,24.525742)" />
    <path
       style="fill:#0038e3;fill-opacity:1;stroke:#000000;stroke-width:0.231187;stroke-miterlimit:4;stroke-dasharray:none;stroke-opacity:1"
       d="m 335.97486,247.51996 c -13.22771,-22.91971 -24.1951,-41.76163 -24.37198,-41.87095 -0.17688,-0.10932 -1.98384,3.53295 -4.01546,8.09393 -2.03162,4.56099 -3.86278,8.56078 -4.06924,8.88843 -0.42379,0.67254 -8.27339,-12.68514 -8.27339,-14.07884 0,-1.62819 4.51887,-11.51589 6.86848,-15.02885 3.29874,-4.93202 9.04909,-9.00212 14.08282,-9.96781 l 1.44491,-0.2772 28.09159,48.75847 c 15.45037,26.81716 28.09978,48.96352 28.10981,49.21415 0.019,0.47543 -12.49334,7.91849 -13.33551,7.93272 -0.2649,0.004 -11.30431,-18.74435 -24.53203,-41.66405 z"
       id="path17376"
       transform="matrix(0.26458333,0,0,0.26458333,-145.97406,24.525742)" />
    <path
       style="fill:#0038e3;fill-opacity:1;stroke:#000000;stroke-width:0.653895;stroke-miterlimit:4;stroke-dasharray:none;stroke-opacity:1"
       d="m 784.67395,534.88747 c -10.56242,-1.12371 -16.00132,-3.81069 -21.70189,-10.72137 -7.23545,-8.77139 -9.1146,-23.30242 -4.36538,-33.75656 3.56522,-7.8479 14.72239,-17.01683 20.70683,-17.01683 0.70048,0 1.2736,3.35007 1.2736,7.44461 0,6.03748 -0.51232,7.7188 -2.71046,8.89522 -7.94331,4.25112 -8.96132,19.51059 -1.73252,25.96952 3.16942,2.83187 5.93359,3.75342 13.33014,4.44412 5.13236,0.47926 9.5241,0.67886 9.75941,0.44355 0.23531,-0.23532 -0.24621,-5.43647 -1.07006,-11.55813 -1.91996,-14.26639 -0.0587,-23.09569 6.1848,-29.3392 5.83409,-5.83409 12.73725,-7.66459 28.84457,-7.64867 11.28085,0.0112 14.58695,0.53585 20.3836,3.23502 11.4505,5.33185 16.94121,14.62578 16.89116,28.59108 -0.0476,13.28912 -7.59069,25.40122 -18.36088,29.48256 -4.78151,1.81194 -54.24619,2.93799 -67.43292,1.53508 z m 63.38414,-16.8047 c 4.68179,-2.13316 7.45449,-7.72367 7.45449,-15.03025 0,-11.04633 -6.99498,-16.037 -22.47764,-16.037 -4.91829,0 -11.02753,0.87125 -13.57609,1.9361 -11.66123,4.87238 -11.79568,24.73799 -0.19914,29.42352 4.3602,1.76172 24.74435,1.55477 28.79838,-0.29237 z"
       id="path17415"
       transform="matrix(0.26458333,0,0,0.26458333,-145.97406,24.525742)" />
    <path
       style="fill:#0038e3;fill-opacity:1;stroke:#000000;stroke-width:0.653895;stroke-miterlimit:4;stroke-dasharray:none;stroke-opacity:1"
       d="m 787.43923,698.01572 c -6.2651,-2.50038 -12.12812,-8.01029 -17.107,-16.07672 -4.83501,-7.83334 -5.06751,-8.00403 -9.26327,-6.80071 -10.33171,2.9631 -21.74595,-0.0854 -30.02693,-8.01949 -7.23126,-6.92835 -10.32896,-14.1591 -10.36537,-24.19518 -0.0695,-19.14952 15.0294,-34.55874 33.93757,-34.63516 13.32256,-0.0538 22.90869,6.76958 29.52991,21.01943 l 3.13426,6.74539 10.04146,0.066 c 8.73504,0.0574 10.9093,0.60241 16.71198,4.18888 12.10845,7.48386 17.9623,22.07108 14.22041,35.43582 -2.42538,8.66259 -11.84005,18.842 -19.99706,21.62137 -7.08781,2.41506 -15.71858,2.68471 -20.81596,0.65036 z m 17.04272,-15.63022 c 9.17499,-4.35382 12.59832,-15.67845 7.16511,-23.70271 -3.80341,-5.61721 -8.27071,-8.14589 -14.43966,-8.17345 -14.51208,-0.0648 -22.26997,16.2154 -12.98513,27.2498 5.87594,6.98316 12.23365,8.43496 20.25968,4.62636 z m -40.6568,-23.66261 c 15.65933,-9.5481 10.88371,-32.7557 -7.1959,-34.96921 -10.26506,-1.25677 -19.42373,6.49159 -20.54878,17.38456 -1.54639,14.97255 14.91627,25.40663 27.74468,17.58465 z"
       id="path17454"
       transform="matrix(0.26458333,0,0,0.26458333,-145.97406,24.525742)" />
    <path
       style="fill:#0038e3;fill-opacity:1;stroke:#000000;stroke-width:0.653895;stroke-miterlimit:4;stroke-dasharray:none;stroke-opacity:1"
       d="m 259.2332,401.71318 c -4.49122,-2.70599 -6.3053,-4.97699 -8.38848,-10.50128 -13.60894,-36.08905 -25.21583,-63.58727 -27.90714,-66.11562 -5.77461,-5.42496 -15.94002,-6.59968 -21.38248,-2.47095 -7.46914,5.66618 -8.92487,16.4017 -3.34002,24.63144 l 3.40887,5.02325 -3.0683,5.37346 c -1.68757,2.95541 -3.78743,5.37819 -4.66636,5.38396 -2.42385,0.0159 -9.29495,-7.37097 -11.83468,-12.72304 -3.50049,-7.37673 -4.10075,-15.71343 -1.62668,-22.59223 8.42651,-23.42874 36.00359,-30.35579 52.97793,-13.30744 4.94292,4.96446 7.22646,9.64109 17.2614,35.35096 6.36069,16.29629 11.96513,29.62962 12.45432,29.62962 0.48918,0 5.04173,-7.20307 10.11678,-16.00681 13.34754,-23.15416 11.21033,-21.22039 18.65046,-16.87512 l 6.36293,3.71615 -15.62987,27.18399 c -8.59643,14.95119 -16.08625,27.31187 -16.64403,27.46816 -0.55779,0.1563 -3.59288,-1.26953 -6.74465,-3.1685 z"
       id="path17493"
       transform="matrix(0.26458333,0,0,0.26458333,-145.97406,24.525742)" />
    <path
       style="fill:#0038e3;fill-opacity:1;stroke:#000000;stroke-width:0.653895;stroke-miterlimit:4;stroke-dasharray:none;stroke-opacity:1"
       d="m 222.05183,527.97924 c 0,-6.15535 0.4389,-7.1028 4.84829,-10.466 8.85064,-6.75072 11.20927,-16.27079 6.10511,-24.64189 -3.35662,-5.50505 -9.23554,-8.58039 -16.40252,-8.58039 -10.95548,0 -16.88373,5.85446 -18.59881,18.36731 l -0.84346,6.15375 h -6.71804 c -5.76838,0 -6.61473,-0.337 -5.98716,-2.38399 1.37657,-4.49008 -1.66062,-13.18878 -5.94558,-17.02852 -7.34177,-6.57894 -20.76747,-4.24669 -25.22997,4.38282 -4.68094,9.05194 -1.4401,19.27719 7.58977,23.94672 3.57405,1.84821 3.96656,2.72174 3.96656,8.82761 0,6.123 -0.29556,6.77519 -3.06513,6.76363 -4.98667,-0.0208 -17.10716,-7.81675 -20.67148,-13.29601 -7.15664,-11.00152 -7.47096,-21.40049 -1.01205,-33.48284 5.78191,-10.81594 19.8058,-18.37475 30.35389,-16.36062 5.16784,0.98678 12.49794,4.53666 17.42063,8.4366 l 3.27278,2.59281 6.82378,-5.16472 c 11.7066,-8.86039 22.03503,-9.78871 35.24774,-3.16805 26.53914,13.29831 21.58892,54.04257 -7.40808,60.97427 -3.70431,0.88551 -3.74627,0.81973 -3.74627,-5.87249 z"
       id="path17532"
       transform="matrix(0.26458333,0,0,0.26458333,-145.97406,24.525742)" />
    <path
       style="fill:#0038e3;fill-opacity:1;stroke:#000000;stroke-width:0.653895;stroke-miterlimit:4;stroke-dasharray:none;stroke-opacity:1"
       d="M 468.62472,995.68027 C 407.67803,991.40121 337.55174,971.89521 279.98641,943.20951 229.27214,917.9378 190.60019,890.0937 149.70545,849.40623 107.31301,807.22864 78.208149,766.47551 53.280092,714.3898 17.310689,639.23383 2.3748021,561.14311 6.6242242,470.45444 8.6048261,428.18561 10.549436,412.98526 17.657611,384.21023 61.894592,205.13188 202.4676,64.308571 383.48215,17.734333 442.69922,2.4980452 554.66334,2.1027544 615.06995,16.916709 c 59.04824,14.480833 121.4551,43.558798 173.25289,80.725768 88.85763,63.758883 156.5638,159.367943 186.34858,263.146103 20.38767,71.03607 25.61638,140.85868 15.57358,207.96381 -16.41034,109.65219 -69.23626,211.69157 -149.74941,289.25828 -80.70509,77.75164 -177.0844,122.20413 -292.85856,135.07352 -19.40178,2.15669 -64.27218,3.63098 -79.01231,2.59608 z m 84.46144,-15.52158 c 37.20196,-5.60475 87.52986,-18.246 120.19391,-30.19003 18.03564,-6.59498 61.37337,-26.1314 61.97568,-27.93832 0.22909,-0.68731 -3.9687,-8.88518 -9.32845,-18.21749 -13.9457,-24.28198 -21.62793,-40.55632 -21.62793,-45.81741 0,-2.48946 0.56093,-4.52629 1.2465,-4.52629 2.50492,0 12.79454,13.23616 22.20369,28.56194 5.30553,8.64172 11.82599,18.01105 14.48994,20.82076 9.32447,9.83469 17.21765,6.97606 49.11144,-17.78633 22.08631,-17.14785 37.36339,-31.11759 55.77779,-51.00466 36.54925,-39.47224 62.87509,-73.89606 62.87509,-82.21584 0,-4.42683 -11.17912,-13.83425 -30.0382,-25.27767 -16.58674,-10.06459 -26.85319,-18.80542 -25.21019,-21.46387 2.52442,-4.0846 13.83195,0.22265 38.48096,14.6581 10.34597,6.05902 20.90434,11.74397 23.46304,12.63324 4.26053,1.48072 4.88051,1.34096 7.36414,-1.65993 8.91775,-10.77501 34.60118,-76.42676 43.66493,-111.6159 4.88354,-18.95994 10.17764,-51.91817 12.46687,-77.61222 1.10148,-12.36271 2.25236,-24.77649 2.55752,-27.5862 l 0.55486,-5.10855 h -27.61121 c -29.43162,0 -41.24547,-1.35442 -43.98987,-5.04328 -1.44874,-1.94731 -1.70285,-1.97615 -1.70285,-0.19325 0,1.15259 1.37931,2.76083 3.06513,3.57388 2.89111,1.39432 2.81376,1.48348 -1.36228,1.57045 l -4.42741,0.0922 v -8.85483 -8.85483 l 37.12216,0.24728 37.12216,0.2473 -32.69474,0.82185 c -33.62571,0.84525 -38.82502,1.75109 -38.82502,6.76419 0,1.5598 0.35873,1.4939 1.70285,-0.31278 2.74529,-3.69005 14.56053,-5.04328 44.03386,-5.04328 h 27.65518 l -0.58119,-4.42741 c -0.31964,-2.43508 -1.53483,-15.70123 -2.70039,-29.48034 -1.16557,-13.77912 -3.36985,-32.47642 -4.8984,-41.54957 -3.92327,-23.2878 -13.40347,-59.72205 -20.94581,-80.49883 -5.81761,-16.02567 -29.67037,-70.65633 -32.01659,-73.32852 -0.53245,-0.60642 -9.48341,3.92449 -19.89103,10.06869 -31.80579,18.77674 -46.84972,25.12335 -46.84972,19.76459 0,-5.02111 23.73115,-22.91312 43.25242,-32.61002 9.67018,-4.80349 11.23464,-6.06321 11.20891,-9.02538 -0.11988,-13.79483 -33.26277,-57.93631 -71.65801,-95.438 -36.6438,-35.79102 -78.40316,-68.072713 -88.05836,-68.072713 -4.88135,0 -14.94381,14.011393 -29.59479,41.209003 -4.74244,8.80374 -9.09839,16.00681 -9.67987,16.00681 -0.58149,0 -12.28483,-5.1291 -26.00745,-11.39801 -52.04217,-23.77444 -88.10379,-34.29114 -146.21091,-42.639686 l -26.5468,-3.814116 V 57.489392 c 0,-38.601598 -0.15583,-39.040765 -13.86607,-39.077736 -8.27727,-0.02232 -11.52771,1.840412 -12.60992,7.226376 -0.32821,1.63343 -0.95065,14.510978 -1.38319,28.616776 -0.89675,29.243787 -1.70491,32.063855 -10.15799,35.446105 -2.98489,1.194319 -17.87434,3.98581 -33.08765,6.203311 -30.74467,4.481366 -55.68223,11.026486 -91.00664,23.885646 -23.43621,8.5315 -36.35217,14.14675 -47.90906,20.82859 -4.24698,2.45546 -8.57673,4.46448 -9.62167,4.46448 -3.09514,0 -8.26114,-6.55535 -17.89825,-22.71178 -10.249,-17.18226 -18.26144,-28.310327 -22.54367,-31.309708 -4.33924,-3.039337 -9.65518,-1.259101 -23.03782,7.715056 -16.80029,11.265982 -35.60233,27.334922 -61.35547,52.436702 -42.82756,41.74438 -75.000257,81.85697 -77.370842,96.46517 -1.041224,6.41631 1.127458,8.34614 25.669482,22.84227 26.01776,15.36779 36.79867,25.81581 26.57959,25.75887 -4.69514,-0.0261 -21.62355,-8.05034 -43.853165,-20.78668 -11.23882,-6.43923 -20.855727,-11.28926 -21.370903,-10.77785 -1.760108,1.74723 -20.448466,43.13109 -26.513062,58.71102 -10.809831,27.77043 -20.770803,63.66396 -26.932807,97.05011 -2.676178,14.49971 -8.96352,65.04938 -8.96352,72.06589 0,0.76586 12.031797,1.28491 29.784248,1.28491 38.710159,0 49.585176,2.1079 46.905278,9.0916 -1.62376,4.23145 -7.939478,5.06565 -42.403049,5.60072 l -34.508723,0.53578 0.779404,6.34933 c 0.428673,3.49213 1.737936,14.31868 2.909473,24.05899 7.101456,59.04244 35.996697,160.39918 53.091717,186.23151 3.458686,5.22643 3.904799,5.45762 9.16874,4.75158 3.076801,-0.41269 17.081271,-6.54293 31.546259,-13.80887 26.24192,-13.18165 33.50565,-15.43644 33.50565,-10.40077 0,4.15058 -10.8577,12.35816 -30.86385,23.3307 -17.671059,9.69182 -24.989683,15.50095 -24.989683,19.83542 0,4.11516 4.42785,12.27059 13.895513,25.59348 30.89465,43.4749 73.75651,87.11153 114.84006,116.91589 19.27414,13.98258 25.46109,17.56126 30.61374,17.70776 5.56227,0.15815 9.16976,-3.44594 16.3395,-16.32412 16.99666,-30.52913 23.89568,-39.82677 29.5522,-39.82677 4.67796,0 -0.32543,12.23601 -19.2181,46.9987 -4.88641,8.99106 -8.89383,17.6822 -8.90537,19.31364 -0.0109,1.63144 1.63048,4.2653 3.64893,5.85301 15.33874,12.06545 96.11483,39.45661 144.46411,48.98774 17.00812,3.35283 54.14663,8.26362 62.49466,8.26362 12.41372,0 13.78841,-4.37403 14.04906,-44.70177 0.15377,-23.79393 1.82849,-30.7472 7.22113,-29.98158 4.82308,0.68475 6.04884,7.11259 7.48737,39.26404 0.87285,19.50842 1.933,30.5912 3.17471,33.18847 l 1.86425,3.89942 12.31267,-0.91514 c 6.77195,-0.50333 19.97548,-2.0696 29.34117,-3.48061 z"
       id="path17571"
       transform="matrix(0.26458333,0,0,0.26458333,-145.97406,24.525742)" />
    <path
       style="fill:#0038e3;fill-opacity:1;stroke:#000000;stroke-width:0.653895;stroke-miterlimit:4;stroke-dasharray:none;stroke-opacity:1"
       d="m 128.36141,295.91111 c -7.69833,-4.49656 -13.77198,-8.40055 -13.49701,-8.67552 0.27498,-0.27498 5.87248,2.01769 12.43889,5.09482 8.09523,3.79355 13.20807,5.4085 15.881,5.01619 4.54665,-0.6673 4.77274,-0.0951 1.52779,3.86652 l -2.3537,2.87355 z"
       id="path17610"
       transform="matrix(0.26458333,0,0,0.26458333,-145.97406,24.525742)" />
    <path
       style="fill:#0038e3;fill-opacity:1;stroke:#000000;stroke-width:0.653895;stroke-miterlimit:4;stroke-dasharray:none;stroke-opacity:1"
       d=""
       id="path17649"
       transform="matrix(0.26458333,0,0,0.26458333,-145.97406,24.525742)" />
    <path
       style="fill:#0038e3;fill-opacity:1;stroke:#000000;stroke-width:0.0408684;stroke-miterlimit:4;stroke-dasharray:none;stroke-opacity:1"
       d="m 90.552123,249.20898 c 0.171336,-1.6959 0.36679,-2.53733 0.923289,-3.97476 1.083879,-2.79964 4.153683,-8.67237 6.732736,-12.88014 1.19144,-1.94385 4.380262,-6.72157 6.052102,-9.06768 6.86427,-9.63268 16.67036,-21.68923 27.23256,-33.48232 l 1.50606,-1.68156 h 1.14494 1.14494 l -1.64065,1.93699 c -14.84028,17.52076 -28.9198,36.88203 -41.71325,57.36147 l -1.434001,2.29552 z"
       id="path17725"
       transform="matrix(0.26458333,0,0,0.26458333,-145.97406,24.525742)" />
    <path
       style="fill:#0038e3;fill-opacity:1;stroke:#000000;stroke-width:0.0408684;stroke-miterlimit:4;stroke-dasharray:none;stroke-opacity:1"
       d="m 147.00189,292.54652 c -0.0812,-0.21258 -0.36677,-0.72024 -0.63464,-1.12814 -2.7669,-4.21331 -10.70525,-10.30805 -23.00551,-17.66271 -2.03888,-1.21909 -5.13121,-3.00088 -9.05784,-5.21908 -8.58426,-4.84936 -13.7772,-7.94719 -16.602797,-9.90434 -2.778892,-1.92481 -5.02421,-3.96895 -5.990774,-5.45402 -0.287115,-0.44113 -0.506851,-0.81723 -0.488303,-0.83578 0.01855,-0.0186 6.273198,3.57629 13.899224,7.98852 16.56954,9.58674 32.43292,18.75035 38.02293,21.96424 l 4.06378,2.33641 0.002,4.1507 c 9.8e-4,2.28289 -0.0122,4.1507 -0.0292,4.1507 -0.017,0 -0.0974,-0.17392 -0.17861,-0.3865 z"
       id="path17801"
       transform="matrix(0.26458333,0,0,0.26458333,-145.97406,24.525742)" />
    <path
       style="fill:#0038e3;fill-opacity:1;stroke:#000000;stroke-width:0.653895;stroke-miterlimit:4;stroke-dasharray:none;stroke-opacity:1"
       d="m 179.98994,677.39431 c -4.10753,-7.09087 -4.11722,-7.15481 -1.13416,-7.4839 1.65482,-0.18256 21.64312,-1.85652 44.41845,-3.71991 22.77533,-1.8634 41.67638,-3.65468 42.00232,-3.98062 0.32594,-0.32594 -2.86635,-6.46992 -7.09398,-13.65327 -6.40789,-10.88794 -8.07075,-12.85507 -9.9958,-11.82481 -1.27006,0.67971 -7.67301,4.33354 -14.22878,8.11962 l -11.91958,6.88378 -2.03671,-3.34753 c -6.49259,-10.6712 -7.21129,-8.85767 6.61814,-16.69988 17.80972,-10.0993 16.45782,-8.79769 14.02466,-13.50291 -2.093,-4.04741 -2.08484,-4.06569 3.12214,-6.99218 6.61453,-3.71757 7.39623,-3.67924 9.61771,0.47164 l 1.82273,3.4058 7.39999,-4.17629 c 4.06999,-2.29697 7.55483,-3.98283 7.74408,-3.74637 0.18925,0.23646 1.98254,3.27 3.9851,6.74121 2.95814,5.12762 3.27047,6.45349 1.66532,7.06944 -1.08663,0.41698 -4.44862,2.31924 -7.47111,4.22725 l -5.49541,3.4691 11.522,19.85077 c 6.3371,10.91792 11.522,20.32821 11.522,20.91174 0,0.58353 -3.21839,2.65914 -7.15198,4.61247 -6.56133,3.25821 -10.52708,3.8393 -48.02041,7.03639 -22.47764,1.91668 -42.19715,3.48388 -43.82112,3.48266 -2.12663,-0.002 -4.11173,-2.00309 -7.0956,-7.1542 z"
       id="path18395"
       transform="matrix(0.26458333,0,0,0.26458333,-145.97406,24.525742)" />
    <path
       style="fill:#0038e3;fill-opacity:1;stroke:#000000;stroke-width:0.653895;stroke-miterlimit:4;stroke-dasharray:none;stroke-opacity:1"
       d="m 323.54178,821.86927 c -12.73733,-7.41823 -24.07832,-14.03703 -25.2022,-14.70846 -1.76205,-1.05268 -1.5953,-2.07528 1.21101,-7.4264 1.78994,-3.4131 3.64405,-6.20563 4.12024,-6.20563 0.4762,0 8.51361,4.33814 17.86093,9.64031 9.34731,5.30217 18.00518,10.19438 19.2397,10.87157 1.82606,1.00168 3.27213,-0.49834 7.75535,-8.04472 3.03091,-5.10179 5.69901,-10.06094 5.9291,-11.02034 0.26452,-1.10298 -2.68907,-2.61432 -8.03284,-4.11036 -19.33826,-5.41392 -27.90599,-20.39163 -21.2542,-37.15561 3.23576,-8.15483 10.75021,-20.74591 15.84303,-26.54631 14.32937,-16.32026 40.78073,-11.81311 50.79491,8.65513 3.11457,6.36595 3.51842,8.57107 2.8731,15.68777 -0.41297,4.55436 -1.26233,8.77688 -1.88747,9.38337 -0.62513,0.6065 -3.74197,-0.44619 -6.9263,-2.33931 -4.71131,-2.80092 -5.78969,-4.18562 -5.78969,-7.4343 0,-10.33007 -8.04907,-18.87453 -17.78986,-18.88476 -5.77732,-0.006 -7.76234,1.43082 -13.16658,9.53088 -9.89605,14.83252 -11.66027,21.27558 -7.84552,28.65249 3.13403,6.06054 9.21202,8.61964 18.01486,7.58504 7.07515,-0.83155 15.40477,1.43266 17.45108,4.74365 0.68413,1.10696 -27.2474,51.10262 -29.11436,52.11286 -0.50903,0.27544 -11.34696,-5.56865 -24.08429,-12.98687 z"
       id="path18434"
       transform="matrix(0.26458333,0,0,0.26458333,-145.97406,24.525742)" />
    <path
       style="fill:#0038e3;fill-opacity:1;stroke:#000000;stroke-width:0.653895;stroke-miterlimit:4;stroke-dasharray:none;stroke-opacity:1"
       d="m 493.13696,868.60948 c -9.48686,-3.06856 -16.74376,-9.11511 -20.95101,-17.45667 -3.29675,-6.53634 -2.85406,-7.21962 4.67751,-7.21962 5.45604,0 7.49615,0.66068 9.87654,3.19848 4.41477,4.70673 8.24057,6.33748 14.86794,6.33748 10.75162,0 16.05891,-7.01209 16.05891,-21.21735 0,-6.765 -0.2846,-7.57019 -2.384,-6.74505 -1.31119,0.51534 -7.90123,1.25252 -14.64452,1.63817 -11.11632,0.63575 -12.82952,0.39439 -18.35737,-2.58626 -4.46545,-2.40779 -7.01708,-5.0781 -9.53597,-9.97954 -3.10572,-6.04333 -3.43322,-8.21349 -3.3782,-22.38547 0.052,-13.40121 0.49395,-16.51978 3.0256,-21.35131 7.1868,-13.71567 22.80595,-19.81902 39.14419,-15.296 7.23011,2.00156 17.59009,12.36154 19.59165,19.59165 0.90919,3.28423 1.49964,18.16784 1.48619,37.46273 -0.0204,29.24859 -0.26152,32.54096 -2.79187,38.11937 -1.52325,3.35818 -3.80864,7.25585 -5.07863,8.6615 -6.06946,6.71777 -23.57047,11.82732 -31.60696,9.22789 z m 17.55927,-56.86794 c 4.61286,-3.23098 6.97062,-10.08247 6.97062,-20.25618 0,-16.3678 -6.12842,-23.52315 -18.91293,-22.08215 -8.56818,0.96575 -13.22699,6.26891 -14.50695,16.51333 -1.56658,12.53849 1.34878,22.7195 7.45716,26.04184 4.81205,2.61727 15.11376,2.49965 18.9921,-0.21684 z"
       id="path18473"
       transform="matrix(0.26458333,0,0,0.26458333,-145.97406,24.525742)" />
    <path
       style="fill:#0038e3;fill-opacity:1;stroke:#000000;stroke-width:0.653895;stroke-miterlimit:4;stroke-dasharray:none;stroke-opacity:1"
       d="m 651.44672,838.14349 c -1.46875,-2.43508 -3.37003,-6.61921 -4.22508,-9.29807 -1.53415,-4.80648 -13.21236,-80.59616 -14.69777,-95.38608 l -0.76546,-7.62162 6.53658,-3.65337 c 3.59512,-2.00935 6.95144,-3.17732 7.45848,-2.59549 0.50704,0.58184 4.11809,23.12683 8.02455,50.1 3.90647,26.97317 7.34541,49.79456 7.64209,50.7142 0.35116,1.08855 5.19374,-0.99771 13.87622,-5.9781 7.33524,-4.2076 13.51795,-7.79763 13.73935,-7.97785 0.22141,-0.18021 -1.49231,-3.54136 -3.80825,-7.4692 -2.31594,-3.92785 -4.02966,-7.26468 -3.80825,-7.41518 0.2214,-0.1505 3.1749,-1.85937 6.56334,-3.7975 l 6.16079,-3.52387 7.82965,13.69853 c 4.3063,7.53419 7.66421,13.85715 7.46202,14.05101 -1.50621,1.44419 -52.94125,30.58 -53.98454,30.58 -0.73329,0 -2.53497,-1.99233 -4.00372,-4.42741 z"
       id="path18512"
       transform="matrix(0.26458333,0,0,0.26458333,-145.97406,24.525742)" />
    <path
       style="fill:#0038e3;fill-opacity:1;stroke:#000000;stroke-width:0.115593;stroke-miterlimit:4;stroke-dasharray:none;stroke-opacity:1"
       d="m 401.14303,348.74212 c -9.89288,-17.13291 -18.05083,-31.31693 -18.12877,-31.52004 -0.41065,-1.07014 20.11309,-12.19463 31.17084,-16.89554 21.39944,-9.0974 44.16695,-14.71916 67.33362,-16.62603 2.51656,-0.20714 5.30706,-0.43729 6.2011,-0.51145 l 1.62553,-0.13483 v 36.61916 36.61915 h 9.99402 9.99401 v 0.96328 0.96328 h -10.71647 -10.71647 l -0.002,-28.47691 c -0.003,-34.72664 -0.15071,-37.90218 -1.93729,-41.54018 -1.28481,-2.61625 -2.97513,-3.43288 -7.10562,-3.43288 -2.95467,0 -5.49042,0.41709 -16.18074,2.66143 -16.40194,3.44345 -27.3624,6.55153 -40.87915,11.59217 -12.50288,4.66255 -21.34166,8.81058 -30.24571,14.19426 -3.10002,1.87438 -5.93374,3.58239 -6.29714,3.79558 -0.3634,0.21319 -0.66142,0.45447 -0.66225,0.53618 -8.4e-4,0.0817 3.80425,6.69222 8.45575,14.69 14.49933,24.93014 20.31613,35.19736 24.06463,42.47649 2.16127,4.19692 2.58259,5.17762 2.22437,5.17762 -0.11277,0 -8.2992,-14.01783 -18.19209,-31.15074 z"
       id="path19661"
       transform="matrix(0.26458333,0,0,0.26458333,-145.97406,24.525742)" />
    <path
       style="fill:#0038e3;fill-opacity:1;stroke:#000000;stroke-width:0.115593;stroke-miterlimit:4;stroke-dasharray:none;stroke-opacity:1"
       d="m 578.93278,380.97962 c -0.16349,-0.19699 -0.23535,-0.51947 -0.1597,-0.71662 0.0756,-0.19715 3.86717,-6.83612 8.4256,-14.75326 10.51258,-18.25839 14.52119,-25.31726 18.22625,-32.09505 3.78757,-6.92874 7.134,-13.50407 7.50796,-14.75224 l 0.29209,-0.97491 -1.17817,-1.06667 c -4.52963,-4.10094 -30.47943,-16.20878 -48.04739,-22.4183 -6.39445,-2.26016 -10.9289,-3.51279 -18.86259,-5.21076 -8.44754,-1.80794 -14.79275,-2.74661 -30.62321,-4.53019 -4.17746,-0.47067 -4.82471,-0.59917 -4.89653,-0.97214 -0.0926,-0.48057 -0.84926,-0.5001 7.90415,0.20404 24.28737,1.95373 48.09561,7.94382 69.84967,17.57399 10.77965,4.77198 29.3921,14.97453 29.03162,15.91391 -0.0671,0.17501 -7.42237,12.97498 -16.34492,28.44437 -8.92256,15.4694 -17.19089,29.82903 -18.37408,31.91031 -1.18319,2.08127 -2.21926,3.78808 -2.30238,3.7929 -0.0831,0.005 -0.28489,-0.15239 -0.44837,-0.34938 z"
       id="path19700"
       transform="matrix(0.26458333,0,0,0.26458333,-145.97406,24.525742)" />
    <path
       style="fill:#0038e3;fill-opacity:1;stroke:#000000;stroke-width:0.115593;stroke-miterlimit:4;stroke-dasharray:none;stroke-opacity:1"
       d="m 598.30647,400.35279 c -9.92779,-9.92845 -17.95195,-18.05173 -17.83148,-18.05173 0.26151,0 3.89557,2.70352 7.24516,5.38996 7.7776,6.23782 15.40092,13.69942 21.68051,21.2206 2.17776,2.60834 7.18117,9.26808 7.05662,9.39263 -0.0551,0.0551 -8.22301,-8.02301 -18.15081,-17.95146 z"
       id="path19739"
       transform="matrix(0.26458333,0,0,0.26458333,-145.97406,24.525742)" />
    <path
       style="fill:#0038e3;fill-opacity:1;stroke:#000000;stroke-width:0.115593;stroke-miterlimit:4;stroke-dasharray:none;stroke-opacity:1"
       d=""
       id="path19852"
       transform="matrix(0.26458333,0,0,0.26458333,-145.97406,24.525742)" />
    <path
       style="fill:#0038e3;fill-opacity:1;stroke:#000000;stroke-width:0.115593;stroke-miterlimit:4;stroke-dasharray:none;stroke-opacity:1"
       d=""
       id="path19891"
       transform="matrix(0.26458333,0,0,0.26458333,-145.97406,24.525742)" />
    <path
       style="fill:#0038e3;fill-opacity:1;stroke:#000000;stroke-width:0.115593;stroke-miterlimit:4;stroke-dasharray:none;stroke-opacity:1"
       d=""
       id="path19930"
       transform="matrix(0.26458333,0,0,0.26458333,-145.97406,24.525742)" />
    <path
       style="fill:#0038e3;fill-opacity:1;stroke:#000000;stroke-width:0.115593;stroke-miterlimit:4;stroke-dasharray:none;stroke-opacity:1"
       d="m 529.227,521.55497 c -0.40291,-12.43525 -0.61422,-33.53938 -0.6209,-62.01104 l -0.007,-30.52388 h -9.3844 c -8.24276,0 -9.36754,-0.0439 -9.24579,-0.36123 0.12005,-0.31284 1.4416,-0.36123 9.86604,-0.36123 h 9.72743 v 49.24761 c 0,27.08618 -0.0372,49.2476 -0.0828,49.2476 -0.0455,0 -0.15912,-2.35703 -0.25247,-5.23783 z"
       id="path20117"
       transform="matrix(0.26458333,0,0,0.26458333,-145.97406,24.525742)" />
    <path
       style="fill:#0038e3;fill-opacity:1;stroke:#000000;stroke-width:0.115593;stroke-miterlimit:4;stroke-dasharray:none;stroke-opacity:1"
       d="m 528.99951,502.0692 c -0.0879,-6.57809 -0.15975,-25.75809 -0.15975,-42.62223 v -30.66208 l -9.33176,-0.066 -9.33175,-0.0659 9.57257,-0.0573 9.57258,-0.0573 v 42.74548 c 0,23.51001 -0.0365,42.74547 -0.0811,42.74547 -0.0446,0 -0.15296,-5.38207 -0.24082,-11.96016 z"
       id="path20156"
       transform="matrix(0.26458333,0,0,0.26458333,-145.97406,24.525742)" />
  </g>
  <style
     type="text/css"
     id="style132">
	.st0{fill:#3EC7F4;}
</style>
</svg>
